/* XPM */
static const char * ICON_INTERRUPT_xpm[] = {
"32 32 562 2",
"  	c None",
". 	c #020101",
"+ 	c #000000",
"@ 	c #010101",
"# 	c #010100",
"$ 	c #010000",
"% 	c #030202",
"& 	c #18100F",
"* 	c #251816",
"= 	c #261817",
"- 	c #191110",
"; 	c #040404",
"> 	c #2E1B1A",
", 	c #653B38",
"' 	c #B3635E",
") 	c #DE726E",
"! 	c #F57571",
"~ 	c #FA726F",
"{ 	c #FA6F6C",
"] 	c #F56D6B",
"^ 	c #DF6864",
"/ 	c #B75855",
"( 	c #693532",
"_ 	c #301A18",
": 	c #050303",
"< 	c #160D0D",
"[ 	c #7B4844",
"} 	c #D7756F",
"| 	c #F36F6B",
"1 	c #F55E5F",
"2 	c #F65758",
"3 	c #F55355",
"4 	c #F45254",
"5 	c #F45154",
"6 	c #F25152",
"7 	c #F15051",
"8 	c #F05151",
"9 	c #EB5352",
"0 	c #D4524F",
"a 	c #7C3935",
"b 	c #1A0F0E",
"c 	c #0A0605",
"d 	c #4C2D2B",
"e 	c #E07A74",
"f 	c #F8706D",
"g 	c #F35254",
"h 	c #F45153",
"i 	c #F45355",
"j 	c #F35253",
"k 	c #F05050",
"l 	c #EE4E4F",
"m 	c #EC4C4C",
"n 	c #E94A4A",
"o 	c #E64847",
"p 	c #E24444",
"q 	c #E74644",
"r 	c #D44A47",
"s 	c #4E201E",
"t 	c #0B0404",
"u 	c #6C3F3C",
"v 	c #E47A74",
"w 	c #F55E5E",
"x 	c #F15052",
"y 	c #EF4F50",
"z 	c #EC4D4D",
"A 	c #EB4B4C",
"B 	c #E84948",
"C 	c #E64746",
"D 	c #E34544",
"E 	c #E14442",
"F 	c #DE413F",
"G 	c #DD403D",
"H 	c #CF3F3C",
"I 	c #6A2320",
"J 	c #090505",
"K 	c #693E3B",
"L 	c #F97E78",
"M 	c #F35758",
"N 	c #F55254",
"O 	c #ED4D4E",
"P 	c #EB4C4C",
"Q 	c #E64846",
"R 	c #E34644",
"S 	c #DE423F",
"T 	c #DC403E",
"U 	c #DA3F3C",
"V 	c #D83D3A",
"W 	c #D33B37",
"X 	c #D93B38",
"Y 	c #5A1B19",
"Z 	c #060202",
"` 	c #452927",
" .	c #E17A74",
"..	c #F45758",
"+.	c #F45354",
"@.	c #EC4C4D",
"#.	c #E74948",
"$.	c #E44645",
"%.	c #E24543",
"&.	c #DF4341",
"*.	c #DD413F",
"=.	c #DB3F3D",
"-.	c #D93E3B",
";.	c #D63C39",
">.	c #D43A37",
",.	c #D13835",
"'.	c #CE3733",
").	c #B9332E",
"!.	c #301210",
"~.	c #110A09",
"{.	c #D67770",
"].	c #F56060",
"^.	c #F55255",
"/.	c #EA4A4A",
"(.	c #E44745",
"_.	c #E24644",
":.	c #E04341",
"<.	c #D43B37",
"[.	c #D13935",
"}.	c #D03734",
"|.	c #CD3631",
"1.	c #CB3430",
"2.	c #CA332E",
"3.	c #9E2E2A",
"4.	c #070504",
"5.	c #673E3A",
"6.	c #FB7471",
"7.	c #F35153",
"8.	c #EB4B4B",
"9.	c #E94A49",
"0.	c #DF4340",
"a.	c #DB3F3C",
"b.	c #D73D3A",
"c.	c #D53C38",
"d.	c #D33936",
"e.	c #CF3632",
"f.	c #CD3530",
"g.	c #C9332F",
"h.	c #C7322E",
"i.	c #C5302B",
"j.	c #371917",
"k.	c #221413",
"l.	c #CC716B",
"m.	c #F25456",
"n.	c #F25253",
"o.	c #E14543",
"p.	c #DD413E",
"q.	c #D83E3A",
"r.	c #D63C38",
"s.	c #D33A36",
"t.	c #CF3733",
"u.	c #CD3531",
"v.	c #C5302C",
"w.	c #C32F2A",
"x.	c #C12D28",
"y.	c #C02B26",
"z.	c #802924",
"A.	c #0D0908",
"B.	c #4F2E2C",
"C.	c #ED716D",
"D.	c #F04E4F",
"E.	c #EF4F4F",
"F.	c #E74949",
"G.	c #E54847",
"H.	c #DE4240",
"I.	c #DC413E",
"J.	c #D93F3C",
"K.	c #D43B38",
"L.	c #D23A37",
"M.	c #D03834",
"N.	c #CE3732",
"O.	c #CB3530",
"P.	c #C9342F",
"Q.	c #C6322D",
"R.	c #C5312C",
"S.	c #C22F2A",
"T.	c #C02D28",
"U.	c #BD2B26",
"V.	c #BA2A24",
"W.	c #A12A24",
"X.	c #231311",
"Y.	c #93524D",
"Z.	c #F2605E",
"`.	c #EA4B4B",
" +	c #E84A49",
".+	c #E54A48",
"++	c #E24846",
"@+	c #E04644",
"#+	c #DD4341",
"$+	c #DB4240",
"%+	c #D9403D",
"&+	c #D63F3B",
"*+	c #D33D39",
"=+	c #D13B38",
"-+	c #CF3936",
";+	c #CD3834",
">+	c #CA3632",
",+	c #C83531",
"'+	c #C6332F",
")+	c #C4322E",
"!+	c #C2312C",
"~+	c #C0302B",
"{+	c #BD2E29",
"]+	c #BB2C26",
"^+	c #B92923",
"/+	c #B62722",
"(+	c #AE2721",
"_+	c #43201C",
":+	c #BD645E",
"<+	c #EF5454",
"[+	c #E94B4A",
"}+	c #E74847",
"|+	c #DD6362",
"1+	c #D19D9D",
"2+	c #D4A2A1",
"3+	c #D5A2A2",
"4+	c #D4A3A2",
"5+	c #D5A4A3",
"6+	c #D5A5A4",
"7+	c #D5A6A4",
"8+	c #D6A6A4",
"9+	c #D5A6A5",
"0+	c #D5A7A5",
"a+	c #C55E59",
"b+	c #B5241E",
"c+	c #B3251F",
"d+	c #AF241E",
"e+	c #582621",
"f+	c #D66A63",
"g+	c #E94C4A",
"h+	c #E44746",
"i+	c #E34443",
"j+	c #D8706E",
"k+	c #ECE9E9",
"l+	c #FFFEFE",
"m+	c #FEFEFE",
"n+	c #FDFDFD",
"o+	c #FCFCFC",
"p+	c #FAFBFB",
"q+	c #F9FAFA",
"r+	c #F7F8F8",
"s+	c #F6F6F6",
"t+	c #F4F4F4",
"u+	c #F2F3F3",
"v+	c #F0F1F1",
"w+	c #EEEFEF",
"x+	c #ECEDED",
"y+	c #EBECEC",
"z+	c #E8E9E9",
"A+	c #E7E7E7",
"B+	c #E6E6E6",
"C+	c #CC7976",
"D+	c #B02019",
"E+	c #AF231D",
"F+	c #AC221B",
"G+	c #662923",
"H+	c #010202",
"I+	c #060404",
"J+	c #DC6861",
"K+	c #E54846",
"L+	c #E14443",
"M+	c #DF4240",
"N+	c #D76F6D",
"O+	c #F1ECEC",
"P+	c #FBFAFA",
"Q+	c #F9F9F9",
"R+	c #F7F7F7",
"S+	c #F5F5F5",
"T+	c #F4F3F3",
"U+	c #F2F2F2",
"V+	c #F1F0F0",
"W+	c #EFEFEF",
"X+	c #EDEDED",
"Y+	c #ECECEC",
"Z+	c #EAEAEA",
"`+	c #E8E8E8",
" @	c #E5E5E5",
".@	c #E6E6E5",
"+@	c #CC7A76",
"@@	c #AC1E17",
"#@	c #AB221B",
"$@	c #A91F19",
"%@	c #672822",
"&@	c #030403",
"*@	c #050403",
"=@	c #D6625B",
"-@	c #E04441",
";@	c #D8726F",
">@	c #F6F1F1",
",@	c #FDFBFB",
"'@	c #FBFBFB",
")@	c #F8F7F7",
"!@	c #F5F4F4",
"~@	c #F3F2F2",
"{@	c #F2F1F1",
"]@	c #F0EFEF",
"^@	c #EEEDED",
"/@	c #ECECEB",
"(@	c #EBEAEA",
"_@	c #E9E8E8",
":@	c #E6E5E5",
"<@	c #E4E3E3",
"[@	c #E7E6E6",
"}@	c #CC7B77",
"|@	c #A81B14",
"1@	c #A91E18",
"2@	c #A51C16",
"3@	c #5F2822",
"4@	c #040303",
"5@	c #C85B54",
"6@	c #D93F3B",
"7@	c #D73C38",
"8@	c #DA7573",
"9@	c #F9F5F5",
"0@	c #FDFCFC",
"a@	c #FCFDFD",
"b@	c #FBFCFC",
"c@	c #F9FCFC",
"d@	c #F8FBFB",
"e@	c #F6FAFA",
"f@	c #F4FAFA",
"g@	c #F3F8F9",
"h@	c #F2F7F7",
"i@	c #F1F6F6",
"j@	c #EFF4F5",
"k@	c #EEF3F3",
"l@	c #EDF2F2",
"m@	c #ECF1F1",
"n@	c #EBF0F1",
"o@	c #EAEFEF",
"p@	c #EFF2F2",
"q@	c #CC7A77",
"r@	c #A61812",
"s@	c #9F1C15",
"t@	c #532722",
"u@	c #030101",
"v@	c #A54D45",
"w@	c #DA423D",
"x@	c #D23935",
"y@	c #D55350",
"z@	c #E18A88",
"A@	c #E08A88",
"B@	c #DE8987",
"C@	c #DC8885",
"D@	c #DB8784",
"E@	c #DA8683",
"F@	c #D88582",
"G@	c #D78481",
"H@	c #D58380",
"I@	c #D4827F",
"J@	c #D2827E",
"K@	c #D2817D",
"L@	c #D0817D",
"M@	c #CF807C",
"N@	c #CE7F7C",
"O@	c #CE7F7B",
"P@	c #CD7E7A",
"Q@	c #B5443F",
"R@	c #A21912",
"S@	c #A11A13",
"T@	c #911C15",
"U@	c #3D231E",
"V@	c #763933",
"W@	c #D6423D",
"X@	c #CC3430",
"Y@	c #CA312D",
"Z@	c #C7302B",
"`@	c #C52E2A",
" #	c #C32D28",
".#	c #C12B26",
"+#	c #BE2A25",
"@#	c #BB2823",
"##	c #B92721",
"$#	c #B72620",
"%#	c #B3231D",
"&#	c #B0211B",
"*#	c #AE2019",
"=#	c #AB1F18",
"-#	c #AA1D17",
";#	c #A81B15",
">#	c #A61A13",
",#	c #A31912",
"'#	c #A01911",
")#	c #9F1810",
"!#	c #7D2018",
"~#	c #2A1C18",
"{#	c #371C18",
"]#	c #C7443D",
"^#	c #CB342F",
"/#	c #C6312C",
"(#	c #C42F2A",
"_#	c #C22E29",
":#	c #BE2C27",
"<#	c #BC2B25",
"[#	c #BA2924",
"}#	c #B82822",
"|#	c #B62620",
"1#	c #B4251F",
"2#	c #B1241D",
"3#	c #AF231C",
"4#	c #AC211A",
"5#	c #AA2019",
"6#	c #A71C16",
"7#	c #A41B14",
"8#	c #A31A13",
"9#	c #9E1810",
"0#	c #9C170F",
"a#	c #9D150D",
"b#	c #54261F",
"c#	c #140E0C",
"d#	c #020000",
"e#	c #130B0A",
"f#	c #A03E37",
"g#	c #C8312C",
"h#	c #C4302B",
"i#	c #C32E2A",
"j#	c #BE2C26",
"k#	c #BB2A24",
"l#	c #B72721",
"m#	c #B52620",
"n#	c #B3241E",
"o#	c #B1241C",
"p#	c #AD221B",
"q#	c #AB211A",
"r#	c #AA1F18",
"s#	c #A81D17",
"t#	c #A61C15",
"u#	c #A11A12",
"v#	c #9D180F",
"w#	c #9B160F",
"x#	c #9A140D",
"y#	c #8A1710",
"z#	c #332520",
"A#	c #3E1E1A",
"B#	c #CB3832",
"C#	c #C32E29",
"D#	c #B0231D",
"E#	c #AA1F19",
"F#	c #A61B15",
"G#	c #A21A12",
"H#	c #9D1810",
"I#	c #99150D",
"J#	c #96140C",
"K#	c #91140C",
"L#	c #58261F",
"M#	c #18100D",
"N#	c #060403",
"O#	c #94322B",
"P#	c #BD2B25",
"Q#	c #B62721",
"R#	c #B2241E",
"S#	c #AB2019",
"T#	c #AA1E18",
"U#	c #A51B15",
"V#	c #A11912",
"W#	c #9C180F",
"X#	c #9A150E",
"Y#	c #99140D",
"Z#	c #95130C",
"`#	c #961209",
" $	c #6F1D15",
".$	c #35231D",
"+$	c #040201",
"@$	c #1F0C0A",
"#$	c #9B2924",
"$$	c #AA201A",
"%$	c #A91F18",
"&$	c #9D170F",
"*$	c #9A160E",
"=$	c #98140D",
"-$	c #96130B",
";$	c #94130A",
">$	c #921108",
",$	c #791810",
"'$	c #36251F",
")$	c #0F0806",
"!$	c #2B0E0C",
"~$	c #AA2620",
"{$	c #B5241F",
"]$	c #B0241D",
"^$	c #AF231B",
"/$	c #A91D17",
"($	c #A21A13",
"_$	c #9B170F",
":$	c #97140C",
"<$	c #95130B",
"[$	c #92120A",
"}$	c #941008",
"|$	c #771810",
"1$	c #452821",
"2$	c #150C0A",
"3$	c #1A0E0D",
"4$	c #050202",
"5$	c #200908",
"6$	c #7E1E18",
"7$	c #AB1F19",
"8$	c #A81D18",
"9$	c #931209",
"0$	c #931008",
"a$	c #891109",
"b$	c #681D15",
"c$	c #34251F",
"d$	c #150B09",
"e$	c #040101",
"f$	c #0D0504",
"g$	c #2D1010",
"h$	c #120605",
"i$	c #5D1B16",
"j$	c #98211B",
"k$	c #A51A13",
"l$	c #9E1911",
"m$	c #9C1810",
"n$	c #9A160F",
"o$	c #98150D",
"p$	c #94130B",
"q$	c #951108",
"r$	c #900F07",
"s$	c #7B160E",
"t$	c #50261F",
"u$	c #33201A",
"v$	c #0D0706",
"w$	c #1D0606",
"x$	c #0B0303",
"y$	c #140B0A",
"z$	c #4D1B16",
"A$	c #721E18",
"B$	c #8A1C15",
"C$	c #911A12",
"D$	c #931710",
"E$	c #92160E",
"F$	c #8E150D",
"G$	c #89150E",
"H$	c #7C1810",
"I$	c #45241D",
"J$	c #2E211B",
"K$	c #160B09",
"L$	c #030100",
"M$	c #080201",
"N$	c #2B0A09",
"O$	c #210A0A",
"P$	c #040302",
"Q$	c #110A08",
"R$	c #281310",
"S$	c #391A15",
"T$	c #461F19",
"U$	c #4A211B",
"V$	c #47211B",
"W$	c #3F201A",
"X$	c #301B16",
"Y$	c #221411",
"Z$	c #070302",
"`$	c #190605",
" %	c #160606",
".%	c #120606",
"+%	c #070303",
"@%	c #030000",
"#%	c #100505",
"$%	c #110403",
"%%	c #363636",
"&%	c #353434",
"*%	c #353535",
"=%	c #3A3A3A",
"                        . + @ @ @ @ + #                         ",
"                    . $ $ % & * = - ; $ + . $                   ",
"                $ % > , ' ) ! ~ { ] ^ / ( _ : $                 ",
"            $ $ < [ } | 1 2 3 4 5 6 7 8 9 0 a b $ $             ",
"          @ c d e f g h 3 3 i j k l m n o p q r s t $           ",
"        # @ u v w 4 3 4 3 4 x y z A B C D E F G H I $ $         ",
"      $ J K L M N 4 4 4 6 y O P B Q R E S T U V W X Y Z $       ",
"      $ `  ...4 4 +.j 7 l @.n #.$.%.&.*.=.-.;.>.,.'.).!.+       ",
"    # ~.{.].3 ^.g x l z /.B (._.:.S =.-.;.<.[.}.|.1.2.3.4.$     ",
"    + 5.6.4 4 7.y O 8.9.o $.E 0.T a.b.c.d.,.e.f.g.h.i.i.j.$     ",
"  . k.l.m.n.y l P n o $.o.&.p.=.q.r.s.,.t.u.g.h.v.w.x.y.z.A.$   ",
"  $ B.C.D.E.z P F.G.R E H.I.J.b.K.L.M.N.O.P.Q.R.S.T.U.V.W.X.+   ",
"  $ Y.Z.z `. +.+++@+#+$+%+&+*+=+-+;+>+,+'+)+!+~+{+]+^+/+(+_++ + ",
"@ $ :+<+[+}+|+1+2+2+2+3+4+4+4+5+5+5+6+6+7+8+9+7+0+a+b+c+d+e++ + ",
"+ @ f+g+h+i+j+k+l+m+n+o+p+q+r+s+t+u+v+w+x+y+z+A+B+C+D+E+F+G+H++ ",
"+ I+J+K+L+M+N+O+n+o+P+Q+R+S+T+U+V+W+X+Y+Z+`+A+ @.@+@@@#@$@%@&@+ ",
"+ *@=@-@p.a.;@>@,@'@Q+)@s+!@~@{@]@^@/@(@_@A+:@<@[@}@|@1@2@3@4@+ ",
"+ @ 5@S 6@7@8@9@0@a@b@c@d@e@f@g@h@i@j@k@l@m@n@o@p@q@r@2@s@t@u@+ ",
". $ v@w@K.x@y@z@A@B@C@D@E@F@G@H@H@I@J@K@L@M@N@O@P@Q@R@S@T@U@+ + ",
"  $ V@W@[.t.X@Y@Z@`@ #.#+#@###$#b+%#&#*#=#-#;#>#,#R@'#)#!#~#+   ",
"  $ {#]#1.^#h./#(#_#:#<#[#}#|#1#2#3#4#5#1@6#7#8#'#9#0#a#b#c#+   ",
"  d#e#f#g#Q.h#i#T.j#k#^+l#m#n#o#p#q#r#s#t#7#u#'#v#w#x#y#z#J +   ",
"    $ A#B#C#T.:#k#^+l#m#n#D#p#4#E#s#F#7#G#'#H#0#I#J#K#L#M#+     ",
"    $ N#O#x.P#k#}#Q#1#R#3#p#S#T#6#U#8#V#)#W#X#Y#Z#`# $.$+$+     ",
"      $ @$#$}#Q#1#R#3#p#$$%$6#U#8#V#)#&$*$=$-$;$>$,$'$)$+       ",
"        . !$~${$]$^$4#E#/$6#7#($'#9#_$X#:$<$[$}$|$1$2$d#+       ",
"        3$4$5$6$#@7$8$6#7#8#'#9#0#*$:$<$9$0$a$b$c$d$e$f$        ",
"          g$d#h$i$j$|@k$u#l$m$n$o$J#p$q$r$s$t$u$v$$ w$          ",
"              x$@ y$z$A$B$C$D$E$F$G$H$b$I$J$K$L$M$N$            ",
"                O$. P$Q$R$S$T$U$V$W$X$Y$Q$Z$$ `$                ",
"                     %.%+%$ $ @%@%$ + 4$#%$%                    ",
"                            %%&%*%=%                            "};
