/* XPM */
static const char * ICON_ARCHIVE_xpm[] = {
"32 32 471 2",
"  	c None",
". 	c #000000",
"+ 	c #060605",
"@ 	c #20211B",
"# 	c #070706",
"$ 	c #040404",
"% 	c #1C1D1A",
"& 	c #57594B",
"* 	c #727560",
"= 	c #434538",
"- 	c #080806",
"; 	c #080807",
"> 	c #21211F",
", 	c #2F2F2C",
"' 	c #343431",
") 	c #44453F",
"! 	c #656758",
"~ 	c #747762",
"{ 	c #777A64",
"] 	c #70735E",
"^ 	c #2C2D25",
"/ 	c #101010",
"( 	c #41413E",
"_ 	c #A7A79C",
": 	c #DEDED0",
"< 	c #DEDED1",
"[ 	c #B4B6A7",
"} 	c #777A67",
"| 	c #7B7E67",
"1 	c #80836C",
"2 	c #737561",
"3 	c #161713",
"4 	c #000100",
"5 	c #2A2A28",
"6 	c #989890",
"7 	c #D4D4C7",
"8 	c #EEEEE0",
"9 	c #E5E6DA",
"0 	c #A0A293",
"a 	c #767966",
"b 	c #71745F",
"c 	c #757862",
"d 	c #7A7D67",
"e 	c #7E816A",
"f 	c #82866E",
"g 	c #868A71",
"h 	c #545647",
"i 	c #0B0B09",
"j 	c #0A0A0A",
"k 	c #333331",
"l 	c #9A9A93",
"m 	c #E0E0D4",
"n 	c #EFEFE1",
"o 	c #EEEFE1",
"p 	c #C8C9BE",
"q 	c #87897A",
"r 	c #6C6F5A",
"s 	c #787B66",
"t 	c #81856D",
"u 	c #8A8E74",
"v 	c #898D74",
"w 	c #4A4C3E",
"x 	c #010201",
"y 	c #010101",
"z 	c #191919",
"A 	c #888884",
"B 	c #CDCDC3",
"C 	c #F0F0E3",
"D 	c #EFEFE6",
"E 	c #C0C2B8",
"F 	c #777A69",
"G 	c #6A6D59",
"H 	c #6E715D",
"I 	c #7B7E68",
"J 	c #84876F",
"K 	c #898C73",
"L 	c #8D9176",
"M 	c #92967B",
"N 	c #161813",
"O 	c #040403",
"P 	c #252524",
"Q 	c #868685",
"R 	c #DDDDD5",
"S 	c #F2F2E6",
"T 	c #F5F5EC",
"U 	c #F8F8F1",
"V 	c #DBDCD7",
"W 	c #858779",
"X 	c #696C58",
"Y 	c #6D705C",
"Z 	c #767963",
"` 	c #7F826B",
" .	c #888B72",
"..	c #8D9177",
"+.	c #909479",
"@.	c #898C74",
"#.	c #767862",
"$.	c #33342B",
"%.	c #161614",
"&.	c #9B9C92",
"*.	c #C4C5BA",
"=.	c #A5A69B",
"-.	c #B5B6AD",
";.	c #CACBC4",
">.	c #CCCDC8",
",.	c #8A8C83",
"'.	c #A6A79D",
").	c #727562",
"!.	c #70725E",
"~.	c #797C66",
"{.	c #7D816A",
"].	c #8A8E75",
"^.	c #8E9177",
"/.	c #83856F",
"(.	c #6E705C",
"_.	c #6A6C58",
":.	c #34352B",
"<.	c #1A1A18",
"[.	c #AEAFA2",
"}.	c #E1E2D1",
"|.	c #D8DACA",
"1.	c #A7A999",
"2.	c #808271",
"3.	c #666856",
"4.	c #606251",
"5.	c #5F6150",
"6.	c #7B7D6E",
"7.	c #A8A99A",
"8.	c #7B7F6A",
"9.	c #787C65",
"0.	c #7D8069",
"a.	c #858970",
"b.	c #888B74",
"c.	c #676956",
"d.	c #6E6F5B",
"e.	c #34342B",
"f.	c #151514",
"g.	c #A9A99D",
"h.	c #DEDFCE",
"i.	c #DFE0CF",
"j.	c #DFE0D0",
"k.	c #D6D7C7",
"l.	c #B8BBA9",
"m.	c #959784",
"n.	c #797B66",
"o.	c #A2A492",
"p.	c #9FA18E",
"q.	c #7C7F68",
"r.	c #8A8D75",
"s.	c #868873",
"t.	c #6F715E",
"u.	c #656754",
"v.	c #686A56",
"w.	c #6D6E5A",
"x.	c #70725D",
"y.	c #34352C",
"z.	c #0F0F0E",
"A.	c #A2A396",
"B.	c #E0E1D0",
"C.	c #E2E3D2",
"D.	c #CFD1BF",
"E.	c #B5B7A1",
"F.	c #A1A48B",
"G.	c #B6B8A2",
"H.	c #999B86",
"I.	c #878A72",
"J.	c #8F917C",
"K.	c #818370",
"L.	c #646553",
"M.	c #646552",
"N.	c #6C6D59",
"O.	c #747660",
"P.	c #37372E",
"Q.	c #0D0D0C",
"R.	c #9C9D91",
"S.	c #D4D6C3",
"T.	c #C7C9B4",
"U.	c #C9CBB7",
"V.	c #A8AA97",
"W.	c #767766",
"X.	c #636452",
"Y.	c #666855",
"Z.	c #6B6C59",
"`.	c #737560",
" +	c #777963",
".+	c #36372E",
"++	c #0A0A09",
"@+	c #909186",
"#+	c #E3E4D4",
"$+	c #8A8B7A",
"%+	c #5F604E",
"&+	c #626351",
"*+	c #6E705B",
"=+	c #72745F",
"-+	c #7A7C66",
";+	c #33342D",
">+	c #090908",
",+	c #8A8B81",
"'+	c #D9DACA",
")+	c #7C7D6C",
"!+	c #626350",
"~+	c #656653",
"{+	c #696B57",
"]+	c #747661",
"^+	c #797B65",
"/+	c #32322C",
"(+	c #060606",
"_+	c #7E7E75",
":+	c #D8D9C8",
"<+	c #7E7F6D",
"[+	c #6C6E59",
"}+	c #636553",
"|+	c #4D4E40",
"1+	c #46473B",
"2+	c #434539",
"3+	c #1C1C18",
"4+	c #55554C",
"5+	c #828373",
"6+	c #868878",
"7+	c #4F5047",
"8+	c #030303",
"9+	c #050504",
"0+	c #76766D",
"a+	c #DDDECD",
"b+	c #7F816E",
"c+	c #676955",
"d+	c #6B6D59",
"e+	c #636552",
"f+	c #494943",
"g+	c #5C5C55",
"h+	c #5F6058",
"i+	c #5D5D55",
"j+	c #575851",
"k+	c #6E6E64",
"l+	c #999C83",
"m+	c #999D80",
"n+	c #9A9D81",
"o+	c #8A8C75",
"p+	c #292924",
"q+	c #0D0D0B",
"r+	c #6B6B63",
"s+	c #DCDDCC",
"t+	c #DADBCA",
"u+	c #D4D5C5",
"v+	c #80826F",
"w+	c #6C6E5A",
"x+	c #444539",
"y+	c #5D5D56",
"z+	c #9C9E8C",
"A+	c #92947F",
"B+	c #92947E",
"C+	c #93957F",
"D+	c #959780",
"E+	c #93967E",
"F+	c #93957C",
"G+	c #94977D",
"H+	c #95987D",
"I+	c #96997E",
"J+	c #93977D",
"K+	c #646556",
"L+	c #5F6059",
"M+	c #DBDCCB",
"N+	c #C1C3B4",
"O+	c #96978C",
"P+	c #55564A",
"Q+	c #47483B",
"R+	c #2C2C26",
"S+	c #7F8076",
"T+	c #838573",
"U+	c #838572",
"V+	c #848774",
"W+	c #868874",
"X+	c #888A75",
"Y+	c #898B76",
"Z+	c #8B8D77",
"`+	c #8C8E78",
" @	c #8E9079",
".@	c #8F927A",
"+@	c #91947B",
"@@	c #757765",
"#@	c #050505",
"$@	c #575751",
"%@	c #D8D9C9",
"&@	c #A7A79B",
"*@	c #3E3E3A",
"=@	c #50514B",
"-@	c #585851",
";@	c #55554F",
">@	c #5B5C55",
",@	c #7F7F74",
"'@	c #75766A",
")@	c #737367",
"!@	c #707165",
"~@	c #6F7063",
"{@	c #6F7062",
"]@	c #707263",
"^@	c #777969",
"/@	c #828472",
"(@	c #848673",
"_@	c #727363",
":@	c #4B4B46",
"<@	c #D9DBCA",
"[@	c #D8DAC9",
"}@	c #D7D8C8",
"|@	c #929388",
"1@	c #42423E",
"2@	c #CECFC0",
"3@	c #D6D8C7",
"4@	c #D5D7C6",
"5@	c #D2D3C3",
"6@	c #CFD1C0",
"7@	c #CACCBC",
"8@	c #C5C7B7",
"9@	c #BDBFAF",
"0@	c #B5B7A8",
"a@	c #A9AB9D",
"b@	c #9D9F91",
"c@	c #727368",
"d@	c #6A6B5E",
"e@	c #77796A",
"f@	c #797B6B",
"g@	c #7C7D6D",
"h@	c #6B6C5E",
"i@	c #41423D",
"j@	c #D7D8C7",
"k@	c #D6D7C6",
"l@	c #D4D6C5",
"m@	c #D3D5C4",
"n@	c #BBBCAD",
"o@	c #4D4D47",
"p@	c #A7A89B",
"q@	c #DCDECC",
"r@	c #DDDFCD",
"s@	c #DCDFCD",
"t@	c #DEE0CE",
"u@	c #DFE1D1",
"v@	c #DBDDCB",
"w@	c #C8CABA",
"x@	c #6E6F65",
"y@	c #626359",
"z@	c #6A6B60",
"A@	c #6D6E62",
"B@	c #5D5E54",
"C@	c #33332F",
"D@	c #D1D2C2",
"E@	c #CDCEBE",
"F@	c #8C8D82",
"G@	c #585852",
"H@	c #CBCCBC",
"I@	c #DDDFCE",
"J@	c #E0E2D1",
"K@	c #E2E4D5",
"L@	c #E5E6D7",
"M@	c #D7D9C8",
"N@	c #B5B7A9",
"O@	c #4D4E47",
"P@	c #5A5B53",
"Q@	c #606057",
"R@	c #51514A",
"S@	c #50504A",
"T@	c #9B9C90",
"U@	c #CCCDBD",
"V@	c #D3D4C4",
"W@	c #CFD1C1",
"X@	c #CED0C0",
"Y@	c #C4C5B6",
"Z@	c #7D7E74",
"`@	c #DBDDCC",
" #	c #E0E2D2",
".#	c #E3E4D6",
"+#	c #E7E7DA",
"@#	c #E9EADE",
"##	c #E4E5D8",
"$#	c #D3D6C5",
"%#	c #D2D4C3",
"&#	c #D0D2C1",
"*#	c #808177",
"=#	c #43443F",
"-#	c #4D4D48",
";#	c #3E3E39",
">#	c #030302",
",#	c #020202",
"'#	c #171715",
")#	c #5A5B54",
"!#	c #A5A69A",
"~#	c #CECFBF",
"{#	c #CDCEBF",
"]#	c #CCCDBE",
"^#	c #C9CBBB",
"/#	c #A0A195",
"(#	c #3F3F3A",
"_#	c #BBBCAE",
":#	c #E1E3D4",
"<#	c #E5E7D9",
"[#	c #E9E9DD",
"}#	c #ECECE2",
"|#	c #EAEBE0",
"1#	c #DADBCC",
"2#	c #D4D7C5",
"3#	c #CDCFBE",
"4#	c #B1B3A4",
"5#	c #4C4C47",
"6#	c #3D3D3A",
"7#	c #2D2D2A",
"8#	c #4F504A",
"9#	c #949589",
"0#	c #C2C4B5",
"a#	c #C8CABB",
"b#	c #C7C9BA",
"c#	c #C6C8B9",
"d#	c #C6C8B7",
"e#	c #656658",
"f#	c #4E4E48",
"g#	c #C9C9BE",
"h#	c #ECEDE3",
"i#	c #F0F0E7",
"j#	c #F0F0E9",
"k#	c #DCDED1",
"l#	c #D0D2C2",
"m#	c #CFD0C0",
"n#	c #C4C6B7",
"o#	c #7C7D74",
"p#	c #232322",
"q#	c #191918",
"r#	c #595952",
"s#	c #9E9F93",
"t#	c #C7C9B8",
"u#	c #8D8F7A",
"v#	c #383930",
"w#	c #656660",
"x#	c #E7E8E2",
"y#	c #F4F4EF",
"z#	c #CDCFBF",
"A#	c #CBCDBD",
"B#	c #C7C9B9",
"C#	c #C5C7B8",
"D#	c #C4C5B7",
"E#	c #A8A89C",
"F#	c #1F1F1E",
"G#	c #0B0B0B",
"H#	c #0C0C0B",
"I#	c #4E4F49",
"J#	c #8F9186",
"K#	c #B7B9AA",
"L#	c #747666",
"M#	c #1A1A15",
"N#	c #3E3E3C",
"O#	c #6B6B6A",
"P#	c #90908F",
"Q#	c #9D9D9A",
"R#	c #989A8E",
"S#	c #A0A295",
"T#	c #A9AA9D",
"U#	c #ACAEA1",
"V#	c #AEB0A3",
"W#	c #AFAFA3",
"X#	c #ADADA1",
"Y#	c #A1A196",
"Z#	c #20201E",
"`#	c #181816",
" $	c #3A3A36",
".$	c #010100",
"+$	c #232420",
"@$	c #262723",
"#$	c #292926",
"$$	c #2B2B28",
"%$	c #2E2F2B",
"&$	c #30302D",
"*$	c #2E2E2B",
"=$	c #272725",
"-$	c #10100E",
"                                  . .                           ",
"                              . + @ # .                         ",
"                      . . . $ % & * = - .                       ",
"                  . ; > , ' ) ! ~ { ] ^ .                       ",
"              . / ( _ : < [ } * { | 1 2 3 4                     ",
"          . $ 5 6 7 8 9 0 a b c d e f g h i .                   ",
"      . j k l m n o p q r ] ~ s e t g u v w x                   ",
"    y z A B 8 C D E F G H * { I 1 J K L M g N .                 ",
"O P Q R C S T U V W X Y * Z | ` J  ...+.@.#.$.y                 ",
"%.&.*.=.=.-.;.>.,.'.).!.c ~.{.t g ].^./.(._.:.y                 ",
"<.[.}.|.1.2.3.4.5.6.7.8.9.0.t a.].b.2 c._.d.e.y                 ",
"f.g.h.i.j.k.l.m.d n.o.p.q.` J r.s.t.u.v.w.x.y.y                 ",
"z.A.h.h.h.h.B.C.D.E.F.G.H.I.J.K.L.M.v.N.x.O.P.y                 ",
"Q.R.h.h.h.h.h.h.i.i.S.T.U.V.W.X.X.Y.Z.(.`. +.+y                 ",
"++@+h.h.h.h.h.h.h.h.h.C.#+$+%+&+Y._.*+=+#.-+;+y                 ",
">+,+h.h.h.h.h.h.h.h.h.h.'+)+!+~+{+w.x.]+^+q./+y . y y .         ",
"(+_+h.h.h.h.h.h.h.h.h.h.:+<+~+v.[+}+|+1+2+= 3+Q.4+5+6+7+8+      ",
"9+0+h.h.h.h.h.h.h.h.h.a+:+b+c+d+e+y.f+g+h+i+j+k+l+m+n+o+p+q+    ",
"$ r+h.h.h.h.h.h.h.a+s+t+u+v+{+w+x+y+z+A+B+C+D+E+F+G+H+I+J+K+8+  ",
"8+L+h.h.h.h.h.a+s+M+:+N+O+P+x+Q+R+S+T+U+V+W+X+Y+Z+`+ @.@+@@@#@  ",
"  $@h.h.h.a+s+M+'+%@&@*@=@$@-@;@>@,@'@)@!@~@{@]@^@v+/@(@W+_@#   ",
"  :@h.a+s+M+<@[@}@k.|@1@2@3@3@4@5@6@7@8@9@0@a@b@c@d@e@f@g@h@#   ",
"  i@s+M+'+%@j@k@l@m@n@o@p@q@r@r@r@r@s@t@u@r@q@v@w@x@y@z@A@B@$   ",
"  C@3@[@}@k.l@m@5@D@E@F@G@H@q@r@r@I@J@K@L@h.<@M@4@N@O@P@Q@R@O   ",
"  8+S@T@U@V@5@D@W@X@E@Y@j+Z@`@I@ #.#+#@###<@4@$#%#&#*#=#-#;#>#  ",
"  . ,#'#)#!#~#X@{#]#7@^#/#(#_#:#<#[#}#|#1#2#%#D@6@3#4#5#6#7#y   ",
"      . . ++8#9#0#a#b#c#d#e#f#g#h#i#j#k#%#l#m#E@7@^#n#o#p#q#.   ",
"        . . 8+'#r#s#Y@n#t#u#v#w#x#y#y#k#6@z#A#^#B#C#D#E#F#G#    ",
"              . . H#I#J#K#L#M##@N#O#P#Q#R#S#T#U#V#W#X#Y#Z#y     ",
"                . . >#`# $`#. . .$>+z F#+$@$#$$$%$&$*$=$-$      ",
"                      . . . .                                   ",
"                                                                "};
