/* XPM */
static const char * ICON_FILE_COPY_xpm[] = {
"32 32 125 2",
"  	g None",
". 	g #000000",
"+ 	g #010101",
"@ 	g #434343",
"# 	g #808080",
"$ 	g #828282",
"% 	g #818181",
"& 	g #727272",
"* 	g #1B1B1B",
"= 	g #A8A8A8",
"- 	g #F2F2F2",
"; 	g #F0F0F0",
"> 	g #F1F1F1",
", 	g #F3F3F3",
"' 	g #F4F4F4",
") 	g #F5F5F5",
"! 	g #F6F6F6",
"~ 	g #F7F7F7",
"{ 	g #EFEFEF",
"] 	g #484848",
"^ 	g #ADADAD",
"/ 	g #EDEDED",
"( 	g #ECECEC",
"_ 	g #EEEEEE",
": 	g #4B4B4B",
"< 	g #AEAEAE",
"[ 	g #EAEAEA",
"} 	g #D5D5D5",
"| 	g #D6D6D6",
"1 	g #D7D7D7",
"2 	g #D8D8D8",
"3 	g #D9D9D9",
"4 	g #DADADA",
"5 	g #DBDBDB",
"6 	g #DCDCDC",
"7 	g #DFDFDF",
"8 	g #4C4C4C",
"9 	g #E6E6E6",
"0 	g #AAAAAA",
"a 	g #ABABAB",
"b 	g #ACACAC",
"c 	g #AFAFAF",
"d 	g #B7B7B7",
"e 	g #F8F8F8",
"f 	g #E9E9E9",
"g 	g #C0C0C0",
"h 	g #C1C1C1",
"i 	g #C2C2C2",
"j 	g #C3C3C3",
"k 	g #C4C4C4",
"l 	g #C5C5C5",
"m 	g #C6C6C6",
"n 	g #C7C7C7",
"o 	g #CDCDCD",
"p 	g #F9F9F9",
"q 	g #FAFAFA",
"r 	g #E2E2E2",
"s 	g #E3E3E3",
"t 	g #E8E8E8",
"u 	g #FCFCFC",
"v 	g #FBFBFB",
"w 	g #696969",
"x 	g #3B3B3B",
"y 	g #343434",
"z 	g #373737",
"A 	g #171717",
"B 	g #EBEBEB",
"C 	g #B9B9B9",
"D 	g #BABABA",
"E 	g #BCBCBC",
"F 	g #787878",
"G 	g #060606",
"H 	g #020202",
"I 	g #030303",
"J 	g #464646",
"K 	g #1D1D1D",
"L 	g #B5B5B5",
"M 	g #E0E0E0",
"N 	g #E1E1E1",
"O 	g #B4B4B4",
"P 	g #E4E4E4",
"Q 	g #3E3E3E",
"R 	g #2E2E2E",
"S 	g #B2B2B2",
"T 	g #B1B1B1",
"U 	g #B3B3B3",
"V 	g #2F2F2F",
"W 	g #BEBEBE",
"X 	g #BFBFBF",
"Y 	g #3F3F3F",
"Z 	g #D0D0D0",
"` 	g #B0B0B0",
" .	g #404040",
"..	g #E5E5E5",
"+.	g #DDDDDD",
"@.	g #DEDEDE",
"#.	g #5F5F5F",
"$.	g #A5A5A5",
"%.	g #2D2D2D",
"&.	g #C9C9C9",
"*.	g #CACACA",
"=.	g #CBCBCB",
"-.	g #CCCCCC",
";.	g #CECECE",
">.	g #CFCFCF",
",.	g #D1D1D1",
"'.	g #0F0F0F",
").	g #D4D4D4",
"!.	g #121212",
"~.	g #FDFDFD",
"{.	g #111111",
"].	g #0D0D0D",
"^.	g #D2D2D2",
"/.	g #FEFEFE",
"(.	g #0E0E0E",
"_.	g #E7E7E7",
":.	g #0C0C0C",
"<.	g #262626",
"[.	g #080808",
"}.	g #545454",
"|.	g #555555",
"1.	g #3D3D3D",
"2.	g #040404",
"3.	g #131313",
"4.	g #141414",
"                                                                ",
"  . . + + + + + + + + + + + + + + + + + + .                     ",
"  . @ # $ $ $ $ $ $ $ $ $ $ $ $ $ $ $ % & * .                   ",
"  + = - ; ; ; ; > > - , , ' ' ) ! ! ~ ) { ] .                   ",
"  + ^ { / ( _ _ { ; ; > - , , ) ) ! ! ) - : .                   ",
"  + < { / [ } | 1 1 2 3 3 4 5 6 6 7 ~ ! , 8 .                   ",
"  + < { / 9 0 0 a b ^ ^ ^ < c c c d e ~ , 8 .                   ",
"  + < { _ f g h i j k k l l m m n o e ~ , 8 .                   ",
"  + < { _ { , ' ' ) ! ! ~ e e p q q ~ ~ , : .                   ",
"  + < ; _ _ r s s s t / _ { { ; > , u v , : .                   ",
"  + < ; ; f ^ ^ < b w x y y y y y z 8 8 : A . . . . . . . +     ",
"  + < > ; B C D E F G + H H H H H H I I H + . . . . . . . . .   ",
"  + < > > - ' , / J K L 7 M M M M M M N N N r r r s s s s O . + ",
"  + < - > > / ( P Q R 2 B _ _ _ _ { ; > - - , ' ) ) ! ~ e s . . ",
"  + < - , ( S T a R R 2 f / B B B ( / _ _ { ; > - - ) ~ e P . . ",
"  + < , , / O U ^ V R 2 f _ | W W X g g h i i j k i 6 ~ p P . . ",
"  + < , ' ' - > t Y R 2 f { Z c ` T T S S U O O L U } e p P . . ",
"  + ^ ' ' ) ! ) [  .R 2 f _ ..5 6 +.+.@.7 7 M N N N / p q P . . ",
"  + a ) ) ) ! ) [  .R 2 [ _ { ; > > - , ' ) ) ! ~ e p p q P . . ",
"  + #.< c ` ` < $.%.R 2 [ ; +.&.*.*.=.-.o o o ;.>.>.P q q ... . ",
"  . . . . . . . . I R 2 B - ,.c c ` ` T T S U U O U | v v ... . ",
"                z '.R 2 ( > s ).).} | 1 1 2 3 3 4 4 [ u v ... . ",
"                  !.R 2 / > , ) ! ~ ~ e p q v v u ~.~.u u ... . ",
"                  {.R 2 / - ..| 1 1 2 3 4 4 5 6 +.6 ( ~.u ... . ",
"                  ].R 2 _ ' ^.< ` ` ` T S S S U O U 1 /.~.... . ",
"                  (.R 2 { ' M =.-.-.o ;.>.>.Z ,.^.,._./.~.... . ",
"                  !.R 2 ; ' ! e p q v v u ~.~./././././.~.... . ",
"                  {.R 2 ; ' ' ) ) ! ~ e p q q v u ~.~.~.~.P . . ",
"                  :.<.=.> , ' ' ) ) ! ! ! ! ! ! ! ! ! ! ) ,.. . ",
"                  !.[. .}.}.}.}.}.}.}.}.}.}.}.}.}.}.}.}.|.1.. . ",
"                    2.3.!.3.3.3.3.3.3.3.3.3.3.3.3.3.3.4.4.4..   ",
"                                                                "};
