/* XPM */
static const char * ICON_MINIMIZE_xpm[] = {
"32 32 265 2",
"  	c None",
". 	c #000000",
"+ 	c #271111",
"@ 	c #613030",
"# 	c #351717",
"$ 	c #F36C6D",
"% 	c #531C1C",
"& 	c #0B0E11",
"* 	c #3B5162",
"= 	c #60849F",
"- 	c #77A3C5",
"; 	c #84B8E2",
"> 	c #77ABD8",
", 	c #608EB7",
"' 	c #3E617E",
") 	c #182734",
"! 	c #F66D6D",
"~ 	c #F25253",
"{ 	c #551D1D",
"] 	c #26343E",
"^ 	c #87B4D6",
"/ 	c #98C9EE",
"( 	c #97C9EE",
"_ 	c #96C7ED",
": 	c #92C5EC",
"< 	c #8DC1EA",
"[ 	c #85BEED",
"} 	c #7BB8EC",
"| 	c #71B1E8",
"1 	c #3C6386",
"2 	c #040609",
"3 	c #F55354",
"4 	c #561D1E",
"5 	c #020303",
"6 	c #2D3C46",
"7 	c #9DCBEE",
"8 	c #A1CFF2",
"9 	c #9ECDF1",
"0 	c #9ACAEF",
"a 	c #94C6ED",
"b 	c #8DC2EA",
"c 	c #84BDEE",
"d 	c #78B6EB",
"e 	c #6DAEE6",
"f 	c #528CBF",
"g 	c #101F2B",
"h 	c #170E0E",
"i 	c #543131",
"j 	c #764040",
"k 	c #581E1E",
"l 	c #040506",
"m 	c #374550",
"n 	c #ADD5F4",
"o 	c #AED6F6",
"p 	c #A8D3F4",
"q 	c #9ACBEF",
"r 	c #93C5EC",
"s 	c #8AC0EA",
"t 	c #7EBAED",
"u 	c #72B1E8",
"v 	c #65A9E4",
"w 	c #5599D5",
"x 	c #0A151E",
"y 	c #683C3C",
"z 	c #F55859",
"A 	c #F35253",
"B 	c #5A1F1F",
"C 	c #455059",
"D 	c #BDDDF7",
"E 	c #B6DBF7",
"F 	c #A9D4F4",
"G 	c #A0CEF1",
"H 	c #97C8EE",
"I 	c #8EC2EB",
"J 	c #83BDEE",
"K 	c #76B4EA",
"L 	c #69ABE5",
"M 	c #5CA2E0",
"N 	c #3D77A9",
"O 	c #010102",
"P 	c #5C1F20",
"Q 	c #050506",
"R 	c #606972",
"S 	c #C0DEF7",
"T 	c #B1D8F6",
"U 	c #A3D0F2",
"V 	c #99CAEF",
"W 	c #90C4EB",
"X 	c #78B5EB",
"Y 	c #6BADE6",
"Z 	c #5DA4E1",
"` 	c #509BDC",
" .	c #204565",
"..	c #F35758",
"+.	c #E34D4F",
"@.	c #EE5052",
"#.	c #4A1919",
"$.	c #030404",
"%.	c #B4CEE3",
"&.	c #B3D9F7",
"*.	c #A3D0F3",
"=.	c #91C4EB",
"-.	c #86BEED",
";.	c #5EA4E1",
">.	c #519BDC",
",.	c #3F89CA",
"'.	c #010203",
").	c #EF5658",
"!.	c #C1454B",
"~.	c #D44A4E",
"{.	c #C54344",
"].	c #100606",
"^.	c #121517",
"/.	c #BBDCF6",
"(.	c #A2CFF2",
"_.	c #8FC3EB",
":.	c #77B5EA",
"<.	c #6AACE5",
"[.	c #5DA3E0",
"}.	c #509ADB",
"|.	c #4291D6",
"1.	c #0C2031",
"2.	c #F25758",
"3.	c #DB4C50",
"4.	c #D74B4F",
"5.	c #D2494E",
"6.	c #E14D51",
"7.	c #C34243",
"8.	c #030303",
"9.	c #7E97AA",
"0.	c #B0D8F6",
"a.	c #A5D1F3",
"b.	c #9ECDF0",
"c.	c #95C7ED",
"d.	c #81BBEE",
"e.	c #74B3E9",
"f.	c #67AAE4",
"g.	c #5AA2DF",
"h.	c #4E99DB",
"i.	c #4090D6",
"j.	c #163B5C",
"k.	c #643B3B",
"l.	c #EE5153",
"m.	c #E34E51",
"n.	c #EB5052",
"o.	c #C24243",
"p.	c #0F0505",
"q.	c #6F8CA2",
"r.	c #A7D2F4",
"s.	c #87BFEC",
"t.	c #7CB8EC",
"u.	c #70B0E7",
"v.	c #63A8E3",
"w.	c #579FDE",
"x.	c #4A97D9",
"y.	c #3D8ED5",
"z.	c #1B4B75",
"A.	c #C04142",
"B.	c #0E0505",
"C.	c #67879E",
"D.	c #9DCCF0",
"E.	c #9BCBEF",
"F.	c #96C8EE",
"G.	c #91C4EC",
"H.	c #80BBEE",
"I.	c #75B4EA",
"J.	c #529CDC",
"K.	c #4694D8",
"L.	c #398BD3",
"M.	c #1A4C77",
"N.	c #BF4142",
"O.	c #0D0505",
"P.	c #5F819C",
"Q.	c #93C6ED",
"R.	c #89BFEB",
"S.	c #78B5EA",
"T.	c #6EAEE7",
"U.	c #63A7E3",
"V.	c #58A0DE",
"W.	c #4C98DA",
"X.	c #3488D1",
"Y.	c #133E64",
"Z.	c #BD4041",
"`.	c #0C0404",
" +	c #020304",
".+	c #547B9D",
"++	c #88BFEB",
"@+	c #88BFEC",
"#+	c #7EB9ED",
"$+	c #6EAFE7",
"%+	c #65A8E3",
"&+	c #5BA2E0",
"*+	c #4593D7",
"=+	c #3A8CD3",
"-+	c #2F84CF",
";+	c #092034",
">+	c #BC4041",
",+	c #487499",
"'+	c #73B2E9",
")+	c #7BB7EC",
"!+	c #7DB9EC",
"~+	c #64A8E3",
"{+	c #4895D9",
"]+	c #3E8ED5",
"^+	c #3387D1",
"/+	c #2371B5",
"(+	c #000102",
"_+	c #040101",
":+	c #335B7F",
"<+	c #61A6E2",
"[+	c #66AAE4",
"}+	c #6FB0E7",
"|+	c #6BACE5",
"1+	c #66A9E4",
"2+	c #60A5E1",
"3+	c #59A1DF",
"4+	c #4995D9",
"5+	c #3F8FD5",
"6+	c #3589D2",
"7+	c #2B82CE",
"8+	c #0B2944",
"9+	c #132434",
"0+	c #559DDC",
"a+	c #5AA1DF",
"b+	c #62A7E2",
"c+	c #549DDD",
"d+	c #3E8FD5",
"e+	c #3689D2",
"f+	c #2C83CE",
"g+	c #19578E",
"h+	c #2A567D",
"i+	c #559EDD",
"j+	c #4D98DA",
"k+	c #3B8DD4",
"l+	c #2C82CE",
"m+	c #2176C1",
"n+	c #030E17",
"o+	c #010304",
"p+	c #1F4566",
"q+	c #428ED0",
"r+	c #4895D8",
"s+	c #4492D7",
"t+	c #3C8DD4",
"u+	c #3789D2",
"v+	c #3085D0",
"w+	c #2980CD",
"x+	c #1A609D",
"y+	c #051523",
"z+	c #08151F",
"A+	c #2B69A0",
"B+	c #378AD2",
"C+	c #3487D1",
"D+	c #2F85CF",
"E+	c #2A81CD",
"F+	c #2376BF",
"G+	c #0C3253",
"H+	c #000001",
"I+	c #071622",
"J+	c #133858",
"K+	c #1A4D7A",
"L+	c #1E5C92",
"M+	c #1A5386",
"N+	c #12416B",
"O+	c #09243B",
"P+	c #010509",
"                                                                ",
"                                                                ",
"                                                                ",
"                                                                ",
"                .                                               ",
"              . . . .               . . . .                     ",
"              . + @ . .       . . . . . . . . . .               ",
"              . # $ % . . . . & * = - ; > , ' ) . . .           ",
"              . # ! ~ { . . ] ^ / ( _ : < [ } | 1 2 . .         ",
"    . . . . . . # ! 3 ~ 4 5 6 7 8 8 9 0 a b c d e f g . .       ",
"  . h i i i i i j ! 3 3 ~ k l m n o p 8 q r s t u v w x .       ",
"  . y z 3 3 3 3 3 3 3 3 3 A B l C D E F G H I J K L M N O .     ",
"  . y z 3 3 3 3 3 3 3 3 3 3 A P Q R S T U V W [ X Y Z `  ..     ",
"  . y ..+.+.+.+.+.+.+.+.+.+.+.@.#.$.%.&.*.0 =.-.d Y ;.>.,.'..   ",
"  . y ).!.!.!.!.!.!.!.!.!.!.~.{.].^./.o (./ _.c :.<.[.}.|.1..   ",
"  . y 2.3.3.3.3.3.4.5.5.5.6.7.].8.9.0.a.b.c.< d.e.f.g.h.i.j..   ",
"  . k.z 3 3 3 3 3 l.m.m.n.o.p.5 q.r.*.9 / W s.t.u.v.w.x.y.z..   ",
"  . . . . . . . p.3 3 3 A.B.5 C.D.D.E.F.G.s H.I.<.;.J.K.L.M..   ",
"    . . . . . . p.3 3 N.O.5 P.: a Q.: I R.d.S.T.U.V.W.i.X.Y..   ",
"              . p.3 Z.`. +.+c ++s s @+c #+K $+%+&+` *+=+-+;+.   ",
"              . p.>+`.5 ,+'+S.)+!+!+)+:.u Y ~+&+J.{+]+^+/+(+.   ",
"              . _+`.. :+<+[+Y $+}+}+$+|+1+2+3+>.4+5+6+7+8+.     ",
"                . . . 9+0+a+;.<+b+b+<+;.a+c+h.K.d+e+f+g+. .     ",
"                    . . h+h.>.c+i+i+c+>.j+{+|.k+X.l+m+n+.       ",
"                      . o+p+q+K.r+r+K.s+i.t+u+v+w+x+y+. .       ",
"                        . . z+A+=+=+L.B+C+D+E+F+G+H+. .         ",
"                          . . . I+J+K+L+M+N+O+P+. .             ",
"                              . . . . . . . . . .               ",
"                                      . .                       ",
"                                                                ",
"                                                                ",
"                                                                "};
