/* XPM */
static const char * ICON_ZOOM_IN_xpm[] = {
"32 32 406 2",
"  	c None",
". 	c #010100",
"+ 	c #000000",
"@ 	c #010101",
"# 	c #040404",
"$ 	c #1B1B1B",
"% 	c #464545",
"& 	c #6E6E6D",
"* 	c #8E8E8C",
"= 	c #969594",
"- 	c #838383",
"; 	c #797979",
"> 	c #5D5D5D",
", 	c #3A3A3A",
"' 	c #161616",
") 	c #030303",
"! 	c #090909",
"~ 	c #5D5D5C",
"{ 	c #979694",
"] 	c #AAA9A8",
"^ 	c #9B9B99",
"/ 	c #807F7E",
"( 	c #727171",
"_ 	c #6B6B6B",
": 	c #777777",
"< 	c #8D8D8D",
"[ 	c #959595",
"} 	c #7C7C7C",
"| 	c #4B4B4B",
"1 	c #070707",
"2 	c #373736",
"3 	c #959492",
"4 	c #A2A1A0",
"5 	c #29292A",
"6 	c #08080A",
"7 	c #010000",
"8 	c #020201",
"9 	c #0A0A0B",
"0 	c #2D2D2D",
"a 	c #696969",
"b 	c #909090",
"c 	c #7A7A7A",
"d 	c #2C2C2C",
"e 	c #2D2D2C",
"f 	c #A3A3A0",
"g 	c #969695",
"h 	c #333333",
"i 	c #030305",
"j 	c #060D1E",
"k 	c #0B1739",
"l 	c #111E43",
"m 	c #121E42",
"n 	c #0E1737",
"o 	c #0A0F1D",
"p 	c #020304",
"q 	c #0C0C0C",
"r 	c #363636",
"s 	c #8C8C8C",
"t 	c #878787",
"u 	c #232323",
"v 	c #323231",
"w 	c #A2A19F",
"x 	c #797978",
"y 	c #020306",
"z 	c #0C1226",
"A 	c #495D97",
"B 	c #9AA8D2",
"C 	c #C2CBE6",
"D 	c #CED5EA",
"E 	c #C8D0E7",
"F 	c #B4BFDE",
"G 	c #707FB6",
"H 	c #2F3D78",
"I 	c #0F1222",
"J 	c #020305",
"K 	c #1E1E1E",
"L 	c #848484",
"M 	c #272727",
"N 	c #8B8B89",
"O 	c #142147",
"P 	c #7B8BBA",
"Q 	c #E5E9F4",
"R 	c #F4F6F9",
"S 	c #F1F3F8",
"T 	c #EDF1F7",
"U 	c #E5EBF4",
"V 	c #DDE4F0",
"W 	c #C3CEE2",
"X 	c #5966A3",
"Y 	c #384483",
"Z 	c #1B213E",
"` 	c #8F8F8F",
" .	c #707070",
"..	c #020202",
"+.	c #4B4A4A",
"@.	c #A9A8A6",
"#.	c #3F3F3F",
"$.	c #121F42",
"%.	c #B2BDDE",
"&.	c #F5F6FA",
"*.	c #F3F5F9",
"=.	c #EEF1F7",
"-.	c #E0E5EC",
";.	c #BBBFC6",
">.	c #B4B9C2",
",.	c #C9D3E1",
"'.	c #C5D0E4",
").	c #6C76AB",
"!.	c #1A1F39",
"~.	c #020204",
"{.	c #444444",
"].	c #949494",
"^.	c #101010",
"/.	c #878785",
"(.	c #7D7D7C",
"_.	c #121212",
":.	c #090F1E",
"<.	c #6577AC",
"[.	c #F4F6FA",
"}.	c #EFF2F8",
"|.	c #E8ECF4",
"1.	c #D0D5DE",
"2.	c #7C7E81",
"3.	c #77797D",
"4.	c #B7C1CF",
"5.	c #B9C5DD",
"6.	c #6067A0",
"7.	c #3E467D",
"8.	c #0E0F19",
"9.	c #151515",
"0.	c #6C6C6C",
"a.	c #30302F",
"b.	c #A8A8A5",
"c.	c #404040",
"d.	c #314378",
"e.	c #DEE2F0",
"f.	c #F4F5F9",
"g.	c #EFF2F7",
"h.	c #E7ECF5",
"i.	c #E0E6F1",
"j.	c #C9D0DB",
"k.	c #797C80",
"l.	c #74777B",
"m.	c #B4BFCE",
"n.	c #8F97BE",
"o.	c #373C62",
"p.	c #464646",
"q.	c #8E8E8E",
"r.	c #252525",
"s.	c #4D4C4C",
"t.	c #A8A8A6",
"u.	c #1D1D1E",
"v.	c #05080E",
"w.	c #7989BC",
"x.	c #EEF0F7",
"y.	c #E8EDF4",
"z.	c #E1E7F1",
"A.	c #D9E1ED",
"B.	c #C3CBD9",
"C.	c #777A7F",
"D.	c #73777B",
"E.	c #9DA5BB",
"F.	c #5C6095",
"G.	c #07070A",
"H.	c #242425",
"I.	c #3C3C3C",
"J.	c #696968",
"K.	c #9C9C9A",
"L.	c #070708",
"M.	c #080E24",
"N.	c #A9B4D8",
"O.	c #F0F2F7",
"P.	c #DFE3EC",
"Q.	c #CACFD7",
"R.	c #C3CAD4",
"S.	c #BDC5D1",
"T.	c #ACB4C1",
"U.	c #75787D",
"V.	c #56595E",
"W.	c #4B4C61",
"X.	c #585874",
"Y.	c #595974",
"Z.	c #585774",
"`.	c #707096",
" +	c #191924",
".+	c #0C0D0D",
"++	c #545454",
"@+	c #919190",
"#+	c #010203",
"$+	c #09112C",
"%+	c #B1BBDC",
"&+	c #ECEFF6",
"*+	c #C0C5CC",
"=+	c #7A7C7F",
"-+	c #73777C",
";+	c #5D5F63",
">+	c #101011",
",+	c #0B0A0D",
"'+	c #0B0B0E",
")+	c #4B4A5E",
"!+	c #232330",
"~+	c #060607",
"{+	c #8B8B8B",
"]+	c #606060",
"^+	c #8A8A8A",
"/+	c #040506",
"(+	c #0B1128",
"_+	c #A7B2D5",
":+	c #E3E9F2",
"<+	c #BAC0CB",
"[+	c #7A7D82",
"}+	c #777B80",
"|+	c #74787E",
"1+	c #4B4D52",
"2+	c #0C0C0D",
"3+	c #0E0E10",
"4+	c #141316",
"5+	c #141416",
"6+	c #141417",
"7+	c #595869",
"8+	c #23232D",
"9+	c #9E9D9C",
"0+	c #5A5A5A",
"a+	c #515151",
"b+	c #929292",
"c+	c #0A0E1B",
"d+	c #7E8ABC",
"e+	c #D9E1EE",
"f+	c #D2DBE9",
"g+	c #C2CDDA",
"h+	c #AEB7CB",
"i+	c #8E92AF",
"j+	c #53536B",
"k+	c #0D0D10",
"l+	c #0C0B0D",
"m+	c #5F5D6A",
"n+	c #8E8D9C",
"o+	c #91909E",
"p+	c #8D8C9B",
"q+	c #A3A1B7",
"r+	c #16161B",
"s+	c #1F1F1F",
"t+	c #A9A9A7",
"u+	c #939393",
"v+	c #313131",
"w+	c #323E79",
"x+	c #6671A9",
"y+	c #909AC1",
"z+	c #8289B5",
"A+	c #6C6C88",
"B+	c #101014",
"C+	c #0F0F10",
"D+	c #84828F",
"E+	c #83829C",
"F+	c #464644",
"G+	c #A3A3A1",
"H+	c #1C1C1C",
"I+	c #858585",
"J+	c #050505",
"K+	c #1B203C",
"L+	c #706F8B",
"M+	c #111114",
"N+	c #8B8A94",
"O+	c #41404B",
"P+	c #080808",
"Q+	c #757473",
"R+	c #8A8989",
"S+	c #191919",
"T+	c #575757",
"U+	c #292929",
"V+	c #06070C",
"W+	c #29305B",
"X+	c #72718C",
"Y+	c #131317",
"Z+	c #131315",
"`+	c #8F8E97",
" @	c #72727E",
".@	c #353434",
"+@	c #A5A5A3",
"@@	c #505050",
"#@	c #1D1D1D",
"$@	c #090B13",
"%@	c #464E86",
"&@	c #5F5E70",
"*@	c #686774",
"=@	c #B4B2C2",
"-@	c #B2B0BF",
";@	c #161618",
">@	c #848482",
",@	c #A09F9E",
"'@	c #171717",
")@	c #494949",
"!@	c #525252",
"~@	c #0A0B12",
"{@	c #343757",
"]@	c #6C6B75",
"^@	c #151517",
"/@	c #0B0B0B",
"(@	c #656564",
"_@	c #4F4F4E",
":@	c #0A0A0A",
"<@	c #5F5F5F",
"[@	c #919191",
"}@	c #565656",
"|@	c #06060A",
"1@	c #1F202E",
"2@	c #4C4D6B",
"3@	c #7D7DA5",
"4@	c #A19FB9",
"5@	c #72717F",
"6@	c #333338",
"7@	c #0B0B0C",
"8@	c #A7A6A4",
"9@	c #7E7E7E",
"0@	c #666666",
"a@	c #1B1C1B",
"b@	c #5B5B5B",
"c@	c #757575",
"d@	c #0D0D0D",
"e@	c #050405",
"f@	c #040405",
"g@	c #10100F",
"h@	c #3F3F3E",
"i@	c #A4A4A2",
"j@	c #959494",
"k@	c #9DA997",
"l@	c #516D4D",
"m@	c #0D130D",
"n@	c #000100",
"o@	c #3D3D3D",
"p@	c #6E6E6E",
"q@	c #4C4C4C",
"r@	c #2E2E2E",
"s@	c #222222",
"t@	c #2A2A2A",
"u@	c #3D3D3C",
"v@	c #60605F",
"w@	c #888785",
"x@	c #3E3E3D",
"y@	c #6F6F6F",
"z@	c #859282",
"A@	c #9FC094",
"B@	c #91AE85",
"C@	c #3C5738",
"D@	c #0D140C",
"E@	c #0F0F0F",
"F@	c #414141",
"G@	c #737373",
"H@	c #898989",
"I@	c #9F9F9E",
"J@	c #A5A4A3",
"K@	c #949493",
"L@	c #767676",
"M@	c #3D3D3E",
"N@	c #4A4A4B",
"O@	c #728071",
"P@	c #4C7249",
"Q@	c #64905F",
"R@	c #99BD8F",
"S@	c #4C6A47",
"T@	c #0D130C",
"U@	c #030409",
"V@	c #2F2F2F",
"W@	c #383838",
"X@	c #2E2F2F",
"Y@	c #1D1E1E",
"Z@	c #0D0D0E",
"`@	c #000001",
" #	c #040508",
".#	c #010102",
"+#	c #0D0E0E",
"@#	c #314630",
"##	c #3F603D",
"$#	c #4D764A",
"%#	c #648F5F",
"&#	c #A0C195",
"*#	c #91AE86",
"=#	c #3E583A",
"-#	c #151915",
";#	c #171819",
">#	c #131314",
",#	c #111113",
"'#	c #101113",
")#	c #0A0B11",
"!#	c #060806",
"~#	c #243723",
"{#	c #3F613D",
"]#	c #4A7147",
"^#	c #98BC8E",
"/#	c #95A38F",
"(#	c #7B7C7B",
"_#	c #000101",
":#	c #060805",
"<#	c #2B422A",
"[#	c #40613D",
"}#	c #4E764A",
"|#	c #789174",
"1#	c #969595",
"2#	c #060906",
"3#	c #243823",
"4#	c #6D7C6C",
"5#	c #929392",
"6#	c #060606",
"7#	c #5B5C5B",
"8#	c #7D7D7D",
"9#	c #616161",
"                        . + + +                                 ",
"                  @ + @ + + + + @ + @                           ",
"              @ # $ % & * = - ; > , ' ) @                       ",
"          + @ ! ~ { ] ^ / ( _ : < [ } | 1 @                     ",
"        + @ 2 3 4 _ 5 6 7 8 8 7 9 0 a b c d @ +                 ",
"        @ e f g h 9 i j k l m n o p q r s t u @                 ",
"      @ v w x $ y z A B C D E F G H I J K : L M @               ",
"    + ) N ^ K 8 O P Q R S T U V W X Y Z @ u `  ...+             ",
"    ..+.@.#.J $.%.&.*.=.-.;.>.,.'.).    !.~.{.]., ..            ",
"  @ ^./.(._.:.<.*.[.}.|.1.2.3.4.5.6.    7.8.9.; 0.q @           ",
"  @ a.b.c.@ d.e.f.g.h.i.j.k.l.m.n.        o.@ p.q.r.@           ",
"  + s.t.u.v.w.x.T y.z.A.B.C.D.E.          F.G.H.[ I.+           ",
"  @ J.K.L.M.N.O.P.Q.R.S.T.U.V.W.X.Y.Z.`.     +.+b +++           ",
"  @ & @+#+$+%+&+*+=+3.l.-+;+>+6 ,+'+'+)+    !+~+{+> @           ",
"  @ ]+^+/+(+_+:+<+[+}+|+1+2+..3+4+5+6+7+    8+^.9+0+@           ",
"  + a+b+>+c+d+e+f+g+h+i+j+k+l+m+n+o+p+q+    r+s+t+| +           ",
"  + h u+v+p w+x+y+z+    A+B+C+D+          E+@ F+G+0 +           ",
"  @ H+I+0+J+K+          L+M+>+N+          O+P+Q+R+S+@           ",
"    J+T+^+U+V+W+        X+Y+Z+`+         @3+.@+@@@)             ",
"    + #@b+_ @ $@%@        &@*@=@      -@;@..>@,@'@+             ",
"    + + )@b+!@! ~@{@                ]@^@/@(@b._@:@@ +           ",
"      + q <@[@}@) |@1@2@3@    4@5@6@7@J+J.8@b 9@0@a@+ +         ",
"        + ) b@b c@h d@@ e@k+3+f@..g@h@* i@s [@j@k@l@m@n@+       ",
"          + :@o@{+[@p@q@r@s@t@u@v@w@t+g x@y@[@z@A@B@C@D@+ +     ",
"            1 @ E@F@G@H@].].I@J@K@L@M@2+..N@O@P@Q@R@B@S@T@@ +   ",
"                U@@ E@s+V@W@W@X@Y@Z@`@ #.#+#@###$#%#&#*#=#-#+   ",
"                    ;#>#>#:@:@,#'#)#      .#!#~#{#]#%#^#/#(#..+ ",
"                                            _#:#<#[#}#|#1#s P++ ",
"                                              @ 2#3#4#b+5#0.+ + ",
"                                                6#2#7#8#9##@+   ",
"                                                  P++ + @ @     ",
"                                                      @         "};
