/* XPM */
static const char * ICON_RELOAD_xpm[] = {
"32 32 251 2",
"  	c None",
". 	c #000000",
"+ 	c #132230",
"@ 	c #213B55",
"# 	c #2B4D6F",
"$ 	c #2D5175",
"% 	c #233F5B",
"& 	c #182B3E",
"* 	c #030507",
"= 	c #080E14",
"- 	c #36608A",
"; 	c #569ADE",
"> 	c #62AFFC",
", 	c #5DA6EF",
"' 	c #4173A6",
") 	c #152535",
"! 	c #274564",
"~ 	c #5BA3EA",
"{ 	c #62AEFB",
"] 	c #3D6C9C",
"^ 	c #070C12",
"/ 	c #04070A",
"( 	c #3F71A3",
"_ 	c #66B0FB",
": 	c #67B1FB",
"< 	c #65B0FB",
"[ 	c #69ABED",
"} 	c #5598DA",
"| 	c #101D2A",
"1 	c #4D89C6",
"2 	c #73B7FA",
"3 	c #7ABAFA",
"4 	c #7DBBF9",
"5 	c #72B6FA",
"6 	c #66B1FB",
"7 	c #9EB3C8",
"8 	c #C6D3E0",
"9 	c #5DA5EE",
"0 	c #132231",
"a 	c #010102",
"b 	c #4378AD",
"c 	c #77B9FA",
"d 	c #85BFF9",
"e 	c #8EC3F8",
"f 	c #92C5F8",
"g 	c #84BFF9",
"h 	c #76B8FA",
"i 	c #A2B6C9",
"j 	c #FAFCFE",
"k 	c #D2DCE6",
"l 	c #589DE2",
"m 	c #0B131C",
"n 	c #25425F",
"o 	c #71B6FA",
"p 	c #95C6F8",
"q 	c #A2CCF7",
"r 	c #A7CFF6",
"s 	c #A1CCF7",
"t 	c #93C6F8",
"u 	c #82BEF9",
"v 	c #A7B8C9",
"w 	c #FCFDFE",
"x 	c #FDFEFE",
"y 	c #DAE0E7",
"z 	c #74A1CD",
"A 	c #71A1D1",
"B 	c #65A9EB",
"C 	c #020304",
"D 	c #5496D8",
"E 	c #63AFFB",
"F 	c #78B9FA",
"G 	c #8CC3F8",
"H 	c #A0CCF7",
"I 	c #B2D4F5",
"J 	c #BCD9F5",
"K 	c #B1D4F6",
"L 	c #9ECBF7",
"M 	c #ADBBC9",
"N 	c #F8FBFE",
"O 	c #FBFCFE",
"P 	c #FBFDFE",
"Q 	c #F9FBFE",
"R 	c #F5F9FD",
"S 	c #F2F7FD",
"T 	c #EEF5FC",
"U 	c #C6D1DC",
"V 	c #66ADF3",
"W 	c #203A53",
"X 	c #64B0FB",
"Y 	c #79BAFA",
"Z 	c #8FC4F8",
"` 	c #A3CDF7",
" .	c #B8D7F5",
"..	c #C8DFF4",
"+.	c #B7D6F5",
"@.	c #AFBCC9",
"#.	c #F3F8FD",
"$.	c #F7FAFD",
"%.	c #F7FBFD",
"&.	c #F6FAFD",
"*.	c #F0F7FC",
"=.	c #EDF5FC",
"-.	c #EAF3FB",
";.	c #BFCEDC",
">.	c #3F70A1",
",.	c #4175A8",
"'.	c #8AC1F8",
").	c #9CCAF7",
"!.	c #ACD2F6",
"~.	c #B4D5F5",
"{.	c #ABD1F6",
"].	c #C5D4E3",
"^.	c #F2F8FD",
"/.	c #F4F8FD",
"(.	c #F4F9FD",
"_.	c #F1F7FD",
":.	c #EBF4FC",
"<.	c #E8F2FB",
"[.	c #E7F0FA",
"}.	c #63AFFC",
"|.	c #030508",
"1.	c #010203",
"2.	c #5EA8F2",
"3.	c #6FA5DC",
"4.	c #CFD7DF",
"5.	c #E8EDF1",
"6.	c #EAEEF1",
"7.	c #B3CAE1",
"8.	c #9AC9F7",
"9.	c #8DC3F8",
"0.	c #C1D4E6",
"a.	c #EFF6FC",
"b.	c #F0F6FC",
"c.	c #ECF4FC",
"d.	c #E9F3FB",
"e.	c #E6F1FB",
"f.	c #E3EFFB",
"g.	c #74B6F6",
"h.	c #1C3147",
"i.	c #0A1119",
"j.	c #5CA4EC",
"k.	c #DDE2E6",
"l.	c #F8FBFD",
"m.	c #C5D3E1",
"n.	c #8BC1F9",
"o.	c #86C0F9",
"p.	c #70B5FA",
"q.	c #B9CFE7",
"r.	c #EDF4FC",
"s.	c #DCE6F0",
"t.	c #A2CEFC",
"u.	c #BBD3EB",
"v.	c #E8F1FA",
"w.	c #E4F0FB",
"x.	c #E1EEFA",
"y.	c #81B8F1",
"z.	c #284868",
"A.	c #142332",
"B.	c #4B76A0",
"C.	c #BCD0E4",
"D.	c #75B7FA",
"E.	c #9CB5CC",
"F.	c #6AB3FB",
"G.	c #B5CDE6",
"H.	c #E9F2FB",
"I.	c #CBD8E5",
"J.	c #C8D4E0",
"K.	c #DFEDFA",
"L.	c #325A81",
"M.	c #8CA1B5",
"N.	c #9FC5EB",
"O.	c #EFF2F4",
"P.	c #B7C9DB",
"Q.	c #B2CCE6",
"R.	c #C9D8E7",
"S.	c #BFCDDB",
"T.	c #DDEBF9",
"U.	c #73B6FA",
"V.	c #96A9BB",
"W.	c #B8CDE4",
"X.	c #EFF1F5",
"Y.	c #B1C6DB",
"Z.	c #75B9FC",
"`.	c #6BA2D9",
" +	c #DBE8F5",
".+	c #DCEBF9",
"++	c #D8E5F1",
"@+	c #5FA9F3",
"#+	c #94A7BA",
"$+	c #D8DFE6",
"%+	c #C7D2DE",
"&+	c #F2F6FB",
"*+	c #ABC3DB",
"=+	c #98B2CA",
"-+	c #DCEAF8",
";+	c #DAEAF9",
">+	c #DCEBFA",
",+	c #A2C4E8",
"'+	c #4479AF",
")+	c #7B98B4",
"!+	c #F1F7FC",
"~+	c #A7C1DC",
"{+	c #8FBCEA",
"]+	c #B1CBE5",
"^+	c #AECAE7",
"/+	c #8AC1F7",
"(+	c #264361",
"_+	c #5A8EC3",
":+	c #E4EFFB",
"<+	c #8CBAE7",
"[+	c #030609",
"}+	c #589EE3",
"|+	c #ADBAC6",
"1+	c #EBF3FC",
"2+	c #C8D6E3",
"3+	c #61AEFA",
"4+	c #93AFCA",
"5+	c #D0DAE5",
"6+	c #DEE7EF",
"7+	c #DEE7F0",
"8+	c #E6F1FA",
"9+	c #E5F0FB",
"0+	c #E3EFFA",
"a+	c #C6D4E3",
"b+	c #020305",
"c+	c #4982BB",
"d+	c #DAE4ED",
"e+	c #E2EEFA",
"f+	c #C4D3E2",
"g+	c #579BDF",
"h+	c #0A131B",
"i+	c #060B10",
"j+	c #5191D1",
"k+	c #D6E2ED",
"l+	c #C1D1E1",
"m+	c #5BA2E9",
"n+	c #050A0E",
"o+	c #95B1CD",
"p+	c #5292D2",
"q+	c #0D1722",
"r+	c #000101",
"s+	c #2B4C6E",
"t+	c #61ADF9",
"u+	c #396692",
"v+	c #05090D",
"w+	c #38648F",
"x+	c #579CE0",
"y+	c #5CA5ED",
"z+	c #3F71A2",
"A+	c #12202D",
"B+	c #020406",
"                                                                ",
"                        . . . . . . . .                         ",
"                    . . . . . . . . . . . . .                   ",
"                . . . . . + @ # $ % & * . . . .                 ",
"              . . . = - ; > > > > > > , ' ) . . . .             ",
"          . . . . ! ~ > > > > > > > > > > { ] ^ . . .           ",
"          . . / ( > > _ : < > > > > > [ > > > } | . . .         ",
"        . . / 1 > : 2 3 4 3 5 6 > > 7 8 > > > > 9 0 . .         ",
"      . . a b > : c d e f e g h < i j k > > > > > l m . .       ",
"      . . n > > o g p q r s t u v w x y z A B > > > b . . .     ",
"    . . C D > E F G H I J K L M N O P Q R S T U V > { + . .     ",
"    . . W > > X Y Z `  ...+.@.#.R $.%.&.#.*.=.-.;.> > >.. .     ",
"    . . ,.> > > h '.).!.~.{.].*.^./.(.#._.T :.<.[.}.> , |.. .   ",
"  . . 1.2.> > > 3.4.5.6.7.8.9.0.a.b.*.a.T c.d.e.f.g.> > h.. .   ",
"  . . i.> > > j.k.R l.m.n.o.4 p.q.r.r.s.t.u.v.w.x.y.> > z.. .   ",
"  . . A.> > > B./.$.C.5 D.E.F.> > G.H.I.> > J.x.K.y.> > L.. .   ",
"  . . A.> > > M./.%.N.> > O.P.> > > Q.R.> > S.K.T.U.> > L.. .   ",
"  . . i.> > > V.#.&.W.> > X.^.Y.> > > Z.> `. +.+++> > > z.. .   ",
"  . . 1.@+> > #+_./.R $+%+&+*.=.*+> > > =+-+;+>+,+> > > h.. .   ",
"  . . . '+> > )+T !+S ^.S b.T :.<.~+> > {+]+^+/+> > > , |.. .   ",
"    . . (+> > _+c.=.T a.T =.:.H.e.:+<+> > > > > > > > >.. . .   ",
"    . . [+}+> > |+-.1+:.1+-.<.e.:+2+}.> > > > > > > { + . .     ",
"    . . . # > > 3+4+5+6+7+8+9+0+a+}.> > > > > > > > b . . .     ",
"      . . b+c+> > > > > > d+e+f+}.> > > > > > > > g+h+. .       ",
"        . . i+j+> > > > > k+l+> > > > > > > > > m+| . . .       ",
"        . . . n+'+> > > > o+> > > > > > > > > p+q+. . .         ",
"          . . . r+s+9 > > > > > > > > > > t+u+v+. . .           ",
"            . . . . i.w+x+> > > > > > y+z+A+. . . .             ",
"              . . . . . r+0 @ # $ % & B+. . . . .               ",
"                  . . . . . . . . . . . . . .                   ",
"                        . . . . . . . . .                       ",
"                                                                "};
