/* XPM */
static const char * ICON_UP_xpm[] = {
"32 32 263 2",
"  	c None",
". 	c #000000",
"+ 	c #020406",
"@ 	c #172A3C",
"# 	c #223D58",
"$ 	c #2B4D6F",
"% 	c #29496A",
"& 	c #1F3851",
"* 	c #11202E",
"= 	c #111E2B",
"- 	c #3D6E9F",
"; 	c #59A1E8",
"> 	c #5FABF7",
", 	c #5FAAF6",
"' 	c #5FAAF5",
") 	c #5EA9F3",
"! 	c #5DA8F2",
"~ 	c #5CA6F0",
"{ 	c #5090D0",
"] 	c #30567C",
"^ 	c #060A0F",
"/ 	c #030609",
"( 	c #355F89",
"_ 	c #5EAAF5",
": 	c #61ADF9",
"< 	c #61ADFA",
"[ 	c #60ACF8",
"} 	c #60ABF7",
"| 	c #5EA9F4",
"1 	c #5BA4EE",
"2 	c #5396D9",
"3 	c #233F5A",
"4 	c #0A121A",
"5 	c #4D8AC7",
"6 	c #61AEFA",
"7 	c #62AFFC",
"8 	c #67B1FB",
"9 	c #68B2FB",
"0 	c #65B0FB",
"a 	c #61AEFB",
"b 	c #5DA7F1",
"c 	c #5CA6EF",
"d 	c #5BA4ED",
"e 	c #5AA2EA",
"f 	c #386492",
"g 	c #0B141D",
"h 	c #569AE0",
"i 	c #6AB3FB",
"j 	c #75B8FA",
"k 	c #7CBBFA",
"l 	c #7DBCF9",
"m 	c #79BAFA",
"n 	c #70B5FA",
"o 	c #64B0FB",
"p 	c #5EA8F3",
"q 	c #5DA6F0",
"r 	c #5BA5EE",
"s 	c #5AA3EB",
"t 	c #59A1E9",
"u 	c #4176AA",
"v 	c #020405",
"w 	c #05090D",
"x 	c #4F8ECD",
"y 	c #7ABAFA",
"z 	c #88C0F9",
"A 	c #90C4F8",
"B 	c #93C5F8",
"C 	c #8DC3F8",
"D 	c #82BEF9",
"E 	c #73B7FA",
"F 	c #60ADF9",
"G 	c #5CA5EF",
"H 	c #5BA3EC",
"I 	c #589FE7",
"J 	c #376390",
"K 	c #386592",
"L 	c #98C8F7",
"M 	c #A5CEF6",
"N 	c #A8CFF6",
"O 	c #A0CCF7",
"P 	c #8DA4B9",
"Q 	c #C6CACD",
"R 	c #C3C8CD",
"S 	c #80B8F0",
"T 	c #60ACF7",
"U 	c #58A0E7",
"V 	c #579EE4",
"W 	c #1E364E",
"X 	c #101C29",
"Y 	c #66B1FB",
"Z 	c #7BBBFA",
"` 	c #A4CEF7",
" .	c #B7D6F5",
"..	c #BCD9F5",
"+.	c #9AAABA",
"@.	c #EDEEF1",
"#.	c #F6FAFD",
"$.	c #F4F9FD",
"%.	c #D4D9DE",
"&.	c #7EB6EF",
"*.	c #59A0E7",
"=.	c #579EE5",
"-.	c #4B88C6",
";.	c #030507",
">.	c #386490",
",.	c #7CBBF9",
"'.	c #92C5F8",
").	c #A7CFF6",
"!.	c #BBD8F5",
"~.	c #A2AEB9",
"{.	c #EDEFF0",
"].	c #F9FBFE",
"^.	c #F7FAFD",
"/.	c #F2F7FD",
"(.	c #D2D7DC",
"_.	c #7BB5ED",
":.	c #569CE2",
"<.	c #1C3249",
"[.	c #5497DA",
"}.	c #5FABF6",
"|.	c #78B9FA",
"1.	c #8CC2F8",
"2.	c #9ECBF7",
"3.	c #96A8B9",
"4.	c #ECEEEF",
"5.	c #FAFCFE",
"6.	c #F8FBFE",
"7.	c #F4F8FD",
"8.	c #EFF6FC",
"9.	c #CED5DB",
"0.	c #79B3EC",
"a.	c #335C86",
"b.	c #0D1722",
"c.	c #6FB5FA",
"d.	c #80BDF9",
"e.	c #86A0B9",
"f.	c #EAECEE",
"g.	c #F5F9FD",
"h.	c #F3F8FD",
"i.	c #F1F7FD",
"j.	c #EDF4FC",
"k.	c #CAD2DA",
"l.	c #76B0EA",
"m.	c #5BA4EC",
"n.	c #569CE1",
"o.	c #4984BF",
"p.	c #63AFFB",
"q.	c #7598BB",
"r.	c #E6EAEC",
"s.	c #E5E9EC",
"t.	c #C9CCD0",
"u.	c #BCC2C8",
"v.	c #EDF4FB",
"w.	c #ECF4FC",
"x.	c #EAF3FB",
"y.	c #C8D1D8",
"z.	c #70AFEC",
"A.	c #589FE6",
"B.	c #579DE4",
"C.	c #569BE1",
"D.	c #5296DA",
"E.	c #010102",
"F.	c #AFB4BA",
"G.	c #DFE4E7",
"H.	c #8CB9E6",
"I.	c #AAB0B5",
"J.	c #F0F6FC",
"K.	c #A7C1DB",
"L.	c #8499AF",
"M.	c #E7EFF8",
"N.	c #E9F2FB",
"O.	c #E7F1FB",
"P.	c #AFC1D3",
"Q.	c #59A0E8",
"R.	c #589FE5",
"S.	c #579DE3",
"T.	c #559BE0",
"U.	c #5499DD",
"V.	c #070E14",
"W.	c #1B3147",
"X.	c #5DA7F2",
"Y.	c #8B99A7",
"Z.	c #F1F6FC",
"`.	c #80B5EB",
" +	c #A9AFB5",
".+	c #EEF6FC",
"++	c #A6C0DA",
"@+	c #7C98B2",
"#+	c #D9E2EB",
"$+	c #DEE9F3",
"%+	c #96BBDF",
"&+	c #559ADF",
"*+	c #5498DD",
"=+	c #04070A",
"-+	c #12212F",
";+	c #74A7DC",
">+	c #63AEF8",
",+	c #A7AEB5",
"'+	c #EEF5FC",
")+	c #A6BFD9",
"!+	c #5F9DDC",
"~+	c #70A8E2",
"{+	c #5499DE",
"]+	c #4F90D2",
"^+	c #5AA1E9",
"/+	c #A6ADB5",
"(+	c #EBF3FC",
"_+	c #A5BFD9",
":+	c #5AA2EB",
"<+	c #4278AD",
"[+	c #467EB7",
"}+	c #A5ADB5",
"|+	c #A4BED7",
"1+	c #569DE3",
"2+	c #5397DC",
"3+	c #294A6B",
"4+	c #2C5074",
"5+	c #A3ACB4",
"6+	c #E8F2FB",
"7+	c #A3BDD7",
"8+	c #589EE5",
"9+	c #5498DC",
"0+	c #5395D9",
"a+	c #0E1924",
"b+	c #070C12",
"c+	c #93A0AC",
"d+	c #E5F0FB",
"e+	c #87B4DF",
"f+	c #5397DB",
"g+	c #386695",
"h+	c #274665",
"i+	c #639BD3",
"j+	c #A0ACB8",
"k+	c #9DB1C6",
"l+	c #5194D6",
"m+	c #0F1C29",
"n+	c #000101",
"o+	c #3A6897",
"p+	c #5296D9",
"q+	c #223F5B",
"r+	c #3F73A7",
"s+	c #2A4D70",
"t+	c #010204",
"u+	c #325B84",
"v+	c #5396DA",
"w+	c #5091D4",
"x+	c #1F3952",
"y+	c #1A2E43",
"z+	c #4A87C3",
"A+	c #559ADE",
"B+	c #5397DA",
"C+	c #3C6E9F",
"D+	c #030508",
"E+	c #213C56",
"F+	c #3C6D9E",
"G+	c #5295D8",
"H+	c #5398DC",
"I+	c #4D8DCB",
"J+	c #335D87",
"K+	c #17293B",
"L+	c #020304",
"M+	c #091018",
"N+	c #070D13",
"                                                                ",
"                        . . . . . . . .                         ",
"                    . . . . . . . . . . . .                     ",
"                . . . . + @ # $ % & * . . . . .                 ",
"            . . . . = - ; > , ' ) ! ~ { ] ^ . . .               ",
"          . . . / ( _ : < : [ } , | ! ~ 1 2 3 . . . .           ",
"        . . . 4 5 6 7 8 9 0 a < [ , | b c d e f + . .           ",
"        . . g h a i j k l m n o < [ ' p q r s t u v . .         ",
"      . . w x 6 i y z A B C D E 7 F > | b G H t I J . . .       ",
"    . . . K F a j z L M N O P Q R S T ' ! c d e U V W . .       ",
"    . . X | : Y Z A `  ...+.@.#.$.%.&.' p ~ d e *.=.-.;.. .     ",
"    . . >.> : 8 ,.'.).!.~.{.].^.$./.(._.p ~ d e *.=.:.<.. .     ",
"  . . . [.}.F o |.1.2.3.4.5.6.#.7./.8.9.0.~ d e *.V :.a.. . .   ",
"  . . b.p , [ a c.d.e.f.].6.^.g.h.i.8.j.k.l.m.e U V n.o.. . .   ",
"  . . @ ! _ } : p.q.r.^.^.s.t.h./.u.v.w.x.y.z.t A.B.C.D.E.. .   ",
"  . . & b ) , [ < F.$.$.G.H.I./.J.K.L.M.N.O.P.Q.R.S.T.U.V.. .   ",
"  . . W.c X.| , T Y.Z.%.`.6  +J..+++p @+#+$+%+U V :.&+*+=+. .   ",
"  . . -+r ~ X.| ' }.;+>+[ [ ,+'+j.)+b G !+~+Q.A.S.C.{+]+. . .   ",
"  . . ^ ^+r ~ b p | _ ' ' ' /+w.(+_+G d :+t I V :.&+*+<+. . .   ",
"  . . . [+H d G ~ b ! ! ! ! }+x.N.|+d :+t U =.1+T.{+2+3+. . .   ",
"    . . 4+e s m.1 G c ~ ~ c 5+6+O.7+e t U 8+S.C.&+9+0+a+. .     ",
"    . . b+2 t e s H m.d d d c+d+d+e+Q.A.=.S.C.&+*+f+g+. . .     ",
"    . . . h+A.*.; t e e e e i+j+k+U A.V 1+C.&+U.f+l+m+. .       ",
"      . . n+o+=.A.A.U *.*.U U A.8+V S.:.T.&+*+f+p+q+. . .       ",
"        . . ;.r+S.B.V V =.V V S.1+:.C.&+{+9+f+p+s+. . .         ",
"        . . . t+u+C.n.:.:.:.n.C.T.&+{+*+2+v+w+x+. . .           ",
"          . . . . y+z+&+&+&+A+{+U.9+2+B+p+C+a+. . . .           ",
"            . . . . D+E+F+G+H+f+f+v+I+J+K+. . . .               ",
"                . . . . . L+M+* m+N+n+. . . . .                 ",
"                    . . . . . . . . . . . .                     ",
"                        . . . . . . . .                         ",
"                                                                "};
