/* XPM */
static const char * ICON_SAVE_xpm[] = {
"32 32 168 2",
"  	c None",
". 	c #000000",
"+ 	c #000001",
"@ 	c #040406",
"# 	c #1F202D",
"$ 	c #29293B",
"% 	c #222231",
"& 	c #3D3D3C",
"* 	c #484849",
"= 	c #484848",
"- 	c #323234",
"; 	c #252637",
"> 	c #2A2A3C",
", 	c #0F0F16",
"' 	c #010102",
") 	c #13131C",
"! 	c #62638E",
"~ 	c #6F70A1",
"{ 	c #5A5B81",
"] 	c #CFD0CE",
"^ 	c #E8E8E8",
"/ 	c #E6E6E6",
"( 	c #E8E8E9",
"_ 	c #ADADAF",
": 	c #60618F",
"< 	c #7475A7",
"[ 	c #393A53",
"} 	c #15151E",
"| 	c #656692",
"1 	c #7071A2",
"2 	c #5A5B80",
"3 	c #D1D1CF",
"4 	c #E4E4E4",
"5 	c #E6E6E7",
"6 	c #B0B0B1",
"7 	c #7475A8",
"8 	c #3E3E59",
"9 	c #666692",
"0 	c #7172A2",
"a 	c #5B5B80",
"b 	c #D3D3D1",
"c 	c #E7E7E7",
"d 	c #B1B1B3",
"e 	c #7576A8",
"f 	c #3E3E5A",
"g 	c #B1B1B2",
"h 	c #5B5B81",
"i 	c #E5E5E5",
"j 	c #E3E3E3",
"k 	c #B0B0B2",
"l 	c #7172A3",
"m 	c #5C5D85",
"n 	c #BBBBBA",
"o 	c #D2D3D3",
"p 	c #D1D1D1",
"q 	c #D2D2D2",
"r 	c #9C9CA0",
"s 	c #636493",
"t 	c #7071A1",
"u 	c #6D6E9E",
"v 	c #656585",
"w 	c #686887",
"x 	c #676887",
"y 	c #686987",
"z 	c #646588",
"A 	c #7374A6",
"B 	c #7475A6",
"C 	c #6B6B97",
"D 	c #6B6C98",
"E 	c #6D6E9C",
"F 	c #7273A5",
"G 	c #68687E",
"H 	c #A1A1A7",
"I 	c #9D9EA4",
"J 	c #9D9DA3",
"K 	c #9D9DA4",
"L 	c #9E9EA4",
"M 	c #9F9EA5",
"N 	c #7A7A85",
"O 	c #686998",
"P 	c #6A6B99",
"Q 	c #898A95",
"R 	c #E2E2E3",
"S 	c #DBDBDB",
"T 	c #BCBCBF",
"U 	c #B5B5B8",
"V 	c #B5B5B9",
"W 	c #BEBEC0",
"X 	c #DCDCDD",
"Y 	c #DBDBDC",
"Z 	c #DEDEDE",
"` 	c #B4B4B4",
" .	c #5E5F8B",
"..	c #7273A4",
"+.	c #6A6B9A",
"@.	c #868692",
"#.	c #E0E0E0",
"$.	c #C6C6C5",
"%.	c #595A78",
"&.	c #66668E",
"*.	c #66668D",
"=.	c #5B5B77",
"-.	c #CDCDCB",
";.	c #D9D9D9",
">.	c #B0B0AF",
",.	c #E1E1E2",
"'.	c #BCBCBB",
").	c #5D5E87",
"!.	c #7374A5",
"~.	c #5C5D83",
"{.	c #C5C5C3",
"].	c #DADADA",
"^.	c #B0B0B0",
"/.	c #5B5C85",
"(.	c #7172A5",
"_.	c #5D5E86",
":.	c #16161F",
"<.	c #666795",
"[.	c #6F70A0",
"}.	c #E1E1E1",
"|.	c #C2C2C0",
"1.	c #4F4F73",
"2.	c #626391",
"3.	c #616291",
"4.	c #505071",
"5.	c #CACAC8",
"6.	c #050508",
"7.	c #3B3C56",
"8.	c #7272A4",
"9.	c #888893",
"0.	c #B6B6B6",
"a.	c #A9A9AA",
"b.	c #A8A9A9",
"c.	c #B8B8B8",
"d.	c #DDDDDD",
"e.	c #B2B2B2",
"f.	c #5F608C",
"g.	c #3F3F5A",
"h.	c #060609",
"i.	c #474766",
"j.	c #696A97",
"k.	c #646591",
"l.	c #6A6B78",
"m.	c #C1C1C1",
"n.	c #BCBCBC",
"o.	c #BEBEBF",
"p.	c #BFBFBF",
"q.	c #BDBDBD",
"r.	c #BEBEBE",
"s.	c #8B8B8C",
"t.	c #5C5D88",
"u.	c #696A98",
"v.	c #6C6D9C",
"w.	c #303146",
"x.	c #020204",
"y.	c #040506",
"z.	c #030304",
"A.	c #050506",
"B.	c #040405",
"C.	c #030305",
"D.	c #171722",
"E.	c #13141C",
"F.	c #2D2D2D",
"G.	c #323232",
"H.	c #313131",
"I.	c #262626",
"J.	c #14151F",
"K.	c #191924",
"                                                                ",
"    . . . . . . . . . . . . . . . . . . . . . . . . . . .       ",
"  + @ # $ % & * = = = = = = = = = = = = = = = = = - ; > , .     ",
"  ' ) ! ~ { ] ^ / / / / / / / / / / / / / / / / ( _ : < [ .     ",
"  ' } | 1 2 3 / 4 4 4 4 4 4 4 4 4 4 4 4 4 4 4 4 5 6 : 7 8 .     ",
"  ' } 9 0 a b c / / / / / / / / / / / / / / / / ( d : e f .     ",
"  ' } 9 0 a b c / / / / / / / / / / / / / / / / ( d : e f .     ",
"  ' } 9 0 a b c / / / / / / / / / / / / / / / / ( d : e f .     ",
"  ' } 9 0 a b c / / / / / / / / / / / / / / / / ( d : e f .     ",
"  ' } 9 0 a b c / / / / / / / / / / / / / / / / ( d : e f .     ",
"  ' } 9 0 a b c / / / / / / / / / / / / / / / / ( d : e f .     ",
"  ' } 9 0 a b c / / / / / / / / / / / / / / / / ( d : e f .     ",
"  ' } 9 0 a b c / / / / / / / / / / / / / / / / ( g : e f .     ",
"  ' } 9 0 h 3 i j j j j j j j j j j j j j j j j / k : e f .     ",
"  ' } 9 l m n o p p p p p p p p p p p p p p p p q r s 7 f .     ",
"  ' } 9 t u v w w w w w w w w w w w w w w x y y y z 1 A f .     ",
"  ' } 9 t 1 B t C D D D D D D D D D D D D E e < < F 1 A f .     ",
"  ' } 9 t 1 u G H I J K K J L L L L L L M N O l l l 1 A f .     ",
"  ' } 9 t 1 P Q R S T U V W X Y Y Y Y Y Z `  ...l l 1 A f .     ",
"  ' } 9 t 1 +.@.#.$.%.&.*.=.-.;.;.;.;.;.S >. ...l l 1 A f .     ",
"  ' } 9 t 1 +.@.,.'.).!.!.~.{.].;.;.;.;.S ^. ...l l 1 A f .     ",
"  ' } 9 t 1 +.@.,.'./.F (.{ {.].;.;.;.;.S ^. ...l l 1 A f .     ",
"  ' } 9 t 1 +.@.,.'./.F (.{ {.].;.;.;.;.S ^. ...l l 1 A f .     ",
"  ' } 9 t 1 +.@.,.'./.F (.{ {.].;.;.;.;.S ^. ...l l 1 A f .     ",
"  ' } | t 1 +.@.,.'._.B A ~.{.].;.;.;.;.S ^. ...l l 1 A f .     ",
"  ' :.<.[.1 +.@.}.|.1.2.3.4.5.].;.;.;.;.S ^. ...l l 1 A f .     ",
"  + 6.7.8.1 +.9.,.S 0.a.b.c.d.].].].].].d.e.f.!.l l l < g..     ",
"    + h.i.j.k.l.m.n.o.p.p.p.q.q.q.q.q.q.r.s.t.+.u.u.j.v.w..     ",
"      h.' x.y.z.. . . . . . . . . . . . . ' A.B.B.B.z.C.. .     ",
"        D.E.F.G.H.H.H.H.H.H.H.H.H.H.H.H.H.H.H.H.G.I.J.K.,       ",
"                                                                ",
"                                                                "};
