/* XPM */
static const char * ICON_FILE_CUT_xpm[] = {
"32 32 185 2",
"  	g None",
". 	g #010101",
"+ 	g #0C0C0C",
"@ 	g #060606",
"# 	g #000000",
"$ 	g #040404",
"% 	g #080808",
"& 	g #898989",
"* 	g #3B3B3B",
"= 	g #949494",
"- 	g #4A4A4A",
"; 	g #848484",
"> 	g #D4D4D4",
", 	g #B2B2B2",
"' 	g #0D0D0D",
") 	g #5E5E5E",
"! 	g #FEFEFE",
"~ 	g #EEEEEE",
"{ 	g #2B2B2B",
"] 	g #383838",
"^ 	g #BEBEBE",
"/ 	g #C9C9C9",
"( 	g #5C5C5C",
"_ 	g #020202",
": 	g #242424",
"< 	g #C7C7C7",
"[ 	g #FBFBFB",
"} 	g #F9F9F9",
"| 	g #979797",
"1 	g #090909",
"2 	g #6D6D6D",
"3 	g #C6C6C6",
"4 	g #C8C8C8",
"5 	g #CACACA",
"6 	g #BFBFBF",
"7 	g #363636",
"8 	g #9E9E9E",
"9 	g #FDFDFD",
"0 	g #FAFAFA",
"a 	g #F1F1F1",
"b 	g #CFCFCF",
"c 	g #272727",
"d 	g #030303",
"e 	g #797979",
"f 	g #C4C4C4",
"g 	g #929292",
"h 	g #F3F3F3",
"i 	g #FCFCFC",
"j 	g #F5F5F5",
"k 	g #ECECEC",
"l 	g #D3D3D3",
"m 	g #2F2F2F",
"n 	g #C3C3C3",
"o 	g #4E4E4E",
"p 	g #1C1C1C",
"q 	g #F8F8F8",
"r 	g #EFEFEF",
"s 	g #E6E6E6",
"t 	g #202020",
"u 	g #313131",
"v 	g #CBCBCB",
"w 	g #AAAAAA",
"x 	g #1D1D1D",
"y 	g #737373",
"z 	g #EAEAEA",
"A 	g #8D8D8D",
"B 	g #070707",
"C 	g #C0C0C0",
"D 	g #C1C1C1",
"E 	g #C5C5C5",
"F 	g #CECECE",
"G 	g #838383",
"H 	g #F4F4F4",
"I 	g #EDEDED",
"J 	g #E4E4E4",
"K 	g #D8D8D8",
"L 	g #161616",
"M 	g #AFAFAF",
"N 	g #CCCCCC",
"O 	g #9C9C9C",
"P 	g #E7E7E7",
"Q 	g #E0E0E0",
"R 	g #7C7C7C",
"S 	g #3A3A3A",
"T 	g #AEAEAE",
"U 	g #A0A0A0",
"V 	g #171717",
"W 	g #626262",
"X 	g #F7F7F7",
"Y 	g #E8E8E8",
"Z 	g #939393",
"` 	g #121212",
" .	g #505050",
"..	g #C2C2C2",
"+.	g #6B6B6B",
"@.	g #D2D2D2",
"#.	g #E5E5E5",
"$.	g #1B1B1B",
"%.	g #545454",
"&.	g #B4B4B4",
"*.	g #E9E9E9",
"=.	g #F6F6F6",
"-.	g #A9A9A9",
";.	g #464646",
">.	g #BDBDBD",
",.	g #F0F0F0",
"'.	g #1E1E1E",
").	g #282828",
"!.	g #E2E2E2",
"~.	g #D9D9D9",
"{.	g #E1E1E1",
"].	g #707070",
"^.	g #0E0E0E",
"/.	g #DEDEDE",
"(.	g #DADADA",
"_.	g #777777",
":.	g #959595",
"<.	g #D1D1D1",
"[.	g #262626",
"}.	g #767676",
"|.	g #6C6C6C",
"1.	g #1A1A1A",
"2.	g #535353",
"3.	g #BABABA",
"4.	g #393939",
"5.	g #515151",
"6.	g #7A7A7A",
"7.	g #7D7D7D",
"8.	g #585858",
"9.	g #0A0A0A",
"0.	g #8A8A8A",
"a.	g #303030",
"b.	g #B6B6B6",
"c.	g #B9B9B9",
"d.	g #DFDFDF",
"e.	g #BBBBBB",
"f.	g #1F1F1F",
"g.	g #555555",
"h.	g #686868",
"i.	g #696969",
"j.	g #E3E3E3",
"k.	g #EBEBEB",
"l.	g #484848",
"m.	g #050505",
"n.	g #4C4C4C",
"o.	g #3E3E3E",
"p.	g #8E8E8E",
"q.	g #969696",
"r.	g #101010",
"s.	g #0F0F0F",
"t.	g #9F9F9F",
"u.	g #565656",
"v.	g #353535",
"w.	g #222222",
"x.	g #111111",
"y.	g #676767",
"z.	g #373737",
"A.	g #141414",
"B.	g #212121",
"C.	g #DDDDDD",
"D.	g #D5D5D5",
"E.	g #5D5D5D",
"F.	g #414141",
"G.	g #3F3F3F",
"H.	g #B0B0B0",
"I.	g #131313",
"J.	g #636363",
"K.	g #CDCDCD",
"L.	g #2E2E2E",
"M.	g #404040",
"N.	g #BCBCBC",
"O.	g #919191",
"P.	g #656565",
"Q.	g #ABABAB",
"R.	g #0B0B0B",
"S.	g #9D9D9D",
"T.	g #D7D7D7",
"U.	g #292929",
"V.	g #ADADAD",
"W.	g #A6A6A6",
"X.	g #323232",
"Y.	g #727272",
"Z.	g #424242",
"`.	g #666666",
" +	g #474747",
"                                                                ",
"                . .                         .                   ",
"              . + @ #                     # + $ .               ",
"            . % & * #                   # # = - . .             ",
"          . + ; > , ' .                 $ ) ! ~ { .             ",
"          . ] ^ / > ( _               _ : < [ } | 1 .           ",
"          . 2 3 4 5 6 7 _           . . 8 9 0 a b c d           ",
"          . e f 3 / b g # #         . 7 h i j k l m d           ",
"          # ( 6 n 3 5 > o d       . p 6 9 q r s 6 t _           ",
"          . u , 6 f 4 v w x .     . y j } h z s A B .           ",
"          . B 2 C D E / F G . . . c r [ H I J K : .             ",
"            # L M 6 n 3 5 N { _ ' O 9 q r P Q R # #             ",
"              . S T 6 n < v U V W a X a Y J Z ` .               ",
"              . B  ...C E 4 / +.@.[ H k #.D $..                 ",
"                . . %.&...E 5 *.i =.I Y -.t . #                 ",
"                  . % ;.>.f @.,.k ,.I , '.. #                   ",
"                    . . ).= !.~.4 {.].^.. #                     ",
"                      . _ +.j /.~.f + . #                       ",
"            . _ . # _ d 7 (.P _.:.<.y % _ _ _ _ .               ",
"          . . [.}.& |.t 8 =.n 1.2.E 3.4.5.6.7.8.9..             ",
"        . B 0.h !.4 z X q q :.@ a.3.< 5 > b.c.d.e.* .           ",
"        . 8.} ~.S f.g.(.=.q 2 d f.w f F h.x x i.j.3.1 .         ",
"      d x < k.l.m.` d n.H a o.d ' p.E q.. r.s.. t.Y u._         ",
"      d v.d.N w.s.  L x.J Y f._ d }.f W @     1 y.{.R .         ",
"      _ z.{.5 t A.  B.s.C.D.1 # # E.f W B     9.y.C.e .         ",
"      d t 5 P F.% '.m.G.*.H.. . . ] f g # I.` # O Q 5._         ",
"        # J.i K.L.A.M.N.> o .   # _ O.D P.'.'.h.D.Q.@ #         ",
"        . R.S.} T.e.(.J 2 ' .     _ U.= ..w V.K.W.X..           ",
"          . $ 7 ; g Y.m . 1         % m.Z.`.i. +@ . #           ",
"            . _ _ $ . # 1.            r.# . . _ # #             ",
"                  :                                             ",
"                                                                "};
