/* XPM */
static const char * ICON_HOME_xpm[] = {
"32 32 394 2",
"  	c None",
". 	c #000000",
"+ 	c #140E01",
"@ 	c #231902",
"# 	c #745207",
"$ 	c #BB830B",
"% 	c #D9980D",
"& 	c #EBA60E",
"* 	c #E8A30D",
"= 	c #E3A00D",
"- 	c #BA830A",
"; 	c #926708",
"> 	c #4C3604",
", 	c #0B0801",
"' 	c #302203",
") 	c #B47F0B",
"! 	c #F7AD0F",
"~ 	c #F7AE0F",
"{ 	c #F6AD0F",
"] 	c #F4AC0F",
"^ 	c #F2AA0E",
"/ 	c #EEA80E",
"( 	c #EAA50E",
"_ 	c #E5A20D",
": 	c #E09E0C",
"< 	c #DB9A0C",
"[ 	c #CB8F0B",
"} 	c #694A05",
"| 	c #0A0701",
"1 	c #030200",
"2 	c #946809",
"3 	c #FAAF0F",
"4 	c #FCB110",
"5 	c #FEB210",
"6 	c #FEB310",
"7 	c #FDB210",
"8 	c #FBB010",
"9 	c #F8AE0F",
"0 	c #EFA80E",
"a 	c #E5A10D",
"b 	c #DF9D0C",
"c 	c #D9990C",
"d 	c #D3950B",
"e 	c #BA8409",
"f 	c #271C02",
"g 	c #0E0A01",
"h 	c #C0870C",
"i 	c #FFB413",
"j 	c #FFB61C",
"k 	c #FFB822",
"l 	c #FFB823",
"m 	c #FFB720",
"n 	c #FFB518",
"o 	c #F5AC0F",
"p 	c #E9A40D",
"q 	c #DC9C0C",
"r 	c #D6970B",
"s 	c #CF930A",
"t 	c #C48B0A",
"u 	c #443003",
"v 	c #040200",
"w 	c #B37E0B",
"x 	c #FFB516",
"y 	c #F7B223",
"z 	c #A48E60",
"A 	c #C9C4B9",
"B 	c #CAC5BA",
"C 	c #CAC5B9",
"D 	c #CAC4B7",
"E 	c #C9C3B5",
"F 	c #C8C2B3",
"G 	c #C8C0B1",
"H 	c #C7BFAE",
"I 	c #C6BEAC",
"J 	c #C3BAA6",
"K 	c #C6A04C",
"L 	c #D2940B",
"M 	c #CB900A",
"N 	c #C38A09",
"O 	c #3E2C03",
"P 	c #886008",
"Q 	c #F9AF0F",
"R 	c #FFB311",
"S 	c #AF904F",
"T 	c #FBF8EF",
"U 	c #FCF9F1",
"V 	c #FCF9F2",
"W 	c #FCF8F1",
"X 	c #FBF6EC",
"Y 	c #FAF5E9",
"Z 	c #F9F3E5",
"` 	c #F8F2E2",
" .	c #F8F0DE",
"..	c #F7EFDB",
"+.	c #EEE5D0",
"@.	c #D9A52D",
"#.	c #CC910A",
"$.	c #C58C09",
"%.	c #B88308",
"&.	c #1E1601",
"*.	c #2F2103",
"=.	c #F3AB0F",
"-.	c #FBB110",
";.	c #FFB61A",
">.	c #FFBB2D",
",.	c #C2A05C",
"'.	c #FDFAF5",
").	c #FDFBF6",
"!.	c #FDFAF4",
"~.	c #FBF7EE",
"{.	c #FAF6EB",
"].	c #FAF4E7",
"^.	c #F9F2E3",
"/.	c #F8F1E0",
"(.	c #F7EFDC",
"_.	c #F2E9D5",
":.	c #DCA731",
"<.	c #CE920A",
"[.	c #C68D09",
"}.	c #BF8808",
"|.	c #8E6506",
"1.	c #AF7B0A",
"2.	c #FDB110",
"3.	c #FFB71E",
"4.	c #FFBC33",
"5.	c #FEC047",
"6.	c #C9AF7B",
"7.	c #CFCBC0",
"8.	c #D0CCC3",
"9.	c #D0CBC2",
"0.	c #D0CABF",
"a.	c #CFC9BA",
"b.	c #CFC8B7",
"c.	c #CEC6B3",
"d.	c #CDC5B0",
"e.	c #CCC3AE",
"f.	c #CBC2AC",
"g.	c #CCC1AA",
"h.	c #E2B756",
"i.	c #D5970B",
"j.	c #C78D09",
"k.	c #C08809",
"l.	c #B98308",
"m.	c #382802",
"n.	c #281D02",
"o.	c #FFB71F",
"p.	c #FFC248",
"q.	c #FEC75C",
"r.	c #FECC70",
"s.	c #FECE78",
"t.	c #FECA67",
"u.	c #FEC553",
"v.	c #EEB645",
"w.	c #EDB135",
"x.	c #FCB41B",
"y.	c #F2AB0F",
"z.	c #E4A10D",
"A.	c #DD9C0C",
"B.	c #865F05",
"C.	c #6F4F06",
"D.	c #EEA70E",
"E.	c #FFB61B",
"F.	c #FFBB2E",
"G.	c #FFC041",
"H.	c #FEC861",
"I.	c #FEC964",
"J.	c #FEC75B",
"K.	c #AE9A72",
"L.	c #F7F4ED",
"M.	c #DAD5C9",
"N.	c #F3B122",
"O.	c #DC9B0C",
"P.	c #BF8809",
"Q.	c #AF7C07",
"R.	c #0D0A00",
"S.	c #B27D0A",
"T.	c #ECA60E",
"U.	c #FFB925",
"V.	c #FFBD36",
"W.	c #FFC144",
"X.	c #FEC34E",
"Y.	c #FEC450",
"Z.	c #B09E79",
"`.	c #F7F5EE",
" +	c #FCF8F0",
".+	c #FBF7ED",
"++	c #D8D2C4",
"@+	c #EBAC25",
"#+	c #E29F0D",
"$+	c #DB9B0C",
"%+	c #D4960B",
"&+	c #CD910A",
"*+	c #C68C09",
"=+	c #BE8708",
"-+	c #B78208",
";+	c #B07E07",
">+	c #3C2B02",
",+	c #CF920C",
"'+	c #F0A90E",
")+	c #FFB519",
"!+	c #FFB927",
"~+	c #FFBC32",
"{+	c #FFBE3A",
"]+	c #B19D74",
"^+	c #F7F4EE",
"/+	c #FAF4E8",
"(+	c #F9F3E4",
"_+	c #D7D0C1",
":+	c #E3A725",
"<+	c #D2950B",
"[+	c #C48B09",
"}+	c #BD8608",
"|+	c #B68207",
"1+	c #AF7D07",
"2+	c #533B03",
"3+	c #040300",
"4+	c #DE9D0C",
"5+	c #E6A20D",
"6+	c #B19B6C",
"7+	c #F7F3EB",
"8+	c #FBF6EB",
"9+	c #F9F3E6",
"0+	c #F8F0DF",
"a+	c #D6CEBC",
"b+	c #DBA226",
"c+	c #D0930A",
"d+	c #C98E0A",
"e+	c #C28A09",
"f+	c #BB8508",
"g+	c #B48007",
"h+	c #AD7C06",
"i+	c #634704",
"j+	c #0D0901",
"k+	c #E2A00D",
"l+	c #B09764",
"m+	c #F6F1E7",
"n+	c #FBF7EC",
"o+	c #FAF6EA",
"p+	c #FAF5E8",
"q+	c #F9F4E6",
"r+	c #F7F0DD",
"s+	c #F7EEDA",
"t+	c #D5CDB8",
"u+	c #D39E27",
"v+	c #B27F07",
"w+	c #AB7A06",
"x+	c #6A4C03",
"y+	c #D1940B",
"z+	c #E8A40D",
"A+	c #EDA70E",
"B+	c #F1A90E",
"C+	c #B49859",
"D+	c #F6F0E5",
"E+	c #F8F3E6",
"F+	c #BBB5A7",
"G+	c #E7E0D0",
"H+	c #F6EDD8",
"I+	c #F5ECD4",
"J+	c #DCD3BC",
"K+	c #CE991F",
"L+	c #BC8608",
"M+	c #A97906",
"N+	c #594003",
"O+	c #B8820A",
"P+	c #E7A30D",
"Q+	c #E3A00E",
"R+	c #D2CCBF",
"S+	c #F6F1E3",
"T+	c #CFB883",
"U+	c #AA9975",
"V+	c #E3DDCB",
"W+	c #D0981A",
"X+	c #C0B9A7",
"Y+	c #F6ECD5",
"Z+	c #F5EBD2",
"`+	c #F4E9CF",
" @	c #C4B081",
".@	c #B98408",
"+@	c #B37F07",
"@@	c #AC7B06",
"#@	c #A67705",
"$@	c #483302",
"%@	c #8A6107",
"&@	c #D9990B",
"*@	c #E19F0C",
"=@	c #C1BCAD",
"-@	c #F5EFDF",
";@	c #CDB682",
">@	c #A89873",
",@	c #E3DBC9",
"'@	c #C79119",
")@	c #BFB7A4",
"!@	c #F4EAD0",
"~@	c #F4E8CD",
"{@	c #C4AD78",
"]@	c #B58107",
"^@	c #A37405",
"/@	c #261C01",
"(@	c #483304",
"_@	c #D7980B",
":@	c #DA9A0C",
"<@	c #D3A238",
"[@	c #B8AD95",
"}@	c #D9AD4A",
"|@	c #A69772",
"1@	c #F7EEDB",
"2@	c #F6EED9",
"3@	c #E2DAC6",
"4@	c #C68F12",
"5@	c #AF9F7D",
"6@	c #C8AE70",
"7@	c #BF880D",
"8@	c #B17E07",
"9@	c #A57605",
"0@	c #936905",
"a@	c #020200",
"b@	c #0C0901",
"c@	c #C58B0A",
"d@	c #A49571",
"e@	c #F6EDD7",
"f@	c #F6ECD6",
"g@	c #E1D8C3",
"h@	c #A77806",
"i@	c #A17405",
"j@	c #5D4302",
"k@	c #634605",
"l@	c #CA8F0A",
"m@	c #A39370",
"n@	c #F5EBD3",
"o@	c #E0D7C0",
"p@	c #C18909",
"q@	c #B38007",
"r@	c #AE7C06",
"s@	c #A87806",
"t@	c #A37505",
"u@	c #986E04",
"v@	c #120D00",
"w@	c #080500",
"x@	c #B07D08",
"y@	c #A1926E",
"z@	c #F4E9D0",
"A@	c #F4E9CE",
"B@	c #E0D5BD",
"C@	c #A47505",
"D@	c #9E7205",
"E@	c #533C02",
"F@	c #2E2002",
"G@	c #A0906D",
"H@	c #F3E8CC",
"I@	c #F3E7CB",
"J@	c #DFD5B9",
"K@	c #AD7B06",
"L@	c #775503",
"M@	c #463203",
"N@	c #A68D4F",
"O@	c #F0E3C6",
"P@	c #F2E6C7",
"Q@	c #C7BB9F",
"R@	c #A77706",
"S@	c #9E7105",
"T@	c #876104",
"U@	c #0B0800",
"V@	c #3B2A02",
"W@	c #AC7B07",
"X@	c #B78207",
"Y@	c #B68208",
"Z@	c #AF9965",
"`@	c #B5AB91",
" #	c #B48C2C",
".#	c #A17305",
"+#	c #9D7104",
"@#	c #0E0A00",
"##	c #1F1601",
"$#	c #966B06",
"%#	c #B07D07",
"&#	c #AA7A06",
"*#	c #A27405",
"=#	c #9F7205",
"-#	c #986D04",
";#	c #4B3602",
">#	c #020100",
",#	c #352602",
"'#	c #725204",
")#	c #976D04",
"!#	c #5C4202",
"~#	c #050400",
"{#	c #3E2C02",
"]#	c #4F3902",
"^#	c #5F4403",
"/#	c #694B03",
"(#	c #563E02",
"_#	c #402E02",
":#	c #261B01",
"<#	c #010100",
"                        . . . . . . . .                         ",
"                  . . . . . . . . . . . . . .                   ",
"                . . . . . . . . + . . . . . . . .               ",
"            . . . . . @ # $ % & * = - ; > , . . . .             ",
"          . . . . ' ) ! ~ { ] ^ / ( _ : < [ } | . . .           ",
"        . . . 1 2 3 4 5 6 7 8 9 ] 0 ( a b c d e f . . .         ",
"      . . . g h 4 i j k l m n 5 3 o 0 p = q r s t u . . .       ",
"      . . v w 4 x y z A B B C D E F G H I J K L M N O . . .     ",
"    . . . P Q R l S T U V V W T X Y Z `  ...+.@.#.$.%.&.. . .   ",
"  . . . *.=.-.;.>.,.V '.).).!.U ~.{.].^./.(._.:.<.[.}.|.. . .   ",
"  . . . 1.{ 2.3.4.5.6.7.8.9.0.a.b.c.d.e.f.g.h.i.<.j.k.l.m.. . . ",
"  . . n./ { 7 o.4.p.q.r.s.t.u.v.w.x.3 y.& z.A.r <.j.k.l.B.. . . ",
". . . C.D.o 4 E.F.G.u.H.I.J.K.L.~.M.N.^ ( = O.i.<.j.P.%.Q.R.. . ",
". . . S.T.=.Q i U.V.W.X.Y.Z.`. +.+Y ++@+p #+$+%+&+*+=+-+;+>+. . ",
". . . ,+p '+{ 4 )+!+~+{+]+^+U ~.{./+(+_+:+: c <+M [+}+|+1+2+. . ",
". . 3+4+5+T.^ 9 2.x o.6+7+T ~.8+Y 9+` 0+a+b+r c+d+e+f+g+h+i+. . ",
". . j+O.k+* D.=.~ 8 l+m+n+X o+p+q+^./.r+s+t+u+&+*+P.l.v+w+x+. . ",
". . . y+4+= z+A+B+C+D+p+p+E+F+Z ^.G+F ..H+I+J+K+N L+|+1+M+N+. . ",
". . . O+c 4+= P+Q+R+(+Z S+T+U+` /.V+W+X+Y+Z+`+ @P..@+@@@#@$@. . ",
". . . %@%+&@A.*@k+=@/.-@;@p >@ .(.,@$+'@)@!@~@{@f+]@1+M+^@/@. . ",
"  . . (@<.d _@:@A.<@[@}@= #+|@1@2@3@i.y+4@5@6@7@-+8@w+9@0@a@. . ",
"  . . b@c@&+y+%+_@c :@$+$+$+d@e@f@g@s M j.e+}+%.+@h+h@i@j@. . . ",
"  . . . k@j.l@&+c+L d %+%+%+m@n@Z+o@d+$.p@}+%.q@r@s@t@u@v@. .   ",
"    . . w@x@[+j.d+M #.&+&+&+y@z@A@B@e+}.f+-+v+r@M+C@D@E@. . .   ",
"    . . . F@l.k.e+[+$.*+*+$.G@H@I@J@L+l.]@8@K@s@t@D@L@3+. .     ",
"      . . . M@.@f+}+=+=+=+=+N@O@P@Q@]@v+1+w+R@^@S@T@U@. . .     ",
"        . . . V@W@]@X@-+-+-+Y@Z@`@ #1+@@s@9@.#+#L@@#. . .       ",
"        . . . . ##$#1+%#;+%#1+r@@@&#s@9@*#=#-#;#>#. . .         ",
"            . . . . ,#'#s@s@s@R@9@t@.#D@)#!#U@. . . .           ",
"              . . . . . ~#{#]#^#/#(#_#:#<#. . . . .             ",
"                . . . . . . . . . . . . . . . .                 ",
"                    . . . . . . . . . . . .                     "};
