/* XPM */
static const char * ICON_GOFAVORITE_xpm[] = {
"32 32 449 2",
"  	c None",
". 	c #000000",
"+ 	c #080807",
"@ 	c #2E2E2B",
"# 	c #32322F",
"$ 	c #242421",
"% 	c #0C0C0C",
"& 	c #010101",
"* 	c #2C2D29",
"= 	c #5A5A54",
"- 	c #5C5C55",
"; 	c #3A3A35",
"> 	c #0A0A09",
", 	c #121210",
"' 	c #9E9F94",
") 	c #BEBFB1",
"! 	c #B9BAAB",
"~ 	c #BBBCAD",
"{ 	c #B9BAAC",
"] 	c #A1A296",
"^ 	c #74746C",
"/ 	c #464641",
"( 	c #191917",
"_ 	c #040404",
": 	c #1C1C1A",
"< 	c #818277",
"[ 	c #A9AB96",
"} 	c #A4A68E",
"| 	c #A8AB95",
"1 	c #B0B39F",
"2 	c #A8A99A",
"3 	c #2F2F2C",
"4 	c #797A71",
"5 	c #A8AA9A",
"6 	c #767864",
"7 	c #757862",
"8 	c #797C66",
"9 	c #82856F",
"0 	c #8F927C",
"a 	c #9EA18E",
"b 	c #AEB09E",
"c 	c #B8B9AA",
"d 	c #B2B3A5",
"e 	c #B1B3A1",
"f 	c #9DA087",
"g 	c #989C80",
"h 	c #999D81",
"i 	c #87897A",
"j 	c #080808",
"k 	c #8E8F84",
"l 	c #94948A",
"m 	c #7C7C74",
"n 	c #585852",
"o 	c #282825",
"p 	c #121211",
"q 	c #8F9085",
"r 	c #686B5A",
"s 	c #666856",
"t 	c #6A6D5A",
"u 	c #6E715D",
"v 	c #727660",
"w 	c #767A63",
"x 	c #7A7E67",
"y 	c #7E826A",
"z 	c #83866E",
"A 	c #888C73",
"B 	c #8B8E74",
"C 	c #8E9278",
"D 	c #92967B",
"E 	c #969A7E",
"F 	c #969883",
"G 	c #070706",
"H 	c #2B2B28",
"I 	c #F0F1E0",
"J 	c #E9EAD9",
"K 	c #E7E8D7",
"L 	c #E8E9D8",
"M 	c #EAEADA",
"N 	c #DDDECE",
"O 	c #B0B1A4",
"P 	c #7C7C73",
"Q 	c #52534B",
"R 	c #3B3C33",
"S 	c #484A3D",
"T 	c #616452",
"U 	c #6C6E5B",
"V 	c #70745F",
"W 	c #747862",
"X 	c #787C65",
"Y 	c #7C8068",
"Z 	c #80846C",
"` 	c #84886F",
" .	c #8C9076",
"..	c #90947A",
"+.	c #94987C",
"@.	c #979B7F",
"#.	c #999D82",
"$.	c #5D5E53",
"%.	c #161614",
"&.	c #DEDFCE",
"*.	c #DCDECC",
"=.	c #DADBCA",
"-.	c #D9DAC9",
";.	c #DADBCB",
">.	c #E2E3D2",
",.	c #DBDCCC",
"'.	c #ACADA0",
").	c #4A4C43",
"!.	c #393A30",
"~.	c #505243",
"{.	c #6A6D59",
"].	c #727560",
"^.	c #767A64",
"/.	c #82866E",
"(.	c #868A71",
"_.	c #8A8E74",
":.	c #999C83",
"<.	c #3A3A33",
"[.	c #20201D",
"}.	c #E6E6D6",
"|.	c #C3C4B4",
"1.	c #A2806F",
"2.	c #904C38",
"3.	c #A85C46",
"4.	c #A56E5A",
"5.	c #92877B",
"6.	c #C5C6B7",
"7.	c #C6C6B7",
"8.	c #A79C8E",
"9.	c #A26B58",
"0.	c #8E422E",
"a.	c #904A38",
"b.	c #553228",
"c.	c #3C3D38",
"d.	c #3C3D35",
"e.	c #494B3D",
"f.	c #686B57",
"g.	c #7C8069",
"h.	c #909479",
"i.	c #5D5E54",
"j.	c #D8D9C9",
"k.	c #AD9686",
"l.	c #C14527",
"m.	c #E24A22",
"n.	c #EC6835",
"o.	c #EE733C",
"p.	c #E85A2B",
"q.	c #D53F1C",
"r.	c #A65A45",
"s.	c #EC6834",
"t.	c #E24821",
"u.	c #AF3417",
"v.	c #8E786A",
"w.	c #A0A195",
"x.	c #6C6C64",
"y.	c #404238",
"z.	c #4E5042",
"A.	c #70745E",
"B.	c #4C4C44",
"C.	c #90796B",
"D.	c #CF3E1D",
"E.	c #F1763C",
"F.	c #FEAC60",
"G.	c #FEB162",
"H.	c #FEAF61",
"I.	c #FEAE60",
"J.	c #FA9550",
"K.	c #EB612F",
"L.	c #EB6130",
"M.	c #FA9651",
"N.	c #FEB062",
"O.	c #FEAB5E",
"P.	c #FEA258",
"Q.	c #FB924E",
"R.	c #ED6230",
"S.	c #CC3A1A",
"T.	c #846E60",
"U.	c #CDCEBE",
"V.	c #D7D8C8",
"W.	c #95958A",
"X.	c #34342E",
"Y.	c #616352",
"Z.	c #787C66",
"`.	c #353530",
" +	c #B73B1E",
".+	c #F0743C",
"++	c #FFB062",
"@+	c #FEAC5F",
"#+	c #FEA85C",
"$+	c #FEA359",
"%+	c #FD9F56",
"&+	c #FC9B53",
"*+	c #FC9B54",
"=+	c #FD9B54",
"-+	c #FC9650",
";+	c #FB904B",
">+	c #F98243",
",+	c #F57339",
"'+	c #F16832",
")+	c #E64F24",
"!+	c #B6391E",
"~+	c #919186",
"{+	c #D3D4C4",
"]+	c #DBDCCB",
"^+	c #95968A",
"/+	c #33352B",
"(+	c #666A56",
"_+	c #6A6E5A",
":+	c #6E725D",
"<+	c #747663",
"[+	c #51170A",
"}+	c #E04620",
"|+	c #FEA65B",
"1+	c #FEAA5D",
"2+	c #FEA257",
"3+	c #F98847",
"4+	c #F67C3E",
"5+	c #F4773C",
"6+	c #F4763C",
"7+	c #F5783C",
"8+	c #F5763B",
"9+	c #F36C34",
"0+	c #EF5D2B",
"a+	c #E94F23",
"b+	c #E54720",
"c+	c #E3461F",
"d+	c #DB3A1A",
"e+	c #704F42",
"f+	c #C6C7B8",
"g+	c #B7B8AA",
"h+	c #1E1E19",
"i+	c #5C604E",
"j+	c #606351",
"k+	c #646854",
"l+	c #686A5A",
"m+	c #75210F",
"n+	c #FEA358",
"o+	c #FE9B51",
"p+	c #FC924B",
"q+	c #F98342",
"r+	c #F47339",
"s+	c #EE6530",
"t+	c #EB5C2C",
"u+	c #EA5829",
"v+	c #EA582A",
"w+	c #E95326",
"x+	c #E64920",
"y+	c #E03D1A",
"z+	c #DB3415",
"A+	c #D93114",
"B+	c #DA3B19",
"C+	c #D93B1A",
"D+	c #823C2C",
"E+	c #BBBCAE",
"F+	c #D2D4C3",
"G+	c #C5C5B7",
"H+	c #1C1C18",
"I+	c #525445",
"J+	c #565849",
"K+	c #5A5D4C",
"L+	c #53544A",
"M+	c #711F0E",
"N+	c #FC8A45",
"O+	c #FA7E3E",
"P+	c #F77237",
"Q+	c #F16430",
"R+	c #EA5527",
"S+	c #E54D23",
"T+	c #E34A22",
"U+	c #E24921",
"V+	c #E1451F",
"W+	c #DE401C",
"X+	c #DC3818",
"Y+	c #D82F13",
"Z+	c #D3280E",
"`+	c #D0240D",
" @	c #D0260D",
".@	c #D53D1A",
"+@	c #D8441F",
"@@	c #843624",
"#@	c #B5B6A8",
"$@	c #CED0C0",
"%@	c #C9CBBB",
"&@	c #1E1E1C",
"*@	c #47493C",
"=@	c #4C4E40",
"-@	c #515344",
";@	c #383933",
">@	c #651C0C",
",@	c #F77337",
"'@	c #F4662F",
")@	c #EF5828",
"!@	c #E84A21",
"~@	c #E1421C",
"{@	c #DE3E1A",
"]@	c #DD3F1C",
"^@	c #DD3E1B",
"/@	c #DA3918",
"(@	c #D63114",
"_@	c #D1270F",
":@	c #CC210C",
"<@	c #CB1D0A",
"[@	c #CA1D0A",
"}@	c #CB200C",
"|@	c #D23A19",
"1@	c #D6421E",
"2@	c #804B3B",
"3@	c #CCCEBE",
"4@	c #252522",
"5@	c #3C3D32",
"6@	c #424438",
"7@	c #4B4D40",
"8@	c #CF3718",
"9@	c #EC5728",
"0@	c #EC5325",
"a@	c #E6451E",
"b@	c #DE3A19",
"c@	c #D93416",
"d@	c #D73316",
"e@	c #D83516",
"f@	c #D63215",
"g@	c #D22C12",
"h@	c #CE250E",
"i@	c #CB1F0B",
"j@	c #C91B09",
"k@	c #C81A08",
"l@	c #C91C0A",
"m@	c #CC230D",
"n@	c #D85C2B",
"o@	c #CB3517",
"p@	c #70665C",
"q@	c #CBCDBD",
"r@	c #282826",
"s@	c #303229",
"t@	c #383A30",
"u@	c #47483F",
"v@	c #030303",
"w@	c #7C220F",
"x@	c #DB3B1A",
"y@	c #E3451E",
"z@	c #DE3A18",
"A@	c #D73013",
"B@	c #D22B11",
"C@	c #D12A11",
"D@	c #D02810",
"E@	c #CD230D",
"F@	c #CA1E0B",
"G@	c #C71908",
"H@	c #CA220C",
"I@	c #D65A28",
"J@	c #D6441E",
"K@	c #823625",
"L@	c #A2A397",
"M@	c #C2C4B5",
"N@	c #CACCBC",
"O@	c #2E2E2A",
"P@	c #262821",
"Q@	c #2E3027",
"R@	c #30302C",
"S@	c #8A2510",
"T@	c #D83617",
"U@	c #D02710",
"V@	c #CE250F",
"W@	c #CD230E",
"X@	c #CC200C",
"Y@	c #C71808",
"Z@	c #CA250E",
"`@	c #D55626",
" #	c #D43D1A",
".#	c #8D3522",
"+#	c #8C8D82",
"@#	c #C8C9BA",
"##	c #CBCCBD",
"$#	c #1D1E19",
"%#	c #2B2C26",
"&#	c #83230F",
"*#	c #D23215",
"=#	c #D43A1A",
"-#	c #D02F14",
";#	c #CB280E",
">#	c #D45222",
",#	c #CB3617",
"'#	c #903724",
")#	c #8A8C81",
"!#	c #B3B4A6",
"~#	c #C4C6B6",
"{#	c #C8CABA",
"]#	c #C4C6B7",
"^#	c #151511",
"/#	c #262622",
"(#	c #020201",
"_#	c #631A0B",
":#	c #CC2F14",
"<#	c #D33A19",
"[#	c #CE2A10",
"}#	c #C81A09",
"|#	c #CC2E11",
"1#	c #D45524",
"2#	c #BF2B11",
"3#	c #884534",
"4#	c #909286",
"5#	c #B2B4A6",
"6#	c #C7C9B9",
"7#	c #C7C9BA",
"8#	c #C6C8B8",
"9#	c #C1C3B4",
"0#	c #0D0D0B",
"a#	c #111110",
"b#	c #2D0C05",
"c#	c #B92911",
"d#	c #D23817",
"e#	c #CC260E",
"f#	c #CA1C0A",
"g#	c #C91C09",
"h#	c #CD3012",
"i#	c #D45624",
"j#	c #AF2710",
"k#	c #4E2E24",
"l#	c #929388",
"m#	c #B6B7A8",
"n#	c #1A1A18",
"o#	c #010100",
"p#	c #1B0803",
"q#	c #B2260F",
"r#	c #D23818",
"s#	c #CE2810",
"t#	c #D13E1A",
"u#	c #D65928",
"v#	c #94210E",
"w#	c #1B0703",
"x#	c #161615",
"y#	c #4F5049",
"z#	c #B6B7AA",
"A#	c #C2C4B4",
"B#	c #AAAB9E",
"C#	c #0A0A0A",
"D#	c #B62911",
"E#	c #D84E24",
"F#	c #801F0D",
"G#	c #0F0F0E",
"H#	c #383834",
"I#	c #61625A",
"J#	c #828379",
"K#	c #64655E",
"L#	c #BF3115",
"M#	c #A92B12",
"N#	c #0A0301",
"O#	c #591A0B",
"P#	c #411308",
"                                                                ",
"                                                                ",
"                                                                ",
"                                                                ",
"                                                                ",
"                                                                ",
"                    . . . .               . . . . .             ",
"                  + @ # $ % . . . .     & * = - ; > . .         ",
"                , ' ) ! ~ { ] ^ / ( _ : < [ } | 1 2 3 .         ",
"    . . . .   . 4 5 6 7 8 9 0 a b c d e f g g g g h i & .       ",
"  j k l m n o p q r s t u v w x y z A B C D E g g g F G .       ",
"  H I J K L M N O P Q R S T U V W X Y Z ` A  ...+.@.#.$.%.. .   ",
"  * L &.&.*.=.-.;.&.>.,.'.^ ).!.~.{.].^.x y /.(._.C D E :.<..   ",
"  [.}.=.|.1.2.3.4.5.6.7.8.9.0.a.b.c.d.e.f.W X g.Z ` A  .h.i..   ",
"  j j.k.l.m.n.o.p.q.0.r.q.p.o.s.t.u.v.w.x.y.z.A.^.x y /.(.B..   ",
"  . C.D.E.F.G.H.I.J.K.L.M.N.O.P.Q.R.S.T.U.V.W.X.Y.V W Z.g.`..   ",
"  .  +.+++I.@+#+$+%+&+*+=+-+;+>+,+'+)+!+~+{+]+^+/+(+_+:+<+: .   ",
"  [+}+|+1+#+2+-+3+4+5+6+7+8+9+0+a+b+c+d+e+f+V.g+h+i+j+k+l+j .   ",
"  m+K.n+o+p+q+r+s+t+u+v+v+w+x+y+z+A+B+C+D+E+F+G+H+I+J+K+L+. .   ",
"  M+L.N+O+P+Q+R+S+T+U+V+W+X+Y+Z+`+ @.@+@@@#@$@%@&@*@=@-@;@.     ",
"  >@t.,@'@)@!@~@{@]@^@/@(@_@:@<@[@}@|@1@2@#@U.3@4@5@6@7@: .     ",
"    8@9@0@a@b@c@d@e@f@g@h@i@j@k@l@m@n@o@p@~ 3@q@r@s@t@u@v@.     ",
"    w@x@y@z@A@B@C@C@D@E@F@k@G@k@H@I@J@K@L@M@3@N@O@P@Q@R@.       ",
"      S@T@f@B@U@V@W@X@[@k@Y@Y@Z@`@ #.#+#g+@###@#O@$#%#%..       ",
"        &#*#=#-#E@i@l@G@Y@Y@;#>#,#'#)#!#~#%@{#]#H ^#/#(#.       ",
"          _#:#<#[#[@}#G@G@|#1#2#3#4#5#M@6#7#8#9#$ 0#a#.         ",
"            b#c#d#e#f#g#h#i#j#k#l#m#M@8#8#]#~#{ n#_ o#.         ",
"              p#q#r#s#t#u#v#w#& x#y#+#z#A#M@M@B#C#. .           ",
"                  D#1@E#F#.     . . . G#H#I#J#K#. . .           ",
"                    L#M#N#            . . . . . . .             ",
"                    O#P#                      .                 ",
"                                                                "};
