/* XPM */
static const char * ICON_ZOOM_100_xpm[] = {
"32 32 399 2",
"  	c None",
". 	c #010101",
"+ 	c #000000",
"@ 	c #040404",
"# 	c #191919",
"$ 	c #353534",
"% 	c #3F3E3E",
"& 	c #383838",
"* 	c #2C2C2C",
"= 	c #131313",
"- 	c #020202",
"; 	c #030303",
"> 	c #2C2B2B",
", 	c #636362",
"' 	c #9F9F9D",
") 	c #AFAFAD",
"! 	c #AEAEAC",
"~ 	c #A7A6A5",
"{ 	c #949494",
"] 	c #969696",
"^ 	c #939393",
"/ 	c #808080",
"( 	c #484848",
"_ 	c #1C1C1C",
": 	c #0D0D0D",
"< 	c #595958",
"[ 	c #A5A4A2",
"} 	c #A9A9A7",
"| 	c #7E7E7D",
"1 	c #545454",
"2 	c #343434",
"3 	c #2A2A2A",
"4 	c #2B2B2C",
"5 	c #373737",
"6 	c #585858",
"7 	c #7F7F7F",
"8 	c #959595",
"9 	c #828282",
"0 	c #3A3A3A",
"a 	c #060606",
"b 	c #1C1C1B",
"c 	c #959492",
"d 	c #AAA9A8",
"e 	c #646464",
"f 	c #242424",
"g 	c #020101",
"h 	c #030508",
"i 	c #04060C",
"j 	c #030406",
"k 	c #010100",
"l 	c #323232",
"m 	c #6F6F6F",
"n 	c #6A6A6A",
"o 	c #0F0F0F",
"p 	c #1A1A1A",
"q 	c #8C8B89",
"r 	c #4D4D4D",
"s 	c #09090A",
"t 	c #010000",
"u 	c #0A0F19",
"v 	c #14203E",
"w 	c #2D3D66",
"x 	c #3D4D7A",
"y 	c #3B4A76",
"z 	c #29355C",
"A 	c #161D36",
"B 	c #0A0D12",
"C 	c #101010",
"D 	c #5F5F5F",
"E 	c #929292",
"F 	c #606060",
"G 	c #0E0E0E",
"H 	c #0A0A0A",
"I 	c #8E8E8C",
"J 	c #A1A19F",
"K 	c #303030",
"L 	c #0A0D14",
"M 	c #29385C",
"N 	c #9EABD3",
"O 	c #D2D9EE",
"P 	c #EEF0F7",
"Q 	c #EFF2F7",
"R 	c #E7ECF4",
"S 	c #D8DFEE",
"T 	c #97A5CD",
"U 	c #415295",
"V 	c #1E253F",
"W 	c #07090C",
"X 	c #050505",
"Y 	c #4A4A49",
"Z 	c #ADACAB",
"` 	c #555555",
" .	c #090C12",
"..	c #485986",
"+.	c #C9D1E8",
"@.	c #F6F7FB",
"#.	c #F4F6F9",
"$.	c #ECF0F6",
"%.	c #E6EBF3",
"&.	c #DFE5F1",
"*.	c #D8E1EE",
"=.	c #CAD5E7",
"-.	c #6874AA",
";.	c #2A3259",
">.	c #050507",
",.	c #070707",
"'.	c #6C6C6C",
").	c #262626",
"!.	c #1E1E1E",
"~.	c #9C9B99",
"{.	c #727271",
"].	c #090C10",
"^.	c #40517E",
"/.	c #E5E9F4",
"(.	c #F7F8FB",
"_.	c #F1F3F8",
":.	c #ECEFF6",
"<.	c #E5EAF3",
"[.	c #DFE6F1",
"}.	c #D7E0EE",
"|.	c #CFDAEB",
"1.	c #C3CFE4",
"2.	c #6C76AA",
"3.	c #282F51",
"4.	c #050609",
"5.	c #1B1B1B",
"6.	c #ADACAA",
"7.	c #363636",
"8.	c #202D4A",
"9.	c #C2CAE2",
"0.	c #F5F7FC",
"a.	c #EEF2F9",
"b.	c #E6EBF4",
"c.	c #D1DBEC",
"d.	c #CBD7E9",
"e.	c #B5C1DA",
"f.	c #5F66A0",
"g.	c #191B2C",
"h.	c #525252",
"i.	c #8D8D8D",
"j.	c #282828",
"k.	c #878684",
"l.	c #959594",
"m.	c #070A0C",
"n.	c #8191BE",
"o.	c #F0F2F7",
"p.	c #DCDEE1",
"q.	c #B9BCC0",
"r.	c #C0C5CB",
"s.	c #DEE5EF",
"t.	c #D1DBEB",
"u.	c #CAD5E8",
"v.	c #C6D3E6",
"w.	c #7D83AB",
"x.	c #3B3D5D",
"y.	c #2B2D46",
"z.	c #4D517D",
"A.	c #4A4F7D",
"B.	c #A2A19F",
"C.	c #757574",
"D.	c #0D152A",
"E.	c #BAC3E1",
"F.	c #D4D6D8",
"G.	c #7B7C7E",
"H.	c #757678",
"I.	c #94979D",
"J.	c #D7DFEC",
"K.	c #CDD9EB",
"L.	c #C7D4E9",
"M.	c #B0BBD8",
"N.	c #232434",
"O.	c #07080B",
"P.	c #40415E",
"Q.	c #111219",
"R.	c #868686",
"S.	c #727272",
"T.	c #121212",
"U.	c #AEADAB",
"V.	c #575757",
"W.	c #020200",
"X.	c #192442",
"Y.	c #D9DDEF",
"Z.	c #DEE1E6",
"`.	c #C1C5CC",
" +	c #888B8F",
".+	c #92959D",
"++	c #CFD9E9",
"@+	c #C6D2E3",
"#+	c #9299A3",
"$+	c #6F7480",
"%+	c #8788B0",
"&+	c #5E5E79",
"*+	c #515169",
"=+	c #060608",
"-+	c #4D4C65",
";+	c #262736",
">+	c #717171",
",+	c #848484",
"'+	c #181818",
")+	c #1F2A4B",
"!+	c #DCE1F0",
"~+	c #E7ECF3",
"{+	c #DBE1EB",
"]+	c #8F949B",
"^+	c #C9D4E6",
"/+	c #C0CDDF",
"(+	c #646870",
"_+	c #212128",
":+	c #6C6B83",
"<+	c #070709",
"[+	c #55556B",
"}+	c #2F2F40",
"|+	c #686868",
"1+	c #898989",
"2+	c #141414",
"3+	c #505050",
"4+	c #020201",
"5+	c #1C2543",
"6+	c #CFD6EA",
"7+	c #DFE6F0",
"8+	c #D2DAE7",
"9+	c #84888D",
"0+	c #8C929A",
"a+	c #C2CEE2",
"b+	c #ABB3D1",
"c+	c #8D8DB2",
"d+	c #7A798B",
"e+	c #080809",
"f+	c #605F71",
"g+	c #2F2F3D",
"h+	c #858583",
"i+	c #8E8E8E",
"j+	c #626262",
"k+	c #151C35",
"l+	c #AAB5D6",
"m+	c #DDE6F0",
"n+	c #D0DAE8",
"o+	c #868A91",
"p+	c #757A85",
"q+	c #9AA1C3",
"r+	c #67667E",
"s+	c #78778B",
"t+	c #868592",
"u+	c #696876",
"v+	c #23232C",
"w+	c #010102",
"x+	c #9B9A98",
"y+	c #7F7E7E",
"z+	c #787878",
"A+	c #0D1015",
"B+	c #435192",
"C+	c #7B85B4",
"D+	c #8A94B8",
"E+	c #2A2C33",
"F+	c #1B1B26",
"G+	c #8483A4",
"H+	c #18181D",
"I+	c #212124",
"J+	c #B7B5C6",
"K+	c #95949D",
"L+	c #0A0A0B",
"M+	c #72717D",
"N+	c #9593AF",
"O+	c #070708",
"P+	c #5D5D5D",
"Q+	c #212121",
"R+	c #2F3862",
"S+	c #37395A",
"T+	c #494A68",
"U+	c #5F5E6F",
"V+	c #706F7B",
"W+	c #CCCBD0",
"X+	c #6D6C71",
"Y+	c #AAA9B5",
"Z+	c #555461",
"`+	c #4A4948",
" @	c #A8A8A6",
".@	c #202020",
"+@	c #878787",
"@@	c #090909",
"#@	c #0D0F17",
"$@	c #384074",
"%@	c #858392",
"&@	c #131315",
"*@	c #171717",
"=@	c #92918F",
"-@	c #7D7D7D",
";@	c #8C8C8C",
">@	c #020203",
",@	c #171B2A",
"'@	c #575655",
")@	c #ADADAB",
"!@	c #444444",
"~@	c #171A25",
"{@	c #464A71",
"]@	c #807F8A",
"^@	c #1F1F22",
"/@	c #373636",
"(@	c #AFAEAC",
"_@	c #797978",
":@	c #757575",
"<@	c #0C0D12",
"[@	c #313246",
"}@	c #636489",
"|@	c #8B899A",
"1@	c #434249",
"2@	c #101012",
"3@	c #3A3A39",
"4@	c #9E9D9B",
"5@	c #9B9B9A",
"6@	c #797879",
"7@	c #5B5B5B",
"8@	c #262526",
"9@	c #909090",
"0@	c #424242",
"a@	c #101013",
"b@	c #1B1B21",
"c@	c #1C1B20",
"d@	c #0F0F11",
"e@	c #20201F",
"f@	c #616160",
"g@	c #B0B0AD",
"h@	c #989897",
"i@	c #919191",
"j@	c #929291",
"k@	c #A2A49F",
"l@	c #6A7F66",
"m@	c #101A10",
"n@	c #010201",
"o@	c #2E2E2E",
"p@	c #454545",
"q@	c #222222",
"r@	c #080808",
"s@	c #333332",
"t@	c #60605F",
"u@	c #9C9C99",
"v@	c #666666",
"w@	c #909190",
"x@	c #A2BA99",
"y@	c #97B48B",
"z@	c #446040",
"A@	c #121B11",
"B@	c #424243",
"C@	c #737373",
"D@	c #8F8F8F",
"E@	c #888888",
"F@	c #9A9A98",
"G@	c #ABAAA9",
"H@	c #9D9C9B",
"I@	c #6D6C6D",
"J@	c #333333",
"K@	c #8D908C",
"L@	c #5F7B5D",
"M@	c #63905E",
"N@	c #9ABD8F",
"O@	c #98B48C",
"P@	c #55744F",
"Q@	c #050709",
"R@	c #020305",
"S@	c #6B6C6C",
"T@	c #6B6B6B",
"U@	c #030306",
"V@	c #030405",
"W@	c #100F10",
"X@	c #495948",
"Y@	c #40623E",
"Z@	c #4E774B",
"`@	c #64905E",
" #	c #A1C296",
".#	c #111A10",
"+#	c #141515",
"@#	c #0D0D0E",
"##	c #080909",
"$#	c #111214",
"%#	c #07080C",
"&#	c #070B08",
"*#	c #283E28",
"=#	c #4B7248",
"-#	c #99BD8F",
";#	c #95B08A",
">#	c #7A8678",
",#	c #1E1D1E",
"'#	c #000101",
")#	c #070B07",
"!#	c #30482E",
"~#	c #4F774B",
"{#	c #9BA895",
"]#	c #999898",
"^#	c #464646",
"/#	c #293E28",
"(#	c #466644",
"_#	c #758474",
":#	c #908E90",
"<#	c #3B3B3B",
"[#	c #5D675C",
"}#	c #959695",
"|#	c #7B7B7B",
"1#	c #0C0C0C",
"2#	c #2B2B2B",
"                      . . . . . +                               ",
"                . + @ # $ % & * = - + .                         ",
"            . ; > , ' ) ! ~ { ] ^ / ( _ . .                     ",
"          . : < [ } | 1 2 3 4 5 6 7 8 9 0 a .                   ",
"        + b c d e f + g h i i j k - l m 8 n o .                 ",
"      . p q ' r s t u v w x y z A B . C D E F G .               ",
"    . H I J K . L M N O P Q R S T U V W X ( ^ D -               ",
"    + Y Z ` .  ...+.@.#.$.%.&.*.=.-.  ;.>.,.'.E ).+             ",
"  . !.~.{.G ].^./.(._.:.<.[.}.|.1.2.    3.4.5.7 m G             ",
"  + Y 6.7.t 8.9.(.0.a.b.[.*.c.d.e.f.      g.@ h.i.j..           ",
"  + k.l.,.m.n.o.p.q.r.s.}.t.u.v.w.x.y.z.  A.; 5.{ 1 +           ",
"  @ B.C.t D.E.F.G.H.I.J.t.K.L.M.N.O.>.P.    Q.@ R.S.+           ",
"+ T.U.V.W.X.Y.Z.`. +.+++@+#+$+%+&+*+=+-+    ;++ >+,+.           ",
"+ '+~ r - )+!+~+{+ +]+^+/+(+_+    :+<+[+    }++ |+1+; +         ",
"+ 2+{ 3+4+5+6+7+8+9+0+a+b+c+      d+e+f+    g++ h+1+.           ",
"+ H i+j+k k+l+m+n+o+p+q+  r+s+    t+s u+    v+w+x+y++           ",
"  + z+9 @ A+B+C+D+E+F+  G+H+I+J+  K+L+M+  N+O+p 6.P++           ",
"  + 1 { Q+- R+    S+T+    U+V+    W+X+Y+  Z++ `+ @5 +           ",
"  + .@+@j+@@#@$@                        %@&@*@=@-@= .           ",
"    a P+;@l >@,@                        I+. '@)@!@;             ",
"    . C ,+1+_ . ~@{@                ]@^@; /@(@_@X . +           ",
"      . 5 ;@:@Q+w+<@[@}@        |@1@2@. 3@4@5@6@7@8@+ +         ",
"        + * 1+9@0@2++ . a@b@c@d@+ - e@f@g@h@i@j@k@l@m@n@+       ",
"          ; o@z+{ z+p@q@H @ r@T.s@t@u@)@'.v@^ w@x@y@z@A@+ +     ",
"            + X B@C@9@] D@E@F@G@)@H@I@J@- 0@K@L@M@N@O@P@A@n@+   ",
"              Q@R@C * ( j+S@T@F 0@).H U@V@W@X@Y@Z@`@ #O@z@.#+   ",
"                    T.+#@#####@#$#%#      >@&#*#Y@=#`@-#;#>#,#. ",
"                                            '#)#!#Y@~#`@{#]#^#+ ",
"                                              + )#/#(#_#:#] <#. ",
"                                                . )#[#}#] |#1#. ",
"                                                  r@r@2#2#r@+   ",
"                                                    + . .       "};
