/* XPM */
static const char * ICON_ZOOM_OUT_xpm[] = {
"32 32 387 2",
"  	c None",
". 	c #010101",
"+ 	c #000000",
"@ 	c #060606",
"# 	c #070707",
"$ 	c #262525",
"% 	c #5B5A59",
"& 	c #848382",
"* 	c #9F9E9C",
"= 	c #A4A3A1",
"- 	c #8E8E8E",
"; 	c #858585",
"> 	c #6D6D6D",
", 	c #494949",
"' 	c #1D1D1D",
") 	c #010100",
"! 	c #151414",
"~ 	c #737371",
"{ 	c #A3A2A0",
"] 	c #A8A8A6",
"^ 	c #90908F",
"/ 	c #70706F",
"( 	c #616161",
"_ 	c #5D5D5D",
": 	c #6A6A6A",
"< 	c #868686",
"[ 	c #959595",
"} 	c #848484",
"| 	c #595959",
"1 	c #0E0E0E",
"2 	c #020202",
"3 	c #494948",
"4 	c #A4A4A2",
"5 	c #989796",
"6 	c #5C5C5C",
"7 	c #1B1C1C",
"8 	c #030303",
"9 	c #020201",
"0 	c #020305",
"a 	c #020304",
"b 	c #040404",
"c 	c #202021",
"d 	c #5F5F5F",
"e 	c #8B8B8B",
"f 	c #373737",
"g 	c #414140",
"h 	c #ACABA9",
"i 	c #8A8A89",
"j 	c #262626",
"k 	c #050606",
"l 	c #040509",
"m 	c #081027",
"n 	c #101C42",
"o 	c #172550",
"p 	c #18254E",
"q 	c #121C3F",
"r 	c #0D1225",
"s 	c #040407",
"t 	c #2B2B2B",
"u 	c #8D8D8D",
"v 	c #2E2E2E",
"w 	c #434342",
"x 	c #AAAAA7",
"y 	c #6B6B6A",
"z 	c #121212",
"A 	c #030508",
"B 	c #0F1833",
"C 	c #5E71AB",
"D 	c #A7B4DA",
"E 	c #CDD4EA",
"F 	c #D8DEED",
"G 	c #D1D8EA",
"H 	c #BDC7E1",
"I 	c #7A89BD",
"J 	c #344383",
"K 	c #12172B",
"L 	c #030406",
"M 	c #161616",
"N 	c #6E6E6E",
"O 	c #8A8A8A",
"P 	c #313131",
"Q 	c #0D0D0D",
"R 	c #9E9D9B",
"S 	c #131313",
"T 	c #030404",
"U 	c #1A2A57",
"V 	c #94A1C9",
"W 	c #E9ECF5",
"X 	c #F5F6FA",
"Y 	c #F0F2F8",
"Z 	c #EAEEF5",
"` 	c #E2E9F2",
" .	c #DCE4EF",
"..	c #C5CFE4",
"+.	c #5D6AA5",
"@.	c #1F2646",
"#.	c #191919",
"$.	c #7B7B7B",
"%.	c #616160",
"&.	c #A2A2A0",
"*.	c #030407",
"=.	c #172651",
"-.	c #C2CBE4",
";.	c #F9FAFB",
">.	c #F2F4F9",
",.	c #EEF1F7",
"'.	c #E7ECF4",
").	c #E1E7F2",
"!.	c #D9E1EF",
"~.	c #D1DBEB",
"{.	c #C5D1E5",
"].	c #6C77AB",
"^.	c #1E2342",
"/.	c #030305",
"(.	c #3A3A3A",
"_.	c #929292",
":.	c #474747",
"<.	c #1A1919",
"[.	c #979795",
"}.	c #0B0B0B",
"|.	c #0C1429",
"1.	c #7E8EBD",
"2.	c #F8F9FB",
"3.	c #E8EDF4",
"4.	c #DAE3EF",
"5.	c #D3DDEC",
"6.	c #CCD7E9",
"7.	c #B9C5DD",
"8.	c #6067A0",
"9.	c #414983",
"0.	c #11131F",
"a.	c #101010",
"b.	c #727272",
"c.	c #757575",
"d.	c #111111",
"e.	c #3E3E3D",
"f.	c #ADACAA",
"g.	c #323232",
"h.	c #030203",
"i.	c #41558F",
"j.	c #E3E7F3",
"k.	c #CBD6E9",
"l.	c #C8D5E7",
"m.	c #8D95BE",
"n.	c #3E436D",
"o.	c #3D3D3D",
"p.	c #919191",
"q.	c #2D2D2D",
"r.	c #626160",
"s.	c #111212",
"t.	c #060B16",
"u.	c #8C9AC8",
"v.	c #F1F2F8",
"w.	c #EDF0F7",
"x.	c #E8ECF4",
"y.	c #E0E7F1",
"z.	c #DAE2EF",
"A.	c #D2DCEC",
"B.	c #CCD8E9",
"C.	c #C6D3E6",
"D.	c #B2BDD8",
"E.	c #0A0B0F",
"F.	c #1C1C1C",
"G.	c #949494",
"H.	c #7F7E7D",
"I.	c #929190",
"J.	c #010102",
"K.	c #0A122E",
"L.	c #B3BDDD",
"M.	c #F0F3F8",
"N.	c #DDE1E8",
"O.	c #C7CCD4",
"P.	c #C1C7D1",
"Q.	c #BBC3CF",
"R.	c #B5BECC",
"S.	c #B2BCCC",
"T.	c #959EB0",
"U.	c #5C5E78",
"V.	c #565670",
"W.	c #565570",
"X.	c #54546F",
"Y.	c #6E6E93",
"Z.	c #1D1E2B",
"`.	c #8C8C8C",
" +	c #606060",
".+	c #81817F",
"++	c #868684",
"@+	c #0C1534",
"#+	c #BAC3E0",
"$+	c #ECF0F7",
"%+	c #BABEC5",
"&+	c #787A7D",
"*+	c #76787C",
"=+	c #73767A",
"-+	c #74777C",
";+	c #5F6266",
">+	c #151618",
",+	c #08080B",
"'+	c #09090C",
")+	c #47475A",
"!+	c #272737",
"~+	c #686868",
"{+	c #6F6F6F",
"]+	c #808080",
"^+	c #000001",
"/+	c #0C1430",
"(+	c #AFB9DA",
"_+	c #E4E9F3",
":+	c #B5BBC4",
"<+	c #787B80",
"[+	c #777A7F",
"}+	c #73777D",
"|+	c #4B4D53",
"1+	c #18181C",
"2+	c #121115",
"3+	c #131315",
"4+	c #141316",
"5+	c #141416",
"6+	c #565565",
"7+	c #282834",
"8+	c #9D9D9B",
"9+	c #656565",
"0+	c #070708",
"a+	c #0D1224",
"b+	c #8995C3",
"c+	c #DBE3EF",
"d+	c #D0DAE7",
"e+	c #C1CCDA",
"f+	c #ACB6CA",
"g+	c #8D92AE",
"h+	c #6C6C8A",
"i+	c #71718B",
"j+	c #7F7D92",
"k+	c #878698",
"l+	c #8F8D9C",
"m+	c #91909E",
"n+	c #8E8C9B",
"o+	c #A2A1B7",
"p+	c #1C1C23",
"q+	c #181818",
"r+	c #ABAAA8",
"s+	c #565656",
"t+	c #414141",
"u+	c #252525",
"v+	c #040508",
"w+	c #364383",
"x+	c #6C76AC",
"y+	c #919AC1",
"z+	c #8088B5",
"A+	c #8C8AA5",
"B+	c #3E3D3C",
"C+	c #A9A8A6",
"D+	c #363636",
"E+	c #4E4E4E",
"F+	c #202749",
"G+	c #494955",
"H+	c #050505",
"I+	c #6F6E6C",
"J+	c #939291",
"K+	c #090909",
"L+	c #636363",
"M+	c #838383",
"N+	c #202020",
"O+	c #07080F",
"P+	c #2E3665",
"Q+	c #7B7987",
"R+	c #101012",
"S+	c #2E2E2D",
"T+	c #A5A4A2",
"U+	c #5B5B5B",
"V+	c #292929",
"W+	c #5E5E5E",
"X+	c #000101",
"Y+	c #0C0F1A",
"Z+	c #BBB9C9",
"`+	c #1B1A1D",
" @	c #7D7C7B",
".@	c #A6A6A4",
"+@	c #575757",
"@@	c #464646",
"#@	c #0D0F18",
"$@	c #3A3D61",
"%@	c #75747F",
"&@	c #19191C",
"*@	c #0A0A0A",
"=@	c #5D5D5C",
"-@	c #6C6C6C",
";@	c #4B4B4B",
">@	c #08080C",
",@	c #242536",
"'@	c #555677",
")@	c #A7A6C0",
"!@	c #7D7C8C",
"~@	c #3A3940",
"{@	c #0D0D0E",
"]@	c #616060",
"^@	c #A8A7A5",
"/@	c #7C7C7C",
"(@	c #1E1F1E",
"_@	c #939393",
":@	c #6B6B6B",
"<@	c #2C2C2C",
"[@	c #080809",
"}@	c #08080A",
"|@	c #121217",
"1@	c #131317",
"2@	c #0C0C0C",
"3@	c #393938",
"4@	c #878785",
"5@	c #AAAAA8",
"6@	c #8F8F8E",
"7@	c #909191",
"8@	c #9FA89A",
"9@	c #567151",
"0@	c #0E150D",
"a@	c #656566",
"b@	c #434343",
"c@	c #1A1A1A",
"d@	c #222222",
"e@	c #353534",
"f@	c #595857",
"g@	c #828280",
"h@	c #9F9F9E",
"i@	c #929192",
"j@	c #879186",
"k@	c #9FBF94",
"l@	c #94B088",
"m@	c #3F5A3A",
"n@	c #171717",
"o@	c #4D4D4D",
"p@	c #A2A1A0",
"q@	c #9D9C9B",
"r@	c #80807F",
"s@	c #484848",
"t@	c #798478",
"u@	c #4E734C",
"v@	c #64905F",
"w@	c #99BD8F",
"x@	c #94B188",
"y@	c #506D4A",
"z@	c #020306",
"A@	c #141414",
"B@	c #393939",
"C@	c #434444",
"D@	c #383838",
"E@	c #232323",
"F@	c #030307",
"G@	c #020203",
"H@	c #344833",
"I@	c #3F613D",
"J@	c #4E764A",
"K@	c #648F5E",
"L@	c #A0C295",
"M@	c #94B189",
"N@	c #3F5A3B",
"O@	c #131913",
"P@	c #121213",
"Q@	c #151616",
"R@	c #0F0F10",
"S@	c #0E0F10",
"T@	c #101112",
"U@	c #111314",
"V@	c #08090D",
"W@	c #060906",
"X@	c #253924",
"Y@	c #40613D",
"Z@	c #4A7147",
"`@	c #648F5F",
" #	c #99BD8E",
".#	c #95A78E",
"+#	c #808280",
"@#	c #2C432B",
"##	c #40613E",
"$#	c #4D764A",
"%#	c #72916D",
"&#	c #979896",
"*#	c #000100",
"=#	c #243824",
"-#	c #627661",
";#	c #8F908E",
">#	c #929392",
",#	c #7E7E7E",
"'#	c #050905",
")#	c #616261",
"!#	c #878787",
"~#	c #747474",
"{#	c #080808",
"                      . + + + + .                               ",
"                . . + . . @ @ . + + . .                         ",
"            + . # $ % & * = - ; > , ' @ .                       ",
"          ) . ! ~ { ] ^ / ( _ : < [ } | 1 . +                   ",
"        . 2 3 4 5 6 7 8 9 0 a . b c d e } f . +                 ",
"      + 2 g h i j k l m n o p q r s # t ; u v + +               ",
"      . w x y z A B C D E F G H I J K L M N O P .               ",
"    . Q R ^ S T U V W X Y Z `  ...+.  @.. #.O $.# +             ",
"    b %.&.P *.=.-.;.>.,.'.).!.~.{.].    ^./.(._.:.2             ",
"  2 <.[.N }.|.1.2.X ,.3.).4.5.6.7.8.    9.0.a.b.c.d..           ",
"  + e.f.g.h.i.j.>.,.'.).!.5.k.l.m.        n.. o.p.q.+           ",
"  . r.4 s.t.u.v.w.x.y.z.A.B.C.D.            E.F.G.:.+           ",
"  . H.I.J.K.L.M.N.O.P.Q.R.S.T.U.V.W.X.Y.    Z.# `. +.           ",
". . .++++ @+#+$+%+&+*+=+-+;+>+,+'+'+'+)+    !+2 ; ~+.           ",
"  . {+]+^+/+(+_+:+<+[+}+|+1+2+3+4+5+4+6+    7+}.8+9+.           ",
"  . ( `.0+a+b+c+d+e+f+g+h+i+j+k+l+m+n+o+    p+q+r+s++           ",
"  + t+[ u+v+w+x+y+z+                      A+b B+C+D++           ",
"  . u+`.E+2 F+                            G+H+I+J+' .           ",
"  . K+L+M+N+O+P+                        Q+R+S+T+U+@             ",
"    + V+[ W+X+Y+                      Z+`++  @.@N+.             ",
"    + + +@G.@@# #@$@                %@&@*@=@f.+@K+. +           ",
"      . z -@u ;@+ >@,@'@      )@!@~@{@2 ]@^@_./@9+(@+ +         ",
"        . K+~+_@:@<@[@+ }@|@1@}@. 2@3@4@5@6@7@_@8@9@0@. +       ",
"          + 1 , p.- a@b@j c@d@e@f@g@r+h@:.-@i@j@k@l@m@0@+ +     ",
"            H+. n@o@$.- [ G.p@5@q@r@s@S 2 , t@u@v@w@x@y@0@. +   ",
"              /.z@2 A@u+B@C@b@D@E@z . F@G@1 H@I@J@K@L@M@N@O@+   ",
"                    P@Q@P@R@S@T@U@V@      2 W@X@Y@Z@`@ #.#+#H++ ",
"                                            X+W@@###$#%#&#_.A@. ",
"                                              *#W@=#-#;#>#,#H++ ",
"                                                H+'#)#!#~#<@+   ",
"                                                  {#+ 8 . . +   ",
"                                                    . + +       "};
