/* XPM */
static const char * ICON_LEFT_xpm[] = {
"32 32 275 2",
"  	c None",
". 	c #000000",
"+ 	c #010203",
"@ 	c #182B3E",
"# 	c #31577E",
"$ 	c #3B6998",
"% 	c #4379AE",
"& 	c #3F71A3",
"* 	c #35608A",
"= 	c #264462",
"- 	c #091118",
"; 	c #030508",
"> 	c #2F5479",
", 	c #589EE4",
"' 	c #60ACF7",
") 	c #60ABF7",
"! 	c #5FABF6",
"~ 	c #5FAAF5",
"{ 	c #5EA9F4",
"] 	c #5DA8F2",
"^ 	c #5DA6F0",
"/ 	c #5CA4ED",
"( 	c #4479B0",
"_ 	c #111F2D",
": 	c #182C3F",
"< 	c #5496D9",
"[ 	c #61ADFA",
"} 	c #61AEFA",
"| 	c #60ADF9",
"1 	c #60ACF8",
"2 	c #5CA6F0",
"3 	c #5BA5EE",
"4 	c #59A1E8",
"5 	c #325A83",
"6 	c #020405",
"7 	c #284766",
"8 	c #61AEFB",
"9 	c #67B1FB",
"0 	c #6CB3FB",
"a 	c #6CB4FB",
"b 	c #69B2FB",
"c 	c #5DA7F2",
"d 	c #5CA6EF",
"e 	c #5BA4ED",
"f 	c #5AA2EA",
"g 	c #457CB4",
"h 	c #090F16",
"i 	c #2B4C6E",
"j 	c #61ADF9",
"k 	c #62AFFC",
"l 	c #6FB5FA",
"m 	c #7ABAFA",
"n 	c #81BDF9",
"o 	c #82BDF9",
"p 	c #7DBBF9",
"q 	c #73B7FA",
"r 	c #66B0FB",
"s 	c #5EA8F3",
"t 	c #5DA7F0",
"u 	c #5AA3EB",
"v 	c #59A1E9",
"w 	c #4B88C5",
"x 	c #060C11",
"y 	c #203952",
"z 	c #7FBCF9",
"A 	c #8DC3F8",
"B 	c #95C7F8",
"C 	c #96C7F8",
"D 	c #90C4F8",
"E 	c #83BEF9",
"F 	c #73B6F8",
"G 	c #5AA1E6",
"H 	c #5FABF7",
"I 	c #5DA7F1",
"J 	c #5CA5EF",
"K 	c #5BA3EC",
"L 	c #589FE7",
"M 	c #4277AD",
"N 	c #010204",
"O 	c #030609",
"P 	c #569ADF",
"Q 	c #79B9FA",
"R 	c #8CC2F8",
"S 	c #9DCAF7",
"T 	c #A9D0F6",
"U 	c #ABD1F6",
"V 	c #A1CCF7",
"W 	c #8BB5DF",
"X 	c #DAE2E8",
"Y 	c #EEF4FB",
"Z 	c #BFD4E8",
"` 	c #58A0E7",
" .	c #579EE4",
"..	c #203B55",
"+.	c #294A6B",
"@.	c #6AB3FB",
"#.	c #94C6F8",
"$.	c #A8CFF6",
"%.	c #BBD8F5",
"&.	c #BFDAF5",
"*.	c #A0BEDC",
"=.	c #E7EBF1",
"-.	c #F1F7FD",
";.	c #EFF6FC",
">.	c #ECF3FA",
",.	c #59A0E7",
"'.	c #579EE5",
").	c #4A86C2",
"!.	c #5090D1",
"~.	c #BCD9F5",
"{.	c #AFC3D8",
"].	c #E8ECF0",
"^.	c #F4F9FD",
"/.	c #C9DFF6",
"(.	c #569CE2",
"_.	c #192D41",
":.	c #121F2D",
"<.	c #66B1FB",
"[.	c #9ECBF7",
"}.	c #9BBAD9",
"|.	c #E8EBEF",
"1.	c #F6FAFD",
"2.	c #F4F8FD",
"3.	c #DAE8F6",
"4.	c #63AFFA",
"5.	c #35608B",
"6.	c #2A4C6E",
"7.	c #5EA9F3",
"8.	c #60ACF9",
"9.	c #70B5FA",
"0.	c #80BDF9",
"a.	c #81ACD9",
"b.	c #E6EAEE",
"c.	c #F7FAFD",
"d.	c #F5F9FD",
"e.	c #F3F8FD",
"f.	c #E0EBF5",
"g.	c #569CE1",
"h.	c #4C8AC7",
"i.	c #345D87",
"j.	c #63AFFB",
"k.	c #6CABE7",
"l.	c #E2E7EC",
"m.	c #F2F7FD",
"n.	c #DBE5ED",
"o.	c #D7E2EC",
"p.	c #D6E0EC",
"q.	c #D3DFEB",
"r.	c #D2DFEA",
"s.	c #D0DDEA",
"t.	c #CEDCE9",
"u.	c #A9BED3",
"v.	c #64A7E9",
"w.	c #589FE6",
"x.	c #579DE3",
"y.	c #569BE1",
"z.	c #5397DB",
"A.	c #3C6C9D",
"B.	c #5FAAF6",
"C.	c #659CD5",
"D.	c #F0F6FC",
"E.	c #EEF5FC",
"F.	c #ECF4FC",
"G.	c #E9F3FB",
"H.	c #E7F1FB",
"I.	c #E5F0FB",
"J.	c #E3EFFA",
"K.	c #E0EEFA",
"L.	c #DEECFA",
"M.	c #B5CFE8",
"N.	c #589EE5",
"O.	c #569DE3",
"P.	c #559BE0",
"Q.	c #5499DD",
"R.	c #080E15",
"S.	c #386491",
"T.	c #63A0DD",
"U.	c #EAF3FC",
"V.	c #E8F2FB",
"W.	c #E6F1FB",
"X.	c #E4F0FB",
"Y.	c #E2EEFA",
"Z.	c #DFEDFA",
"`.	c #DDECFA",
" +	c #A3C9F0",
".+	c #559ADF",
"++	c #5498DC",
"@+	c #04070A",
"#+	c #2E5479",
"$+	c #AAC4DE",
"%+	c #EDF5FC",
"&+	c #EDF4FC",
"*+	c #B4D2F0",
"=+	c #9FCCF8",
"-+	c #9ECAF6",
";+	c #9CC9F4",
">+	c #9BC8F3",
",+	c #9AC6F2",
"'+	c #81B7EE",
")+	c #599FE5",
"!+	c #5499DE",
"~+	c #4F90D1",
"{+	c #1F3851",
"]+	c #ABC5E0",
"^+	c #EBF4FC",
"/+	c #EBF3FC",
"(+	c #E7F0F8",
"_+	c #72A9DE",
":+	c #5CA5EE",
"<+	c #5AA2EB",
"[+	c #5498DD",
"}+	c #4176AB",
"|+	c #05080C",
"1+	c #AAC5DF",
"2+	c #E3EEF8",
"3+	c #6CA5DD",
"4+	c #5BA4EC",
"5+	c #264564",
"6+	c #3B6B9B",
"7+	c #5BA4EE",
"8+	c #ACC6E0",
"9+	c #E4EFFB",
"0+	c #E2EFFA",
"a+	c #D7E3F0",
"b+	c #559ADE",
"c+	c #5294D7",
"d+	c #0A1219",
"e+	c #111F2C",
"f+	c #599FE6",
"g+	c #5AA3EC",
"h+	c #ABC6E0",
"i+	c #E1EEFA",
"j+	c #E3EEF9",
"k+	c #5AA1E8",
"l+	c #335D87",
"m+	c #3B6B9A",
"n+	c #94BCE3",
"o+	c #CADBED",
"p+	c #8FBEEC",
"q+	c #579DE4",
"r+	c #5091D4",
"s+	c #0C151E",
"t+	c #050A0E",
"u+	c #4883BE",
"v+	c #5296D9",
"w+	c #1E364E",
"x+	c #091119",
"y+	c #4985C0",
"z+	c #5294D8",
"A+	c #264463",
"B+	c #3E71A3",
"C+	c #559AE0",
"D+	c #5396DA",
"E+	c #4D8DCC",
"F+	c #192E42",
"G+	c #010102",
"H+	c #223E5A",
"I+	c #4F8FCE",
"J+	c #5599DE",
"K+	c #386693",
"L+	c #060A0F",
"M+	c #24425F",
"N+	c #4073A7",
"O+	c #5297DA",
"P+	c #5397DC",
"Q+	c #5397DA",
"R+	c #5296DA",
"S+	c #4A86C3",
"T+	c #30577E",
"U+	c #142434",
"V+	c #020406",
"W+	c #0A131B",
"X+	c #12202F",
"Y+	c #0E1A25",
"Z+	c #060B0F",
"                                                                ",
"                      . . . . . . . . .                         ",
"                  . . . . . . . . . . . . . .                   ",
"              . . . . + @ # $ % & * = - . . . . .               ",
"            . . . ; > , ' ) ! ~ { ] ^ / ( _ . . . .             ",
"          . . . : < [ } } [ | 1 ! { ] 2 3 4 5 6 . . .           ",
"        . . . 7 ~ 8 9 0 a b 8 [ 1 ! { c d e f g h . . .         ",
"      . . . i j k l m n o p q r [ 1 ~ s t 3 u v w x . .         ",
"      . . y ) 8 l z A B C D E F G | H { I J K v L M N . .       ",
"    . . O P j r Q R S T U V W X Y Z ' ~ ] d e f `  .... . .     ",
"    . . +.) [ @.z #.$.%.&.*.=.-.;.>.1 ~ ] 2 e f ,.'.).+ . .     ",
"  . . . !.) [ @.z #.T ~.{.].^.-.;./.1 ~ ] 2 e f ,.'.(._.. .     ",
"  . . :.{ H j <.m A [.}.|.1.2.-.3.4.1 ~ ] d e f `  .(.5.. . .   ",
"  . . 6.7.! 8.8 9.0.a.b.c.d.e.f.9 j H { I J K v L  .g.h.. . .   ",
"  . . i.] ~ ) [ j.k.l.1.d.e.m.n.o.p.q.r.s.t.u.v.w.x.y.z.+ . .   ",
"  . . A.I 7.B.1 [ C.^.e.e.-.D.E.F.G.H.I.J.K.L.M.N.O.P.Q.R.. .   ",
"  . . S.2 c { B.' T.-.-.D.;.E.F.U.V.W.X.Y.Z.`. + .(..+++@+. .   ",
"  . . #+3 2 ] { ~ ! $+;.E.%+&+*+=+[.-+;+>+,+'+)+x.y.!+~+. . .   ",
"  . . {+K 3 2 I s { { ]+^+/+G.(+_+2 :+e <+4 w. .(..+[+}+. . .   ",
"  . . |+x.K e J 2 I c ] 1+V.H.W.2+3+4+<+v L '.(.P.!+z.5+. .     ",
"    . . 6+f u 4+7+:+J d d 8+I.9+0+a+f 4 L '.x.y.b+++c+d+. .     ",
"    . . e+f+v f u g+4+e e 4+h+i+K.j+k+w.'.x.y..+[+z.l+. . .     ",
"    . . . m+w.,.4 v f f f f v n+o+p+N.q+(.y..+[+z.r+s+. .       ",
"      . . t+u+'.w.w.` ` ` ` w.w.N. .x.(.P.b+[+z.v+w+. . .       ",
"        . . x+y+x.q+ . . . .q+x.(.g.P..+!+++z.z+A+. . .         ",
"        . . . t+B+y.g.(.(.g.y.y.C+.+!+[+z.D+E+F+. . .           ",
"          . . . G+H+I+.+.+.+J+!+Q.++z.D+v+K+d+. . . .           ",
"            . . . . L+M+N+O+P+z.Q+R+S+T+U+. . . .               ",
"                . . . . . V+W+X+Y+Z+. . . . . .                 ",
"                  . . . . . . . . . . . . .                     ",
"                        . . . . . . . .                         ",
"                                                                "};
