/* XPM */
static const char * ICON_FILE_DELETE_xpm[] = {
"32 32 487 2",
"  	c None",
". 	c #000000",
"+ 	c #212121",
"@ 	c #292929",
"# 	c #3E3E3E",
"$ 	c #3B3B3B",
"% 	c #383838",
"& 	c #343434",
"* 	c #2E2E2E",
"= 	c #1F1F1F",
"- 	c #111111",
"; 	c #626262",
"> 	c #A5A5A5",
", 	c #F8F8F8",
"' 	c #ECECEC",
") 	c #E0E0E0",
"! 	c #D0D0D0",
"~ 	c #BABABA",
"{ 	c #7C7C7C",
"] 	c #151512",
"^ 	c #4D4C41",
"/ 	c #898779",
"( 	c #B4B3A8",
"_ 	c #D8D7D1",
": 	c #F5F4EF",
"< 	c #EEEDE8",
"[ 	c #EEEDE6",
"} 	c #EDECE5",
"| 	c #E4E2DB",
"1 	c #B9B8AF",
"2 	c #78786E",
"3 	c #4A493F",
"4 	c #57564A",
"5 	c #181815",
"6 	c #252520",
"7 	c #717060",
"8 	c #626154",
"9 	c #5F5E51",
"0 	c #686658",
"a 	c #7E7C6B",
"b 	c #8E8C7A",
"c 	c #A2A091",
"d 	c #ACABA0",
"e 	c #A09F96",
"f 	c #9B9A91",
"g 	c #9C9A92",
"h 	c #A3A297",
"i 	c #B0AFA2",
"j 	c #C0BEB1",
"k 	c #A8A696",
"l 	c #82816E",
"m 	c #69685A",
"n 	c #5D5C4F",
"o 	c #56564A",
"p 	c #565649",
"q 	c #616052",
"r 	c #201F1B",
"s 	c #1D1D19",
"t 	c #B3B19A",
"u 	c #C0BEA5",
"v 	c #C6C4AB",
"w 	c #BFBDA5",
"x 	c #A6A48E",
"y 	c #82816F",
"z 	c #727161",
"A 	c #636254",
"B 	c #424138",
"C 	c #414037",
"D 	c #3F3E36",
"E 	c #45443A",
"F 	c #5B5A4D",
"G 	c #979688",
"H 	c #B0AE9A",
"I 	c #A4A38C",
"J 	c #767565",
"K 	c #A7A58F",
"L 	c #B0AF97",
"M 	c #A5A48C",
"N 	c #979680",
"O 	c #414137",
"P 	c #191915",
"Q 	c #555448",
"R 	c #B4B29A",
"S 	c #D4D2BA",
"T 	c #D8D6BF",
"U 	c #DDDAC5",
"V 	c #D4D1BE",
"W 	c #AEAB9B",
"X 	c #9A9884",
"Y 	c #6C6B5C",
"Z 	c #3C3C33",
"` 	c #23221D",
" .	c #302F28",
"..	c #2F2D27",
"+.	c #262520",
"@.	c #1E1E1A",
"#.	c #46453B",
"$.	c #807F6C",
"%.	c #A6A58D",
"&.	c #92907C",
"*.	c #B7B6A2",
"=.	c #BAB8A2",
"-.	c #B0AE95",
";.	c #ACAA92",
">.	c #999882",
",.	c #4A493E",
"'.	c #444444",
").	c #89887E",
"!.	c #CFCDB8",
"~.	c #DDDBC5",
"{.	c #E4E2CF",
"].	c #E1DFCE",
"^.	c #CAC8B8",
"/.	c #AFAD9F",
"(.	c #929083",
"_.	c #787669",
":.	c #676658",
"<.	c #58564A",
"[.	c #49473D",
"}.	c #444339",
"|.	c #535247",
"1.	c #7D7B6A",
"2.	c #95937F",
"3.	c #B3B19C",
"4.	c #B7B59E",
"5.	c #B7B59C",
"6.	c #B4B399",
"7.	c #B3B198",
"8.	c #A3A18A",
"9.	c #4F4E43",
"0.	c #86847C",
"a.	c #E0DECD",
"b.	c #E8E6D6",
"c.	c #E4E2D1",
"d.	c #E5E3D2",
"e.	c #E6E4D4",
"f.	c #E2E0D0",
"g.	c #C9C7BA",
"h.	c #BAB9AC",
"i.	c #B1AFA1",
"j.	c #A6A494",
"k.	c #918F7E",
"l.	c #848371",
"m.	c #82806E",
"n.	c #8A8A76",
"o.	c #8C8A76",
"p.	c #94937E",
"q.	c #BCBAA2",
"r.	c #B8B69D",
"s.	c #BAB99F",
"t.	c #BBBAA0",
"u.	c #B2B097",
"v.	c #9D9B85",
"w.	c #4B4A40",
"x.	c #6A6960",
"y.	c #DAD8C8",
"z.	c #EAE9E0",
"A.	c #E9E8DC",
"B.	c #E9E8DB",
"C.	c #ECEADD",
"D.	c #F4F2E3",
"E.	c #E0DFD1",
"F.	c #DADACB",
"G.	c #D9D8C9",
"H.	c #D3D2C2",
"I.	c #C6C4B0",
"J.	c #C1BFA8",
"K.	c #BFBDA4",
"L.	c #B6B49C",
"M.	c #BFBDA3",
"N.	c #C3C1A8",
"O.	c #C0BEA6",
"P.	c #BCB9A3",
"Q.	c #A2A089",
"R.	c #8C8A77",
"S.	c #ADAB97",
"T.	c #B6B4AD",
"U.	c #EAE8E2",
"V.	c #FCFBF4",
"W.	c #FCFCF4",
"X.	c #FBFAF0",
"Y.	c #EEECE1",
"Z.	c #E5E4D6",
"`.	c #E2E0D2",
" +	c #E3E2D3",
".+	c #E1DFCC",
"++	c #DFDCC8",
"@+	c #D8D6C0",
"#+	c #C7C5AC",
"$+	c #C2C0A5",
"%+	c #C4C2A8",
"&+	c #CFCDB5",
"*+	c #E2DFCB",
"=+	c #D6D4C3",
"-+	c #C6C4B4",
";+	c #ABA898",
">+	c #7C7A69",
",+	c #747262",
"'+	c #383830",
")+	c #A2A18B",
"!+	c #B1AF9A",
"~+	c #C6C4B9",
"{+	c #D7D6CE",
"]+	c #E4E3DC",
"^+	c #EAEAE2",
"/+	c #F4F3EB",
"(+	c #F7F6EE",
"_+	c #F7F6EC",
":+	c #F5F4E9",
"<+	c #F2F0E5",
"[+	c #EBEADD",
"}+	c #E7E5D6",
"|+	c #E1DFCF",
"1+	c #D8D6C5",
"2+	c #C8C7B5",
"3+	c #ADAB98",
"4+	c #969582",
"5+	c #838271",
"6+	c #727060",
"7+	c #6F6E5E",
"8+	c #37362E",
"9+	c #44433A",
"0+	c #8E8D78",
"a+	c #A1A088",
"b+	c #ACAB99",
"c+	c #BCBAAB",
"d+	c #CAC9BC",
"e+	c #D4D4C9",
"f+	c #E1E0D6",
"g+	c #E8E7DE",
"h+	c #E9E8DF",
"i+	c #E3E2D9",
"j+	c #DFDED4",
"k+	c #DBDACD",
"l+	c #D8D6C8",
"m+	c #CCCABA",
"n+	c #C0BEAE",
"o+	c #B4B2A1",
"p+	c #A6A592",
"q+	c #979581",
"r+	c #858471",
"s+	c #757464",
"t+	c #6A685A",
"u+	c #676657",
"v+	c #33322B",
"w+	c #31312A",
"x+	c #666658",
"y+	c #909080",
"z+	c #9C9B86",
"A+	c #ACAA95",
"B+	c #BAB9A6",
"C+	c #C4C2B3",
"D+	c #CCCBBD",
"E+	c #D3D1C4",
"F+	c #D4D2C6",
"G+	c #CECCC2",
"H+	c #C8C7BC",
"I+	c #C0BFAF",
"J+	c #B9B7A4",
"K+	c #B8B5A0",
"L+	c #A9A690",
"M+	c #9A9883",
"N+	c #8F8D79",
"O+	c #898874",
"P+	c #888673",
"Q+	c #6C6B5D",
"R+	c #605F54",
"S+	c #4E4D43",
"T+	c #282722",
"U+	c #222222",
"V+	c #898989",
"W+	c #949383",
"X+	c #AAA898",
"Y+	c #BDBBAF",
"Z+	c #C2C1B1",
"`+	c #CCCCBB",
" @	c #D0CFBE",
".@	c #D3D1C1",
"+@	c #D8D7C6",
"@@	c #CAC9B9",
"#@	c #BCBAA6",
"$@	c #B1AF96",
"%@	c #A6A48C",
"&@	c #94927E",
"*@	c #807F6D",
"=@	c #767564",
"-@	c #626153",
";@	c #515048",
">@	c #505050",
",@	c #141414",
"'@	c #181816",
")@	c #616156",
"!@	c #585751",
"~@	c #52514D",
"{@	c #686865",
"]@	c #B4B4B0",
"^@	c #B1AFA0",
"/@	c #B2B09B",
"(@	c #B6B49F",
"_@	c #BCBAA8",
":@	c #B4B2A0",
"<@	c #A19F89",
"[@	c #96947F",
"}@	c #78776A",
"|@	c #787874",
"1@	c #34332F",
"2@	c #42423A",
"3@	c #10100E",
"4@	c #191914",
"5@	c #626251",
"6@	c #505046",
"7@	c #46463E",
"8@	c #505048",
"9@	c #777772",
"0@	c #76766D",
"a@	c #77766B",
"b@	c #717064",
"c@	c #5A584F",
"d@	c #78776E",
"e@	c #6A695E",
"f@	c #4E4D42",
"g@	c #46463C",
"h@	c #3E3E37",
"i@	c #545450",
"j@	c #32322C",
"k@	c #21211B",
"l@	c #24241E",
"m@	c #3E3E33",
"n@	c #10100D",
"o@	c #1D1D18",
"p@	c #73735F",
"q@	c #5F5E4E",
"r@	c #5E5E4E",
"s@	c #48483B",
"t@	c #52524C",
"u@	c #43433F",
"v@	c #141410",
"w@	c #50504C",
"x@	c #3F3F3B",
"y@	c #181814",
"z@	c #161612",
"A@	c #171713",
"B@	c #35352C",
"C@	c #434337",
"D@	c #3A3A2F",
"E@	c #444438",
"F@	c #11110E",
"G@	c #1E1E19",
"H@	c #7A7A65",
"I@	c #636352",
"J@	c #707060",
"K@	c #7C7C6B",
"L@	c #7B7B6A",
"M@	c #7C7C6C",
"N@	c #515042",
"O@	c #747264",
"P@	c #747464",
"Q@	c #60604F",
"R@	c #404035",
"S@	c #5A5A4A",
"T@	c #5B5B4B",
"U@	c #4E4E40",
"V@	c #4F4F41",
"W@	c #3B3B31",
"X@	c #515143",
"Y@	c #141411",
"Z@	c #82826C",
"`@	c #666554",
" #	c #787766",
".#	c #888776",
"+#	c #696856",
"@#	c #888879",
"##	c #858577",
"$#	c #6E6D60",
"%#	c #4F4E40",
"&#	c #7A7A6D",
"*#	c #808070",
"=#	c #6A6959",
"-#	c #424236",
";#	c #595949",
">#	c #5C5C4C",
",#	c #525243",
"'#	c #3C3C32",
")#	c #4B4B3E",
"!#	c #424237",
"~#	c #535344",
"{#	c #151511",
"]#	c #21211C",
"^#	c #85856E",
"/#	c #666654",
"(#	c #848472",
"_#	c #9C9B88",
":#	c #6B6A58",
"<#	c #979788",
"[#	c #9D9C8E",
"}#	c #838275",
"|#	c #818174",
"1#	c #8D8D7E",
"2#	c #777667",
"3#	c #585849",
"4#	c #606050",
"5#	c #3E3E34",
"6#	c #555546",
"7#	c #4C4C3F",
"8#	c #454539",
"9#	c #5F5F4E",
"0#	c #8D8D7A",
"a#	c #AAA995",
"b#	c #A6A594",
"c#	c #B7B6A6",
"d#	c #9D9D8D",
"e#	c #5A594A",
"f#	c #919081",
"g#	c #A09F8F",
"h#	c #868676",
"i#	c #46463A",
"j#	c #6A6A58",
"k#	c #565648",
"l#	c #4D4D3F",
"m#	c #1A1A16",
"n#	c #898976",
"o#	c #A4A48F",
"p#	c #B1B09C",
"q#	c #C8C7B2",
"r#	c #BABAA4",
"s#	c #979782",
"t#	c #545445",
"u#	c #787864",
"v#	c #7A7A66",
"w#	c #A5A48F",
"x#	c #B1B19D",
"y#	c #C8C8B3",
"z#	c #878673",
"A#	c #A1A08B",
"B#	c #B1B09D",
"C#	c #656553",
"D#	c #858572",
"E#	c #9E9E89",
"F#	c #676756",
"G#	c #1A1A15",
"H#	c #1F1F19",
"I#	c #7B7B65",
"J#	c #4A4A3D",
"K#	c #5F5F4F",
"L#	c #1B1B16",
"M#	c #6B6B58",
"N#	c #4C4C3E",
"O#	c #59594A",
"P#	c #33332A",
"Q#	c #504F41",
"R#	c #7A7967",
"S#	c #8E8E79",
"T#	c #6A6957",
"U#	c #BABAA6",
"V#	c #A8A794",
"W#	c #6C6C59",
"X#	c #B2B29D",
"Y#	c #BBBBA5",
"Z#	c #787865",
"`#	c #535345",
" $	c #404034",
".$	c #2C2C24",
"+$	c #34342B",
"@$	c #504F42",
"#$	c #5A5A4B",
"$$	c #828272",
"%$	c #969685",
"&$	c #8C8C7B",
"*$	c #656554",
"=$	c #A1A18D",
"-$	c #A8A892",
";$	c #888874",
">$	c #525244",
",$	c #6D6D5B",
"'$	c #6B6B59",
")$	c #313128",
"!$	c #3D3D32",
"~$	c #3A3A30",
"{$	c #292922",
"]$	c #38382E",
"^$	c #565647",
"/$	c #4E4E41",
"($	c #49493C",
"_$	c #37372D",
":$	c #13130F",
"<$	c #12120F",
"[$	c #0F0F0D",
"                        . . . . . . . . .                       ",
"                        + @ # $ % & * = -                       ",
"                      & ; > , ' ) ! ~ { & .                     ",
"              . . ] ^ / ( _ : < [ } | 1 2 3 4 5 . .             ",
"          6 7 8 9 0 a b c d e f g h i j k l m n o p q r         ",
"        s ^ t u v w x y z A B C D E F G H I J K L M N O P       ",
"      . Q R S T U V W X Y Z `  ...+.@.#.$.%.&.*.=.-.;.>.,..     ",
"      '.).!.S ~.{.].^./.(._.:.<.[.}.|.:.1.2.3.4.5.6.7.8.9..     ",
"      * 0.a.b.c.d.e.f.g.h.i.j.k.l.m.n.o.p.I q.r.s.t.u.v.w..     ",
"      . x.y.z.A.B.C.D.E.F.G.H.I.J.K.L.;.7.M.N.O.J.P.Q.R.B .     ",
"      . Q S.T.U.V.W.X.Y.Z.`. +.+++@+#+$+%+&+*+=+-+;+>+,+'+.     ",
"      . 9.)+!+~+{+]+^+/+(+(+(+_+:+<+[+}+|+1+2+3+4+5+6+7+8+.     ",
"      . 9+0+a+b+c+d+e+f+g+h+]+i+j+k+l+m+n+o+p+q+r+s+t+u+v+.     ",
"      . w+x+y+z+A+B+C+D+E+F+G+H+I+J+K+L+M+N+O+P+>+Q+R+S+T+.     ",
"        . U+V+W+X+Y+Z+`+ @.@+@@@#@$@$@$@%@&@*@=@-@;@>@,@.       ",
"        . '@)@!@~@{@]@^@/@(@_@:@A+<@&.[@P+}@|@1@5 r 2@3@.       ",
"        . 4@5@6@7@8@9@0@a@b@c@d@e@f@9+g@D h@i@j@k@l@m@n@.       ",
"        . o@p@q@r@r@s@t@i@u@v@w@x@y@n@z@A@o@B@s@C@D@E@F@.       ",
"        . G@H@I@J@K@5@L@M@Y N@O@P@Q@R@S@T@U@m@V@E@W@X@Y@.       ",
"        . k@Z@`@ #.#+#@###$#%#&#*#=#-#;#>#,#'#)#!#'#~#{#.       ",
"        . ]#^#/#(#_#:#<#[#}#N@|#1#2#!#3#4#3#5#6#7#8#9#y@.       ",
"        . ]#^#/#0#a#:#b#c#d#e#f#g#h#i#4#j#4#-#4#k#l#j#m#.       ",
"        . ]#^#/#n#o#:#p#q#p#:#p#r#s#t#u#v#/#C@4#k#l#j#m#.       ",
"        . ]#^#/#n#w#:#x#y#p#:#p#r#s#t#u#v#/#C@4#k#l#j#m#.       ",
"        . ]#^#/#z#A#:#B#y#p#:#p#r#s#t#u#v#/#C@4#k#l#j#m#.       ",
"        . k@Z@C#D#E#:#p#q#p#:#p#r#s#t#u#v#/#C@4#k#7#F#G#.       ",
"        . H#I#I@n#o#:#p#q#p#:#p#r#s#t#u#v#/#C@4#k#J#K#y@.       ",
"        . L#M#9#n#o#:#p#q#p#:#p#r#s#t#u#v#/#C@4#;#N#O#z@.       ",
"          Y@P#Q#R#S#T#p+U#V#W#X#Y#s#t#u#Z#5@-#3#`# $.$F@        ",
"            . +$@$#$U@$$%$&$*$=$-$;$>$,$'$6#)$!$~${$.           ",
"              . . . . ]$X@^$U@j#j#>#/$J#($_$. . . .             ",
"                    . n@Y@] v@L#L#A@v@:$<$[$.                   "};
