/* XPM */
static const char * ICON_ROTATE_CCW_xpm[] = {
"32 32 292 2",
"  	c None",
". 	c #000000",
"+ 	c #121F2E",
"@ 	c #2A4C6E",
"# 	c #345D87",
"$ 	c #3D6D9D",
"% 	c #30567D",
"& 	c #25425F",
"* 	c #0A1219",
"= 	c #030609",
"- 	c #294A6C",
"; 	c #5091D1",
"> 	c #5EA9F4",
", 	c #5EA8F3",
"' 	c #5DA7F1",
") 	c #5CA5EE",
"! 	c #5BA4EC",
"~ 	c #5AA1E9",
"{ 	c #447BB1",
"] 	c #1A2E43",
"^ 	c #203952",
"/ 	c #569ADF",
"( 	c #60ABF7",
"_ 	c #5FABF7",
": 	c #5FABF6",
"< 	c #5FAAF5",
"[ 	c #5CA6F0",
"} 	c #5BA3EC",
"| 	c #5AA2EA",
"1 	c #59A0E8",
"2 	c #4379AF",
"3 	c #0D1721",
"4 	c #2B4C6E",
"5 	c #60ABF8",
"6 	c #61ADFA",
"7 	c #60ACF9",
"8 	c #60ACF7",
"9 	c #5FAAF6",
"0 	c #5DA8F2",
"a 	c #5BA5EE",
"b 	c #5AA3EB",
"c 	c #59A1E9",
"d 	c #589FE7",
"e 	c #5192D3",
"f 	c #152536",
"g 	c #264563",
"h 	c #61AEFB",
"i 	c #66B1FB",
"j 	c #6BB3FB",
"k 	c #67B1FB",
"l 	c #5599DD",
"m 	c #5CA6EF",
"n 	c #5DA7F2",
"o 	c #5BA4ED",
"p 	c #589EE5",
"q 	c #5397DA",
"r 	c #101D2A",
"s 	c #152637",
"t 	c #5FA9F4",
"u 	c #63AFFB",
"v 	c #7893AC",
"w 	c #88B8E6",
"x 	c #80BDF9",
"y 	c #6795C4",
"z 	c #B4BDC5",
"A 	c #DBE0E5",
"B 	c #EBF2F9",
"C 	c #E7EFF7",
"D 	c #D1DAE2",
"E 	c #A7BBCF",
"F 	c #5DA4EA",
"G 	c #589FE6",
"H 	c #579DE3",
"I 	c #4B88C5",
"J 	c #060B11",
"K 	c #020305",
"L 	c #5193D3",
"M 	c #70B5FA",
"N 	c #E3E7EC",
"O 	c #F0F6FA",
"P 	c #9AB8D6",
"Q 	c #94A0AB",
"R 	c #F0F4F8",
"S 	c #F3F8FD",
"T 	c #F2F7FD",
"U 	c #F0F7FC",
"V 	c #ECF4FC",
"W 	c #EAF3FC",
"X 	c #E8F2FB",
"Y 	c #E0EAF3",
"Z 	c #7FA8D1",
"` 	c #58A0E7",
" .	c #579EE4",
"..	c #569CE1",
"+.	c #355F8A",
"@.	c #2C4E70",
"#.	c #68B2FB",
"$.	c #7BBBFA",
"%.	c #E3E7EB",
"&.	c #F5F9FD",
"*.	c #F6FAFD",
"=.	c #F4F9FD",
"-.	c #F2F8FD",
";.	c #EEF5FC",
">.	c #E9F3FB",
",.	c #E7F1FB",
"'.	c #E4F0FB",
").	c #A7C1DA",
"!.	c #59A0E7",
"~.	c #579EE5",
"{.	c #569CE2",
"].	c #5599DE",
"^.	c #12202F",
"/.	c #010102",
"(.	c #579CE1",
"_.	c #61AEFA",
":.	c #6DB4FB",
"<.	c #82BEF9",
"[.	c #E3E6EA",
"}.	c #F7FAFD",
"|.	c #F8FBFE",
"1.	c #F9FBFE",
"2.	c #F7FBFD",
"3.	c #F0F6FC",
"4.	c #E5F0FB",
"5.	c #E3EFFA",
"6.	c #7EAEDE",
"7.	c #559ADF",
"8.	c #386592",
"9.	c #16283A",
"0.	c #60ACF8",
"a.	c #6EB4FB",
"b.	c #83BEF9",
"c.	c #FAFCFE",
"d.	c #FCFDFE",
"e.	c #FBFDFE",
"f.	c #F5F8FA",
"g.	c #BAD6F3",
"h.	c #78B9FA",
"i.	c #68B1F8",
"j.	c #B1C9E0",
"k.	c #EBF3FB",
"l.	c #DDE9F4",
"m.	c #60A3E6",
"n.	c #5091D3",
"o.	c #030507",
"p.	c #30567C",
"q.	c #6AB3FB",
"r.	c #7EBCF9",
"s.	c #FEFEFE",
"t.	c #FDFDFE",
"u.	c #F8F9FB",
"v.	c #92B5D7",
"w.	c #6CB3FB",
"x.	c #7DABD8",
"y.	c #E6F1FB",
"z.	c #E1EEFA",
"A.	c #A7C6E4",
"B.	c #5498DC",
"C.	c #152638",
"D.	c #3A6896",
"E.	c #60ADF9",
"F.	c #75B7FA",
"G.	c #FBFCFE",
"H.	c #F6F9FC",
"I.	c #89B7E5",
"J.	c #61ADF9",
"K.	c #ABBBCA",
"L.	c #E6F0FB",
"M.	c #E0EEFA",
"N.	c #C8D9E8",
"O.	c #1E374F",
"P.	c #4378AD",
"Q.	c #F8FAFD",
"R.	c #F9FBFD",
"S.	c #F7FAFC",
"T.	c #F5F8FB",
"U.	c #F2F6F9",
"V.	c #A9CEF2",
"W.	c #5EA9F3",
"X.	c #6796C7",
"Y.	c #E0EDFA",
"Z.	c #DCE9F5",
"`.	c #569BE1",
" +	c #5398DC",
".+	c #264564",
"++	c #4073A6",
"@+	c #72B6FA",
"#+	c #65B0FB",
"$+	c #5899DA",
"%+	c #E2EFFA",
"&+	c #DEECFA",
"*+	c #559BE0",
"=+	c #5499DE",
"-+	c #5397DB",
";+	c #24415F",
">+	c #37628D",
",+	c #5EA9F5",
"'+	c #5EAAF5",
")+	c #5D85AD",
"!+	c #E4EFFB",
"~+	c #DFEDFA",
"{+	c #D8E4F2",
"]+	c #5498DD",
"^+	c #1C3249",
"/+	c #294A6B",
"(+	c #5CA5EF",
"_+	c #A5B0BA",
":+	c #BFD4E9",
"<+	c #559ADE",
"[+	c #5296D9",
"}+	c #0D1822",
"|+	c #5DA7F0",
"1+	c #608AB3",
"2+	c #C4CCD3",
"3+	c #A2B6C9",
"4+	c #5EA3E9",
"5+	c #5B7A99",
"6+	c #E4EFFA",
"7+	c #DDECFA",
"8+	c #91BDE9",
"9+	c #5499DD",
"0+	c #4985C0",
"a+	c #000101",
"b+	c #4B87C3",
"c+	c #5AA0E5",
"d+	c #E3E9EF",
"e+	c #EDF5FC",
"f+	c #E7EDF4",
"g+	c #83A0BF",
"h+	c #5593D2",
"i+	c #569BDF",
"j+	c #4C7FB2",
"k+	c #8C9AA7",
"l+	c #D3E2F0",
"m+	c #5296DA",
"n+	c #2F557C",
"o+	c #1C3248",
"p+	c #619DDB",
"q+	c #EAF3FB",
"r+	c #E3EDF6",
"s+	c #DFECFA",
"t+	c #70AAE4",
"u+	c #4E8ECE",
"v+	c #091017",
"w+	c #4175A9",
"x+	c #5AA2EB",
"y+	c #BDCBD9",
"z+	c #E7F2FB",
"A+	c #9BC1E7",
"B+	c #274666",
"C+	c #97B8D9",
"D+	c #E5EFF8",
"E+	c #DEEDFA",
"F+	c #D9E7F4",
"G+	c #72ACE4",
"H+	c #5397DC",
"I+	c #3C6E9F",
"J+	c #010203",
"K+	c #142433",
"L+	c #5599DF",
"M+	c #63A3E5",
"N+	c #B3C9E0",
"O+	c #CFDCE9",
"P+	c #DFEAF3",
"Q+	c #E4EFF9",
"R+	c #DBE7F3",
"S+	c #C5D8EB",
"T+	c #A1C6EC",
"U+	c #579BDF",
"V+	c #4680BA",
"W+	c #060B10",
"X+	c #132231",
"Y+	c #4F90D0",
"Z+	c #386694",
"`+	c #05090E",
" @	c #0A121A",
".@	c #559AE0",
"+@	c #4A88C5",
"@@	c #203953",
"#@	c #0F1C28",
"$@	c #325B85",
"%@	c #4C8AC8",
"&@	c #5295D8",
"*@	c #3E70A3",
"=@	c #244260",
"-@	c #04070A",
";@	c #0C151F",
">@	c #1D344C",
",@	c #192D41",
"'@	c #101E2C",
")@	c #05090D",
"                                                                ",
"                                                                ",
"                        . . . . . . . . .                       ",
"                    . . . . . . . . . . . . .                   ",
"                . . . . . + @ # $ % & * . . . . .               ",
"              . . . = - ; > > , ' ) ! ~ { ] . . . .             ",
"            . . . ^ / ( ( _ : < > [ ) } | 1 2 3 . . .           ",
"          . . . 4 5 6 6 6 6 7 8 9 0 [ a b c d e f . . .         ",
"        . . . g 6 h i j j k h 6 l m n m o | 1 p q r . . .       ",
"        . . s t u v w x x y z A B C D E F b c G H I J . .       ",
"      . . K L h M N O P Q R S T U V W X Y Z c `  ...+.. . .     ",
"      . . @.6 #.$.%.&.*.*.*.&.=.-.;.V >.,.'.).!.~.{.].^.. .     ",
"    . . /.(._.:.<.[.}.|.1.1.2.*.=.3.V W X 4.5.6.~.{.7.8.. . .   ",
"    . . 9.0._.a.b.|.c.d.e.f.g.h.h i.j.k.X 4.5.l.m.{.7.n.o.. .   ",
"    . . p.( 6 q.r.1.e.s.t.u.v.w._.0.< x.X y.5.z.A.{.7.B.C.. .   ",
"    . . D._ E.u F.|.G.d.d.c.H.I.J._ > n K.L.5.M.N.{.7.B.O.. .   ",
"    . . P.9 0._.k Q.R.R.S.T.U.V.0.9 W.' X.4.5.Y.Z.`.]. +.+. .   ",
"    . . ++> : 0._.:.@+@+:.#+_.7 _ > 0 [ $+4.%+Y.&+*+=+-+;+. .   ",
"    . . >+, ,+: 0._.h h _.6 0._ '+, ' ) )+!+z.~+{+7.]+q ^+. .   ",
"    . . /+' , > 9 0.0.0.0.( 9 > , ' (+b _+5.M.&+:+<+ +[+r . .   ",
"    . . }+(+|+0 W.< 1+2+3+4+W.0 ' (+o 5+6+z.~+7+8+9+-+0+a+. .   ",
"    . . . b+) [ ' c+d+e+e+f+g+h+i+j+k+6+%+Y.&+l+].B.m+n+. . .   ",
"      . . o+} o ) p+q+W W q+>.X r+y.'.%+M.~+s+t+]+-+u+v+. .     ",
"      . . w+x+} o o y+X X z+,.y.4.!+%+M.~+Y.A+9+-+[+B+. . .     ",
"        . v+; c | | x+C+D+4.'.!+5.z.Y.E+F+G+=+H+m+I+J+. .       ",
"        . . K+L+` 1 1 1 M+N+O+P+Q+R+S+T+U+9+H+m+V+W+. . .       ",
"          . . X+Y+~.p p ~.~. .H {.`.*+<+]+-+m+Z+`+. . .         ",
"          . . .  @8.`.{.{.{...`..@7.9+B.-++@@@. . . .           ",
"            . . . . #@$@%@7.7.=+9+B.&@*@=@-@. . . .             ",
"              . . . . . . ;@s >@,@'@)@. . . . . .               ",
"                  . . . . . . . . . . . . . .                   ",
"                      . . . . . . . . .                         "};
