/* XPM */
static const char * ICON_RIGHT_xpm[] = {
"32 32 282 2",
"  	c None",
". 	c #000000",
"+ 	c #020406",
"@ 	c #172A3C",
"# 	c #223D58",
"$ 	c #2B4D6F",
"% 	c #29496A",
"& 	c #1F3851",
"* 	c #12202F",
"= 	c #000101",
"- 	c #111F2C",
"; 	c #3D6E9F",
"> 	c #59A1E8",
", 	c #5FABF7",
"' 	c #5FAAF6",
") 	c #5FAAF5",
"! 	c #5EA9F3",
"~ 	c #5DA7F2",
"{ 	c #5CA6F0",
"] 	c #5293D4",
"^ 	c #345D86",
"/ 	c #091017",
"( 	c #05090D",
"_ 	c #386490",
": 	c #5FABF6",
"< 	c #61ADFA",
"[ 	c #61ADF9",
"} 	c #60ACF8",
"| 	c #60ABF7",
"1 	c #5EA9F4",
"2 	c #5DA8F2",
"3 	c #5BA4EE",
"4 	c #559ADE",
"5 	c #274665",
"6 	c #0D1721",
"7 	c #5091D0",
"8 	c #61AEFB",
"9 	c #63AFFB",
"0 	c #68B1FB",
"a 	c #69B2FB",
"b 	c #65B0FB",
"c 	c #5DA7F1",
"d 	c #5CA5EF",
"e 	c #5BA4ED",
"f 	c #5AA2EA",
"g 	c #3E6FA1",
"h 	c #101C29",
"i 	c #59A0E6",
"j 	c #6CB4FB",
"k 	c #77B8FA",
"l 	c #7DBBF9",
"m 	c #7DBCF9",
"n 	c #79B9FA",
"o 	c #70B5FA",
"p 	c #5EA8F3",
"q 	c #5DA6F0",
"r 	c #5BA5EE",
"s 	c #5AA3EB",
"t 	c #59A1E9",
"u 	c #4984BE",
"v 	c #050A0E",
"w 	c #0A121A",
"x 	c #5598DC",
"y 	c #6DB4FB",
"z 	c #89C1F9",
"A 	c #91C5F8",
"B 	c #92C5F8",
"C 	c #8CC3F8",
"D 	c #80BDF9",
"E 	c #72B6FA",
"F 	c #60ADF9",
"G 	c #5BA3EC",
"H 	c #589FE7",
"I 	c #4074A9",
"J 	c #020304",
"K 	c #4175AA",
"L 	c #64B0FB",
"M 	c #78B9FA",
"N 	c #8AC1F8",
"O 	c #9AC9F7",
"P 	c #A6CEF6",
"Q 	c #A7CFF6",
"R 	c #9ECBF7",
"S 	c #5F7389",
"T 	c #C7CED4",
"U 	c #BECDDB",
"V 	c #6AB2FA",
"W 	c #5EAAF5",
"X 	c #5CA6EF",
"Y 	c #58A0E7",
"Z 	c #579EE4",
"` 	c #264563",
" .	c #60AAF6",
"..	c #6AB3FB",
"+.	c #7FBCF9",
"@.	c #93C6F8",
"#.	c #B8D7F5",
"$.	c #BBD8F5",
"%.	c #96B7D7",
"&.	c #C8CDD0",
"*.	c #EFF6FC",
"=.	c #ECF4FC",
"-.	c #E0E9F1",
";.	c #68B1F8",
">.	c #59A0E7",
",.	c #579EE5",
"'.	c #4E8DCC",
").	c #030508",
"!.	c #3C6C9C",
"~.	c #6BB3FB",
"{.	c #95C7F8",
"].	c #AAD0F6",
"^.	c #BEDAF5",
"/.	c #C4DCF4",
"(.	c #ACD0F2",
"_.	c #BFC4C8",
":.	c #F2F8FD",
"<.	c #DFE8F1",
"[.	c #68AFF5",
"}.	c #569CE2",
"|.	c #213B56",
"1.	c #59A0E8",
"2.	c #7CBBFA",
"3.	c #8FC4F8",
"4.	c #A1CCF7",
"5.	c #AFD3F6",
"6.	c #B1D4F6",
"7.	c #90B5DD",
"8.	c #EEF1F4",
"9.	c #F2F7FD",
"0.	c #EEF5FC",
"a.	c #EAF3FB",
"b.	c #DEE7F1",
"c.	c #66ADF3",
"d.	c #3B6B9B",
"e.	c #1A2F44",
"f.	c #73B7FA",
"g.	c #84BFF9",
"h.	c #9BCAF7",
"i.	c #9DCAF7",
"j.	c #88C0F9",
"k.	c #77AADC",
"l.	c #EAEFF3",
"m.	c #EBF3FC",
"n.	c #E7F1FB",
"o.	c #DBE6F0",
"p.	c #65AAF0",
"q.	c #5BA4EC",
"r.	c #569CE1",
"s.	c #5295D7",
"t.	c #010203",
"u.	c #264463",
"v.	c #66B1FB",
"w.	c #659FD9",
"x.	c #608EBB",
"y.	c #6590BB",
"z.	c #6690BB",
"A.	c #628EBB",
"B.	c #5A8BBB",
"C.	c #4F86BC",
"D.	c #4E78A1",
"E.	c #E5EBEF",
"F.	c #E6F1FB",
"G.	c #E2EFFA",
"H.	c #D8E4F0",
"I.	c #63A8ED",
"J.	c #589FE6",
"K.	c #579DE4",
"L.	c #569BE1",
"M.	c #5599DE",
"N.	c #080F16",
"O.	c #2F557B",
"P.	c #6E8FB0",
"Q.	c #E7ECF3",
"R.	c #F0F7FC",
"S.	c #F4F8FD",
"T.	c #F7FAFD",
"U.	c #F8FBFE",
"V.	c #F4F9FD",
"W.	c #F1F7FD",
"X.	c #EDF5FC",
"Y.	c #E2EEFA",
"Z.	c #DEECFA",
"`.	c #C8DCEE",
" +	c #589FE5",
".+	c #579DE3",
"++	c #559BE0",
"@+	c #5499DE",
"#+	c #111E2C",
"$+	c #2F557A",
"%+	c #C6CFD9",
"&+	c #F3F8FD",
"*+	c #E8F2FB",
"=+	c #E4F0FB",
"-+	c #E1EEFA",
";+	c #DDECFA",
">+	c #D0E0F1",
",+	c #559ADF",
"'+	c #5498DD",
")+	c #254361",
"!+	c #5CA5EE",
"~+	c #98B5D3",
"{+	c #E9F2FB",
"]+	c #E3ECF4",
"^+	c #E5EDF4",
"/+	c #E6EEF4",
"(+	c #E7EEF4",
"_+	c #E6EDF4",
":+	c #E8F1F9",
"<+	c #DFEDFA",
"[+	c #DDECF9",
"}+	c #9EC6EB",
"|+	c #5398DC",
"1+	c #080F15",
"2+	c #192E42",
"3+	c #72B4F5",
"4+	c #5EA9F5",
"5+	c #748798",
"6+	c #E3EFFB",
"7+	c #E0EDFA",
"8+	c #A3C8EB",
"9+	c #559AE0",
"0+	c #5499DD",
"a+	c #5091D2",
"b+	c #030507",
"c+	c #5CA7F0",
"d+	c #697D91",
"e+	c #E5F0FA",
"f+	c #E3EFFA",
"g+	c #E0EEFA",
"h+	c #A6C8EB",
"i+	c #589EE5",
"j+	c #376491",
"k+	c #396794",
"l+	c #5AA3EC",
"m+	c #5E7893",
"n+	c #E3EEF9",
"o+	c #A7C9EB",
"p+	c #5397DA",
"q+	c #1B3147",
"r+	c #599FE7",
"s+	c #5AA2EB",
"t+	c #C7D0D9",
"u+	c #DEECF9",
"v+	c #A9CAEA",
"w+	c #5397DB",
"x+	c #4680BA",
"y+	c #3C6D9E",
"z+	c #AAB9C6",
"A+	c #DBEAF9",
"B+	c #AACAEA",
"C+	c #5296D9",
"D+	c #0A1119",
"E+	c #4E8ECD",
"F+	c #5BA2E7",
"G+	c #92B8DD",
"H+	c #7CB4EB",
"I+	c #5296DA",
"J+	c #386694",
"K+	c #010102",
"L+	c #5294D7",
"M+	c #4075A9",
"N+	c #030608",
"O+	c #0E1A25",
"P+	c #4B86C3",
"Q+	c #35608C",
"R+	c #060B10",
"S+	c #355F8A",
"T+	c #4C8AC9",
"U+	c #203B56",
"V+	c #376492",
"W+	c #5090D2",
"X+	c #5498DC",
"Y+	c #4883BF",
"Z+	c #2D5277",
"`+	c #060C11",
" @	c #152536",
".@	c #1E364F",
"+@	c #264564",
"@@	c #24415F",
"#@	c #1C3249",
"$@	c #101D2A",
"                                                                ",
"                        . . . . . . .                           ",
"                  . . . . . . . . . . . . .                     ",
"              . . . . . + @ # $ % & * = . . . .                 ",
"            . . . . - ; > , ' ) ! ~ { ] ^ / . . .               ",
"          . . . ( _ : < < [ } | ' 1 2 { 3 4 5 = . . .           ",
"        . . . 6 7 8 9 0 a b 8 [ } ' 1 c d e f g ( . .           ",
"      . . . h i 8 j k l m n o 9 < } ) p q r s t u v . .         ",
"      . . w x 8 y l z A B C D E 8 F : 1 c d G t H I J . .       ",
"    . . . K [ L M N O P Q R S T U V | W 2 X e f Y Z ` . .       ",
"    . . *  .< ..+.@.Q #.$.%.&.*.=.-.;.) 2 { e f >.,.'.).. .     ",
"    . . !.| < ~.D {.].^./.(._.:.*.=.<.[.p { e f >.,.}.|.. .     ",
"  . . ).1., < 0 2.3.4.5.6.P 7.8.9.0.a.b.c.{ e f >.,.}.d.. .     ",
"  . . e.1 : F 8 f.g.B h.i.{.j.k.l.*.m.n.o.p.q.f Y Z r.s.t.. .   ",
"  . . u.p ) } < v.w.x.y.z.A.B.C.D.E.m.F.G.H.I.t J.K.L.M.N.. .   ",
"  . . O.c 1 : } P.Q.R.S.T.U.T.V.W.X.a.F.Y.Z.`.1. +.+++@+#+. .   ",
"  . . $+{ 2 1 : %+m.0.W.&+V.&+W.*.=.*+=+-+;+>+Y ,.}.,+'+#+. .   ",
"  . . )+!+q 2 1 ~+{+]+^+/+(+_+^+]+:+F.G.<+[+}+J..+L.M.|+1+. .   ",
"  . . 2+q.!+{ 2 p 3+) ) ' ) 4+c 5+F.6+7+<+8+H Z }.9+0+a+t.. .   ",
"  . . b+,+q.!+X c ~ 2 p p p c+d+e+f+g+7+h+Y i+.+L.M.|+j+. . .   ",
"  . . . k+f l+e !+d { { { { m+n+-+<+<+o+Y i+.+L.,+'+p+q+. .     ",
"    . . - r+t s+l+q.e e e e t+<+Z.u+v+Y i+.+r.,+0+w+x+t.. .     ",
"    . . . y+Y 1.t f f f s+f z+A+;+B+J.Z .+L.,+0+w+C+& . . .     ",
"      . . D+E+ +J.Y >.1.1.1.F+G+H+,..+}.L.,+0+w+I+J+K+. .       ",
"      . . . - L+K.Z ,.,.i+,.Z K..+}.L.9+M.'+w+C+M+N+. .         ",
"        . . . O+P+}.}.}.}.}.}.L.++9+4 0+|+w+C+Q+N+. . .         ",
"          . . . R+S+M.,+,+,+,+4 @+'+|+w+I+T+U+. . . .           ",
"            . . . . * V+W+'+X+|+w+p+C+Y+Z+`+. . . .             ",
"              . . . . . +  @.@+@@@#@$@. . . . . .               ",
"                  . . . . . . . . . . . . . .                   ",
"                      . . . . . . . . .                         ",
"                                                                "};
