/* XPM */
static const char * ICON_FILE_PASTE_xpm[] = {
"32 32 298 2",
"  	c None",
". 	c #000000",
"+ 	c #010101",
"@ 	c #2C2C2C",
"# 	c #A0A0A0",
"$ 	c #A5A5A5",
"% 	c #A6A6A6",
"& 	c #A8A8A8",
"* 	c #898989",
"= 	c #292929",
"- 	c #969696",
"; 	c #9B9B9B",
"> 	c #9C9C9C",
", 	c #9E9E9E",
"' 	c #808080",
") 	c #82827E",
"! 	c #9B9B96",
"~ 	c #9A9A96",
"{ 	c #989894",
"] 	c #83847F",
"^ 	c #191918",
"/ 	c #9F9F9F",
"( 	c #A4A4A4",
"_ 	c #A7A7A7",
": 	c #888888",
"< 	c #343431",
"[ 	c #888980",
"} 	c #7F8077",
"| 	c #7D7E76",
"1 	c #74756D",
"2 	c #080808",
"3 	c #030303",
"4 	c #E3E5DA",
"5 	c #E5E5DC",
"6 	c #DEDED5",
"7 	c #E2E3D9",
"8 	c #72736F",
"9 	c #0C0C0B",
"0 	c #353535",
"a 	c #ACACAC",
"b 	c #B0B0B0",
"c 	c #B1B1B1",
"d 	c #B3B3B3",
"e 	c #979797",
"f 	c #B0B1A5",
"g 	c #CED0C1",
"h 	c #C9CABB",
"i 	c #C1C3B5",
"j 	c #191917",
"k 	c #E3E5D7",
"l 	c #CFCFC2",
"m 	c #C2C2B5",
"n 	c #787870",
"o 	c #212121",
"p 	c #AEAEAE",
"q 	c #C2C2C2",
"r 	c #C1C1C1",
"s 	c #C4C4C4",
"t 	c #717171",
"u 	c #0E0E0E",
"v 	c #232421",
"w 	c #B3B4A6",
"x 	c #CBCCBC",
"y 	c #BBBCAF",
"z 	c #181917",
"A 	c #E4E6D8",
"B 	c #D1D1C4",
"C 	c #4E4E49",
"D 	c #343434",
"E 	c #595959",
"F 	c #575756",
"G 	c #575757",
"H 	c #565656",
"I 	c #535353",
"J 	c #1B1B1A",
"K 	c #0E0E0D",
"L 	c #999B8E",
"M 	c #CBCCBD",
"N 	c #B7B8AA",
"O 	c #181816",
"P 	c #D0D1C3",
"Q 	c #C4C4B7",
"R 	c #96978C",
"S 	c #1D1D1B",
"T 	c #111110",
"U 	c #111210",
"V 	c #121210",
"W 	c #121211",
"X 	c #4C4D47",
"Y 	c #C1C3B4",
"Z 	c #CACBBC",
"` 	c #B1B2A6",
" .	c #171716",
"..	c #C3C4B6",
"+.	c #C4C6B7",
"@.	c #A6A89B",
"#.	c #989A8E",
"$.	c #9A9B8F",
"%.	c #9A9C8F",
"&.	c #999B8F",
"*.	c #9A9C90",
"=.	c #9B9C90",
"-.	c #9B9D90",
";.	c #9C9D91",
">.	c #9D9E92",
",.	c #9D9F93",
"'.	c #9E9F93",
").	c #9FA193",
"!.	c #C1C2B3",
"~.	c #CED0C0",
"{.	c #C9CBBC",
"].	c #AAAB9F",
"^.	c #161615",
"/.	c #E2E4D6",
"(.	c #D0D2C3",
"_.	c #C3C5B7",
":.	c #C3C5B6",
"<.	c #C5C7B7",
"[.	c #C7C8B9",
"}.	c #BDBFB1",
"|.	c #A9AB9D",
"1.	c #A5A79A",
"2.	c #A6A89A",
"3.	c #A7A89B",
"4.	c #A8A99C",
"5.	c #A9AA9D",
"6.	c #AAAA9D",
"7.	c #AAAB9E",
"8.	c #ABAC9F",
"9.	c #ACADA0",
"0.	c #A7A99D",
"a.	c #898A80",
"b.	c #E0E2D4",
"c.	c #C4C6B8",
"d.	c #C6C8B8",
"e.	c #C8C9BA",
"f.	c #BBBDAF",
"g.	c #3B3C37",
"h.	c #1B1C19",
"i.	c #181817",
"j.	c #131312",
"k.	c #030302",
"l.	c #DEE0D2",
"m.	c #C5C7B8",
"n.	c #C6C8B9",
"o.	c #C7C9B9",
"p.	c #53544D",
"q.	c #090909",
"r.	c #434343",
"s.	c #585858",
"t.	c #3F3F3F",
"u.	c #DDDFD1",
"v.	c #C0C2B3",
"w.	c #363632",
"x.	c #272727",
"y.	c #CDCDCD",
"z.	c #ECECEC",
"A.	c #EEEEEE",
"B.	c #EFEFEF",
"C.	c #F0F0F0",
"D.	c #F1F1F1",
"E.	c #F2F2F2",
"F.	c #F3F3F3",
"G.	c #F4F4F4",
"H.	c #F5F5F5",
"I.	c #F6F6F6",
"J.	c #D3D3D3",
"K.	c #DADCCE",
"L.	c #C7C9BA",
"M.	c #C8CABA",
"N.	c #343430",
"O.	c #2E2E2E",
"P.	c #D8D8D8",
"Q.	c #E8E8E8",
"R.	c #EDEDED",
"S.	c #F7F7F7",
"T.	c #E3E3E3",
"U.	c #D7D9CB",
"V.	c #D0D2C2",
"W.	c #C8CBBA",
"X.	c #E9E9E9",
"Y.	c #F8F8F8",
"Z.	c #E4E4E4",
"`.	c #D5D6C8",
" +	c #D0D1C2",
".+	c #C8CABB",
"++	c #C9CBBA",
"@+	c #C1C4B4",
"#+	c #343530",
"$+	c #D1D1D1",
"%+	c #B2B2B2",
"&+	c #B4B4B4",
"*+	c #B5B5B5",
"=+	c #B6B6B6",
"-+	c #B7B7B7",
";+	c #D6D6D6",
">+	c #F9F9F9",
",+	c #D2D3C5",
"'+	c #CFD1C2",
")+	c #C9CBBB",
"!+	c #C2C4B5",
"~+	c #343531",
"{+	c #CFCFCF",
"]+	c #ADADAD",
"^+	c #AFAFAF",
"/+	c #D4D4D4",
"(+	c #CED0C2",
"_+	c #CFD1C1",
":+	c #CACCBC",
"<+	c #CBCDBC",
"[+	c #C4C5B7",
"}+	c #353531",
"|+	c #EAEAEA",
"1+	c #EBEBEB",
"2+	c #FAFAFA",
"3+	c #CBCDBF",
"4+	c #CBCDBE",
"5+	c #C5C6B7",
"6+	c #FBFBFB",
"7+	c #C6C8BB",
"8+	c #CECFC0",
"9+	c #CCCDBE",
"0+	c #CDCFBF",
"a+	c #CCCEBE",
"b+	c #D7D7D7",
"c+	c #BCBCBC",
"d+	c #BDBDBD",
"e+	c #BEBEBE",
"f+	c #BFBFBF",
"g+	c #C0C0C0",
"h+	c #DDDDDD",
"i+	c #E5E5E5",
"j+	c #C3C4B8",
"k+	c #CCCEBF",
"l+	c #CED0BF",
"m+	c #CDCEBE",
"n+	c #C6C7B7",
"o+	c #353631",
"p+	c #D0D0D0",
"q+	c #D5D5D5",
"r+	c #BEBFB2",
"s+	c #CDCEBF",
"t+	c #CECEBE",
"u+	c #C7C8B8",
"v+	c #353632",
"w+	c #E1E1E1",
"x+	c #E2E2E2",
"y+	c #E6E6E6",
"z+	c #E7E7E7",
"A+	c #FCFCFC",
"B+	c #CFD0BF",
"C+	c #FDFDFD",
"D+	c #FEFEFE",
"E+	c #B5B6AA",
"F+	c #CECFBF",
"G+	c #D0D1C1",
"H+	c #CFD0C0",
"I+	c #DFDFDF",
"J+	c #C8C8C8",
"K+	c #CACACA",
"L+	c #CBCBCB",
"M+	c #CCCCCC",
"N+	c #CECECE",
"O+	c #CFD1C0",
"P+	c #D2D2D2",
"Q+	c #ACACA0",
"R+	c #C8C8B9",
"S+	c #CCCDBD",
"T+	c #CACCBD",
"U+	c #C3C5B5",
"V+	c #D9D9D9",
"W+	c #DADADA",
"X+	c #DBDBDB",
"Y+	c #DCDCDC",
"Z+	c #DEDEDE",
"`+	c #020202",
" @	c #A8A99D",
".@	c #B9BAAD",
"+@	c #B3B4A8",
"@@	c #AFB0A4",
"#@	c #A5A69A",
"$@	c #999A8F",
"%@	c #292926",
"&@	c #252522",
"*@	c #222220",
"=@	c #21221F",
"-@	c #20201E",
";@	c #1E1E1C",
">@	c #0A0A09",
",@	c #2D2D2D",
"'@	c #10100F",
")@	c #0D0D0C",
"!@	c #060605",
"~@	c #1C1C1C",
"{@	c #313131",
"]@	c #303030",
"^@	c #323232",
"/@	c #333333",
"                . + + + + + + + + + + +                         ",
"              . . + + + + + + + + + + . .                       ",
"              . @ # $ % % % % % % % & * . +                     ",
"  . + + + + + . = - ; > > > > > > > , ' . + + + + + .           ",
". + ) ! ~ { ] ^ @ / ( $ $ $ $ $ $ $ _ : . < [ } | 1 2 .         ",
". 3 4 5 6 7 8 9 0 a b c c c c c c c d e . ^ f g h i j +         ",
". 3 k l m n + o p q r r r r r r r r r s t u v w x y z +         ",
". 3 A B m C 3 D E F G G G G G G G G G H I J K L M N O +         ",
". 3 A P Q R S T T T T T T T T T T T T U V W X Y Z `  .+         ",
". 3 k P ..+.@.#.$.%.$.&.$.*.=.-.;.>.,.'.'.).!.~.{.].^.+         ",
". 3 /.(.+._.:.+.<.[.}.|.1.1.2.3.4.5.5.6.7.8.8.9.0.a.W +         ",
". 3 b.(.+.c.d.d.e.f.g.h.O O O O i.i.i.i.z j j j O j.k.. . + .   ",
". 3 l.(.m.n.o.[.n.p.q.r.s.s.s.s.s.s.s.s.s.s.s.s.s.s.G H s.t.. . ",
". 3 u.(.n.n.o.[.v.w.x.y.z.A.A.A.B.B.C.C.D.D.E.E.F.F.G.H.I.J.. . ",
". 3 K.(.o.L.M.o.!.N.O.P.Q.z.z.z.z.R.A.B.C.C.D.E.F.G.G.H.S.T.. . ",
". 3 U.V.e.e.W.M.!.N.O.P.X.R.z.z.R.R.B.B.C.D.E.E.F.G.H.S.Y.Z.. . ",
". 3 `. +.+++{.M.@+#+O.P.X.A.$+%+%+d &+*+*+*+=+-+-+=+;+Y.>+Z.. . ",
". 3 ,+'+)+)+Z ++!+~+O.P.X.B.{+]+p p ^+b b c c %+%+c /+Y.>+Z.. . ",
". 3 (+_+:+:+<+:+[+}+O.P.|+A.1+Q.X.X.|+1+z.R.R.A.B.B.G.>+2+Z.. . ",
". 3 3+g :+x 4+4+5+}+O.P.|+B.D.F.F.G.H.I.S.Y.Y.>+2+6+2+>+2+Z.. . ",
". 3 7+8+<+9+0+a+<.}+O.P.1+D.b+c+d+d+e+f+f+g+g+r q r h+2+6+i+. . ",
". 3 j+0+9+k+l+m+n+o+O.P.1+E.p+]+]+p p ^+^+b b c %+b q+6+6+i+. . ",
". 3 r+s+0+l+8+t+u+v+O.P.z.D.|+w+x+T.Z.Z.i+y+z+z+Q.Q.E.A+A+i+. . ",
". 3 y k+l+8+B+l+[.w.O.P.R.D.G.I.S.Y.>+>+6+6+A+C+D+D+C+A+A+i+. . ",
". 3 E+4+F+B+G+H+e.w.O.P.A.F.I+J+K+K+L+M+M+y.y.N+{+N+i+C+C+i+. . ",
". 3 ` M F+O+G+~.L.v+O.P.A.H.P+^+^+^+b c %+%+%+d &+d b+D+C+i+. . ",
". 3 Q+R+S+S+9+T+U+~+O.P.B.G.z+V+W+X+Y+Y+h+h+Z+I+I+I+A.D+C+i+. . ",
". `+ @.@+@@@].#@$@%@O.P.C.G.H.S.S.Y.>+2+2+6+A+A+C+D+D+D+C+i+. . ",
"  . J &@v *@=@-@;@>@,@b+F.I.S.S.Y.>+>+2+2+6+6+A+A+C+C+C+A+T.. . ",
"  . '@)@9 9 9 9 9 !@~@c h+Z+Z+Z+Z+Z+Z+Z+Z+Z+Z+Z+Z+Z+Z+Z+I+b . + ",
"                    . . . . . . . . . . . . . . . . . . . . .   ",
"                      {@]@{@{@{@{@{@^@^@^@^@^@^@/@/@/@/@/@D     "};
