/* XPM */
static const char * ICON_THUMBNAIL_xpm[] = {
"32 32 467 2",
"  	c None",
". 	c #000000",
"+ 	c #010101",
"@ 	c #080808",
"# 	c #2E2E2B",
"$ 	c #32322F",
"% 	c #20201E",
"& 	c #0D0D0C",
"* 	c #060605",
"= 	c #292926",
"- 	c #595A52",
"; 	c #5A5B54",
"> 	c #343431",
", 	c #2B2B28",
"' 	c #919287",
") 	c #B4B6A6",
"! 	c #B0B1A1",
"~ 	c #B2B4A4",
"{ 	c #B2B3A4",
"] 	c #98998D",
"^ 	c #76776E",
"/ 	c #4C4C47",
"( 	c #33332F",
"_ 	c #1F1F1C",
": 	c #2F302C",
"< 	c #828377",
"[ 	c #A5A893",
"} 	c #A4A78F",
"| 	c #A8AA94",
"1 	c #AFB19E",
"2 	c #A4A696",
"3 	c #030303",
"4 	c #73736B",
"5 	c #A6A797",
"6 	c #7F836F",
"7 	c #7E816C",
"8 	c #838671",
"9 	c #8A8D78",
"0 	c #959883",
"a 	c #9EA08D",
"b 	c #A5A696",
"c 	c #A2A395",
"d 	c #999A8E",
"e 	c #9B9D8E",
"f 	c #9FA38A",
"g 	c #999D82",
"h 	c #989C80",
"i 	c #9A9E82",
"j 	c #9DA086",
"k 	c #717265",
"l 	c #0F0F0E",
"m 	c #0E0E0C",
"n 	c #909086",
"o 	c #94958A",
"p 	c #7B7B73",
"q 	c #65655E",
"r 	c #40403C",
"s 	c #333430",
"t 	c #8B8C81",
"u 	c #656759",
"v 	c #5E604F",
"w 	c #676956",
"x 	c #6E715D",
"y 	c #71745F",
"z 	c #767963",
"A 	c #797C66",
"B 	c #7E816A",
"C 	c #81856D",
"D 	c #878A73",
"E 	c #898D74",
"F 	c #8E9177",
"G 	c #91957A",
"H 	c #95997D",
"I 	c #979B7F",
"J 	c #828571",
"K 	c #20201D",
"L 	c #2D2D2A",
"M 	c #EEEFDE",
"N 	c #EAEBDA",
"O 	c #E5E6D5",
"P 	c #DEDFCF",
"Q 	c #CDCEBF",
"R 	c #BFC0B2",
"S 	c #AAAB9F",
"T 	c #8A8B80",
"U 	c #58594F",
"V 	c #3E3F35",
"W 	c #4B4E3F",
"X 	c #606351",
"Y 	c #6E705C",
"Z 	c #797C65",
"` 	c #7D8169",
" .	c #81846C",
"..	c #858970",
"+.	c #898C73",
"@.	c #8D9177",
"#.	c #919579",
"$.	c #94987D",
"%.	c #91957B",
"&.	c #606155",
"*.	c #141412",
"=.	c #E8E9D8",
"-.	c #DEE0CE",
";.	c #DEDFCE",
">.	c #E0E1D0",
",.	c #E3E4D3",
"'.	c #A7A89B",
").	c #7B7C72",
"!.	c #606157",
"~.	c #595A4E",
"{.	c #57594B",
"].	c #5D5F4F",
"^.	c #6D6F5B",
"/.	c #757762",
"(.	c #7A7D67",
"_.	c #7D816A",
":.	c #82856D",
"<.	c #8A8E74",
"[.	c #92967B",
"}.	c #90947C",
"|.	c #45463C",
"1.	c #252522",
"2.	c #E6E7D6",
"3.	c #E0E0D0",
"4.	c #DDDECD",
"5.	c #CBCCBC",
"6.	c #B7B8AA",
"7.	c #929488",
"8.	c #747469",
"9.	c #44463B",
"0.	c #484A3D",
"a.	c #6B6E5A",
"b.	c #757862",
"c.	c #797D66",
"d.	c #7D8069",
"e.	c #85886F",
"f.	c #8F937A",
"g.	c #5C5E52",
"h.	c #707069",
"i.	c #707068",
"j.	c #707168",
"k.	c #707169",
"l.	c #77776F",
"m.	c #BABBAC",
"n.	c #DBDCCB",
"o.	c #D9DACA",
"p.	c #B5B6A9",
"q.	c #707167",
"r.	c #5B5C52",
"s.	c #56584A",
"t.	c #646654",
"u.	c #848771",
"v.	c #4B4C43",
"w.	c #B8B8B7",
"x.	c #A9A9A9",
"y.	c #A3A3A3",
"z.	c #9FA09F",
"A.	c #9D9D9C",
"B.	c #979796",
"C.	c #949493",
"D.	c #90908F",
"E.	c #8F8F8F",
"F.	c #8B8B8B",
"G.	c #898989",
"H.	c #848484",
"I.	c #868686",
"J.	c #696969",
"K.	c #52524C",
"L.	c #C7C8B8",
"M.	c #D7D8C8",
"N.	c #C2C3B4",
"O.	c #87887C",
"P.	c #46463D",
"Q.	c #626553",
"R.	c #757962",
"S.	c #7A7C68",
"T.	c #3B3B34",
"U.	c #959595",
"V.	c #FFFFFF",
"W.	c #E9E9E9",
"X.	c #EAEAEA",
"Y.	c #ECECEC",
"Z.	c #EEEEEE",
"`.	c #F3F3F3",
" +	c #F5F5F5",
".+	c #F7F7F7",
"++	c #F9F9F9",
"@+	c #FCFCFC",
"#+	c #222220",
"$+	c #AFB0A3",
"%+	c #DDDDCD",
"&+	c #33352B",
"*+	c #6A6D59",
"=+	c #6D705C",
"-+	c #686B5A",
";+	c #252622",
">+	c #8E8D8D",
",+	c #F2EEE7",
"'+	c #FFF9F1",
")+	c #FFF9F0",
"!+	c #FFFDF4",
"~+	c #FFFDF3",
"{+	c #FFFFF4",
"]+	c #FFFFF6",
"^+	c #FFFFF7",
"/+	c #FFFFF9",
"(+	c #FFFFFA",
"_+	c #FFFEF6",
":+	c #21221F",
"<+	c #AEAFA2",
"[+	c #DCDECC",
"}+	c #DADCCB",
"|+	c #D9DBCA",
"1+	c #B4B5A8",
"2+	c #25261F",
"3+	c #585B4A",
"4+	c #626552",
"5+	c #656855",
"6+	c #5B5D4F",
"7+	c #181816",
"8+	c #929190",
"9+	c #CACBC8",
"0+	c #1B2E4D",
"a+	c #112A56",
"b+	c #182F51",
"c+	c #142A52",
"d+	c #162C54",
"e+	c #1D3253",
"f+	c #1E3352",
"g+	c #1D3252",
"h+	c #1D3251",
"i+	c #1D3353",
"j+	c #0E2447",
"k+	c #C8D3E0",
"l+	c #292721",
"m+	c #ADAEA0",
"n+	c #DADBCA",
"o+	c #D9DAC9",
"p+	c #D8D9C8",
"q+	c #D7D8C7",
"r+	c #C7C8B9",
"s+	c #22231D",
"t+	c #494B3D",
"u+	c #565849",
"v+	c #595B4B",
"w+	c #46483E",
"x+	c #0B0B0A",
"y+	c #989795",
"z+	c #CECFD1",
"A+	c #173E7D",
"B+	c #3F6C93",
"C+	c #A0B997",
"D+	c #76978B",
"E+	c #2C5998",
"F+	c #305DA0",
"G+	c #34619F",
"H+	c #3561A1",
"I+	c #3663A3",
"J+	c #3665A7",
"K+	c #1A4079",
"L+	c #D1D9E9",
"M+	c #2F2C25",
"N+	c #ABAC9F",
"O+	c #D6D7C6",
"P+	c #D5D6C5",
"Q+	c #CACBBC",
"R+	c #262621",
"S+	c #404135",
"T+	c #4E5041",
"U+	c #515344",
"V+	c #383833",
"W+	c #D5D4D0",
"X+	c #3C588D",
"Y+	c #BDCEAD",
"Z+	c #FFFFE4",
"`+	c #809AA0",
" @	c #607DB3",
".@	c #6783B2",
"+@	c #6A87B7",
"@@	c #6581AA",
"#@	c #627897",
"$@	c #6C8DBF",
"%@	c #43618C",
"&@	c #D9E2EA",
"*@	c #2C2923",
"=@	c #A9AA9D",
"-@	c #D6D7C7",
";@	c #D5D6C6",
">@	c #D4D5C5",
",@	c #D3D4C4",
"'@	c #D2D3C3",
")@	c #CCCEBE",
"!@	c #2C2D29",
"~@	c #33342B",
"{@	c #424437",
"]@	c #4B4C40",
"^@	c #191A18",
"/@	c #959492",
"(@	c #D4D3D0",
"_@	c #516895",
":@	c #9DB2A6",
"<@	c #FEFFB6",
"[@	c #D7E0A6",
"}@	c #7A92AA",
"|@	c #728BB9",
"1@	c #7C95BF",
"2@	c #7F99C2",
"3@	c #657083",
"4@	c #5B5E67",
"5@	c #788FB1",
"6@	c #587098",
"7@	c #DAE0EA",
"8@	c #2A2822",
"9@	c #A7A89C",
"0@	c #D1D2C2",
"a@	c #D0D1C1",
"b@	c #CCCDBE",
"c@	c #2B2C25",
"d@	c #3A3C31",
"e@	c #47483E",
"f@	c #050505",
"g@	c #D8D7D3",
"h@	c #7C89A7",
"i@	c #9BADD8",
"j@	c #93A4C8",
"k@	c #93A4CC",
"l@	c #9DACD0",
"m@	c #A6B2CF",
"n@	c #B2C1E0",
"o@	c #79808A",
"p@	c #626363",
"q@	c #615F5F",
"r@	c #868E9C",
"s@	c #8091AF",
"t@	c #E0E6EC",
"u@	c #282721",
"v@	c #A5A799",
"w@	c #CFD0C0",
"x@	c #CED0C0",
"y@	c #CACCBC",
"z@	c #32322E",
"A@	c #21221B",
"B@	c #32332A",
"C@	c #2B2B26",
"D@	c #DAD9D6",
"E@	c #798CAA",
"F@	c #9FBADF",
"G@	c #9CB5D7",
"H@	c #9CB5D6",
"I@	c #9DB6D7",
"J@	c #A4BCDF",
"K@	c #5B5854",
"L@	c #676A6D",
"M@	c #605E5D",
"N@	c #95AAC6",
"O@	c #7A92B5",
"P@	c #E3E9F1",
"Q@	c #282621",
"R@	c #A3A598",
"S@	c #CFD1C1",
"T@	c #CDCFBF",
"U@	c #CBCDBD",
"V@	c #C8CABA",
"W@	c #31312D",
"X@	c #1A1B16",
"Y@	c #191916",
"Z@	c #91908E",
"`@	c #D8D8D5",
" #	c #46608B",
".#	c #6181B5",
"+#	c #607EAE",
"@#	c #6080B0",
"##	c #607FB0",
"$#	c #6080B1",
"%#	c #6386B7",
"&#	c #50668E",
"*#	c #486084",
"=#	c #4A6388",
"-#	c #54729E",
";#	c #4A6997",
">#	c #E6E9EF",
",#	c #272620",
"'#	c #A1A396",
")#	c #C9CBBB",
"!#	c #C5C7B7",
"~#	c #11120F",
"{#	c #1E1F1B",
"]#	c #070707",
"^#	c #908F8D",
"/#	c #D4D3D4",
"(#	c #1F3C6E",
"_#	c #2D5194",
":#	c #2F5190",
"<#	c #305390",
"[#	c #305290",
"}#	c #325290",
"|#	c #345594",
"1#	c #345697",
"2#	c #2D4E89",
"3#	c #244175",
"4#	c #162E5F",
"5#	c #214075",
"6#	c #E0E5ED",
"7#	c #25241F",
"8#	c #A0A194",
"9#	c #C9CBBC",
"0#	c #C8CABB",
"a#	c #C7C9BA",
"b#	c #C6C8B9",
"c#	c #C1C3B4",
"d#	c #262622",
"e#	c #0B0C0A",
"f#	c #121210",
"g#	c #898887",
"h#	c #E6E6E5",
"i#	c #51586B",
"j#	c #505A6D",
"k#	c #525B6C",
"l#	c #535A6B",
"m#	c #535A6D",
"n#	c #525B6E",
"o#	c #555E6F",
"p#	c #565F72",
"q#	c #596375",
"r#	c #545E72",
"s#	c #596378",
"t#	c #F6F8FB",
"u#	c #1C1B18",
"v#	c #96988C",
"w#	c #C5C7B8",
"x#	c #C5C6B7",
"y#	c #C3C5B6",
"z#	c #B9BAAC",
"A#	c #181817",
"B#	c #040404",
"C#	c #F5F4F3",
"D#	c #FEFCFA",
"E#	c #FFFFFC",
"F#	c #FFFFFD",
"G#	c #090807",
"H#	c #43443F",
"I#	c #929388",
"J#	c #B3B5A7",
"K#	c #C2C4B5",
"L#	c #C2C4B6",
"M#	c #ADAEA1",
"N#	c #0A0A09",
"O#	c #555555",
"P#	c #FDFDFD",
"Q#	c #0D0E0D",
"R#	c #3B3B37",
"S#	c #5A5A54",
"T#	c #73746C",
"U#	c #5B5B55",
"V#	c #4E4E4E",
"W#	c #4A4A4A",
"X#	c #4D4D4D",
"Y#	c #4B4B4B",
"Z#	c #494949",
"`#	c #484848",
" $	c #444444",
".$	c #434343",
"+$	c #414141",
"@$	c #404040",
"#$	c #424242",
"$$	c #313131",
"%$	c #0E0E0D",
"                                                                ",
"                                                                ",
"                                                                ",
"                                                                ",
"                                                                ",
"                                                                ",
"                    . . . .               . + + . .             ",
"                  @ # $ % & . . . .     * = - ; > & . .         ",
"                , ' ) ! ~ { ] ^ / ( _ : < [ } | 1 2 ( 3         ",
"    . . . .   . 4 5 6 7 8 9 0 a b c d e f g h h i j k l .       ",
"  m n o p q r s t u v w x y z A B C D E F G H I h h J K . .     ",
"  L M N O P Q R S T U V W X Y y z Z `  ...+.@.#.$.I %.&.*.+ .   ",
"  ( =.-.;.;.;.;.;.>.,.P '.).!.~.{.].^./.(._.:...<.@.[.H }.|..   ",
"  1.2.;.;.;.;.;.;.;.;.;.3.4.5.6.7.8.9.0.a.b.c.d.:.e.E @.f.g.. . ",
"  3 h.i.i.i.i.i.i.i.i.i.i.j.k.l.m.n.o.p.q.r.s.t.z A B C u.v..   ",
"  . w.x.y.z.A.B.C.D.E.F.G.H.I.J.K.L.;.;.M.N.O.P.Q.y R.Z S.T..   ",
"  U.V.W.X.Y.Z.Z.`.`. +.+++@+V.V.#+$+;.;.4.%+n.d &+t.*+=+-+;+.   ",
"  >+V.,+'+)+!+~+{+]+^+/+(+(+_+V.:+<+4.[+n.}+|+1+2+3+4+5+6+7+.   ",
"  8+9+0+a+b+c+d+e+f+g+h+h+i+j+k+l+m+n.n+o+p+q+r+s+t+u+v+w+x+.   ",
"  y+z+A+B+C+D+E+F+G+H+I+I+J+K+L+M+N+o+p+q+O+P+Q+R+S+T+U+V+3     ",
"  y+W+X+Y+V.Z+`+ @.@+@@@#@$@%@&@*@=@-@;@>@,@'@)@!@~@{@]@^@.     ",
"  /@(@_@:@<@[@}@|@1@2@3@4@5@6@7@8@9@>@,@'@0@a@b@# c@d@e@f@.     ",
"  8+g@h@i@j@k@l@m@n@o@p@q@r@s@t@u@v@0@a@w@x@Q y@z@A@B@C@.       ",
"  8+D@E@F@G@H@H@I@J@K@L@M@N@O@P@Q@R@S@x@T@)@U@V@W@X@c@Y@.       ",
"  Z@`@ #.#+#@###$#%#&#*#=#-#;#>#,#'#)@U@y@)#V@!#!@~#{#]#.       ",
"  ^#/#(#_#:#<#[#}#|#1#2#3#4#5#6#7#8#y@9#0#a#b#c#d#e#f#+         ",
"  g#h#i#j#k#l#m#n#n#o#p#q#r#s#t#u#v#r+r+w#x#y#z#A#B#. .         ",
"  G.V.C#D#(+E#F#V.V.V.V.V.V.V.V.G#H#I#J#K#L#K#M#N#. .           ",
"  O#V.V.V.V.V.V.V.V.V.V.V.V.V.P#. . + Q#R#S#T#U#. .             ",
"  . V#W#W#X#Y#Z#`# $ $.$+$@$#$$$.   . . . B#%$x+. .             ",
"                                                                ",
"                                                                "};
