/* XPM */
static const char * ICON_ROTATE_CW_xpm[] = {
"32 32 301 2",
"  	c None",
". 	c #000000",
"+ 	c #0A1219",
"@ 	c #25425F",
"# 	c #30567D",
"$ 	c #386693",
"% 	c #3D6D9D",
"& 	c #345D87",
"* 	c #2A4C6E",
"= 	c #121F2E",
"- 	c #1A2E43",
"; 	c #447BB1",
"> 	c #5AA1E9",
", 	c #5BA4EC",
"' 	c #5CA5EE",
") 	c #5CA6F0",
"! 	c #5DA7F1",
"~ 	c #5EA8F3",
"{ 	c #5EA9F4",
"] 	c #5091D1",
"^ 	c #294A6C",
"/ 	c #030609",
"( 	c #0D1721",
"_ 	c #4379AF",
": 	c #59A0E8",
"< 	c #5AA2EA",
"[ 	c #5BA3EC",
"} 	c #5DA8F2",
"| 	c #5FAAF5",
"1 	c #5FABF6",
"2 	c #5FABF7",
"3 	c #60ABF7",
"4 	c #569ADF",
"5 	c #203952",
"6 	c #152536",
"7 	c #5192D3",
"8 	c #589FE7",
"9 	c #59A1E9",
"0 	c #5AA3EB",
"a 	c #5BA5EE",
"b 	c #5FAAF6",
"c 	c #60ACF7",
"d 	c #60ACF9",
"e 	c #61ADFA",
"f 	c #60ABF8",
"g 	c #2B4C6E",
"h 	c #101D2A",
"i 	c #5397DA",
"j 	c #589EE5",
"k 	c #5BA4ED",
"l 	c #5CA6EF",
"m 	c #5DA7F2",
"n 	c #5993CD",
"o 	c #5599DD",
"p 	c #61AEFB",
"q 	c #67B1FB",
"r 	c #6BB3FB",
"s 	c #66B1FB",
"t 	c #264563",
"u 	c #060B11",
"v 	c #4B88C5",
"w 	c #579DE3",
"x 	c #589FE6",
"y 	c #5DA4EA",
"z 	c #A7BBCF",
"A 	c #D1DAE2",
"B 	c #E7EFF7",
"C 	c #EDF4FC",
"D 	c #EBF2F9",
"E 	c #DBE0E5",
"F 	c #B4BDC5",
"G 	c #6795C4",
"H 	c #80BDF9",
"I 	c #88B8E6",
"J 	c #7893AC",
"K 	c #63AFFB",
"L 	c #5FA9F4",
"M 	c #152637",
"N 	c #355F8A",
"O 	c #569CE1",
"P 	c #579EE4",
"Q 	c #58A0E7",
"R 	c #7FA8D1",
"S 	c #E0EAF3",
"T 	c #E8F2FB",
"U 	c #EAF3FC",
"V 	c #ECF4FC",
"W 	c #EEF5FC",
"X 	c #F0F7FC",
"Y 	c #F2F7FD",
"Z 	c #F3F8FD",
"` 	c #F0F4F8",
" .	c #94A0AB",
"..	c #9AB8D6",
"+.	c #F0F6FA",
"@.	c #E3E7EC",
"#.	c #70B5FA",
"$.	c #5193D3",
"%.	c #020305",
"&.	c #12202F",
"*.	c #5599DE",
"=.	c #569CE2",
"-.	c #579EE5",
";.	c #59A0E7",
">.	c #A7C1DA",
",.	c #E4F0FB",
"'.	c #E7F1FB",
").	c #E9F3FB",
"!.	c #F0F6FC",
"~.	c #F2F8FD",
"{.	c #F4F9FD",
"].	c #F5F9FD",
"^.	c #F6FAFD",
"/.	c #E3E7EB",
"(.	c #7BBBFA",
"_.	c #68B2FB",
":.	c #2C4E70",
"<.	c #386592",
"[.	c #559ADF",
"}.	c #7EAEDE",
"|.	c #E3EFFA",
"1.	c #E5F0FB",
"2.	c #F0F5FB",
"3.	c #F7FBFD",
"4.	c #F9FBFE",
"5.	c #F8FBFE",
"6.	c #F7FAFD",
"7.	c #E3E6EA",
"8.	c #82BEF9",
"9.	c #6DB4FB",
"0.	c #61AEFA",
"a.	c #579CE1",
"b.	c #010102",
"c.	c #030507",
"d.	c #5091D3",
"e.	c #60A3E6",
"f.	c #DDE9F4",
"g.	c #EBF3FB",
"h.	c #B1C9E0",
"i.	c #68B1F8",
"j.	c #78B9FA",
"k.	c #BAD6F3",
"l.	c #F5F8FA",
"m.	c #FBFDFE",
"n.	c #FCFDFE",
"o.	c #FAFCFE",
"p.	c #E2E5E8",
"q.	c #83BEF9",
"r.	c #6EB4FB",
"s.	c #60ACF8",
"t.	c #16283A",
"u.	c #152638",
"v.	c #5498DC",
"w.	c #A7C6E4",
"x.	c #E1EEFA",
"y.	c #E6F1FB",
"z.	c #7DABD8",
"A.	c #6CB3FB",
"B.	c #92B5D7",
"C.	c #F8F9FB",
"D.	c #FDFDFE",
"E.	c #FEFEFE",
"F.	c #E0E4E7",
"G.	c #7EBCF9",
"H.	c #6AB3FB",
"I.	c #30567C",
"J.	c #1E374F",
"K.	c #C8D9E8",
"L.	c #E0EEFA",
"M.	c #E6F0FB",
"N.	c #ABBBCA",
"O.	c #61ADF9",
"P.	c #89B7E5",
"Q.	c #F6F9FC",
"R.	c #FBFCFE",
"S.	c #DEE2E6",
"T.	c #75B7FA",
"U.	c #60ADF9",
"V.	c #3A6896",
"W.	c #264564",
"X.	c #5398DC",
"Y.	c #569BE1",
"Z.	c #DCE9F5",
"`.	c #E0EDFA",
" +	c #6796C7",
".+	c #5EA9F3",
"++	c #A9CEF2",
"@+	c #F2F6F9",
"#+	c #F5F8FB",
"$+	c #F7FAFC",
"%+	c #F9FBFD",
"&+	c #F8FAFD",
"*+	c #CAD4DD",
"=+	c #4378AD",
"-+	c #24415F",
";+	c #5397DB",
">+	c #5499DE",
",+	c #559BE0",
"'+	c #DEECFA",
")+	c #E2EFFA",
"!+	c #5899DA",
"~+	c #65B0FB",
"{+	c #72B6FA",
"]+	c #64B0FB",
"^+	c #4073A6",
"/+	c #1C3249",
"(+	c #5498DD",
"_+	c #D8E4F2",
":+	c #DFEDFA",
"<+	c #E4EFFB",
"[+	c #5D85AD",
"}+	c #5EAAF5",
"|+	c #5EA9F5",
"1+	c #37628D",
"2+	c #5296D9",
"3+	c #559ADE",
"4+	c #BFD4E9",
"5+	c #A5B0BA",
"6+	c #5CA5EF",
"7+	c #294A6B",
"8+	c #000101",
"9+	c #4985C0",
"0+	c #5499DD",
"a+	c #91BDE9",
"b+	c #DDECFA",
"c+	c #E4EFFA",
"d+	c #5B7A99",
"e+	c #5EA3E9",
"f+	c #A2B6C9",
"g+	c #C4CCD3",
"h+	c #608AB3",
"i+	c #5DA7F0",
"j+	c #0D1822",
"k+	c #2F557C",
"l+	c #5296DA",
"m+	c #D3E2F0",
"n+	c #8C9AA7",
"o+	c #4C7FB2",
"p+	c #569BDF",
"q+	c #5593D2",
"r+	c #83A0BF",
"s+	c #E7EDF4",
"t+	c #EDF5FC",
"u+	c #E3E9EF",
"v+	c #5AA0E5",
"w+	c #4B87C3",
"x+	c #091017",
"y+	c #4E8ECE",
"z+	c #70AAE4",
"A+	c #DFECFA",
"B+	c #E3EDF6",
"C+	c #EAF3FB",
"D+	c #619DDB",
"E+	c #1C3248",
"F+	c #274666",
"G+	c #9BC1E7",
"H+	c #E7F2FB",
"I+	c #BDCBD9",
"J+	c #5AA2EB",
"K+	c #4175A9",
"L+	c #010203",
"M+	c #3C6E9F",
"N+	c #5397DC",
"O+	c #72ACE4",
"P+	c #D9E7F4",
"Q+	c #DEEDFA",
"R+	c #E5EFF8",
"S+	c #97B8D9",
"T+	c #060B10",
"U+	c #4680BA",
"V+	c #579BDF",
"W+	c #A1C6EC",
"X+	c #C5D8EB",
"Y+	c #DBE7F3",
"Z+	c #E4EFF9",
"`+	c #DFEAF3",
" @	c #CFDCE9",
".@	c #B3C9E0",
"+@	c #63A3E5",
"@@	c #5599DF",
"#@	c #142433",
"$@	c #05090E",
"%@	c #386694",
"&@	c #4F90D0",
"*@	c #132231",
"=@	c #203953",
"-@	c #4A88C5",
";@	c #559AE0",
">@	c #0A121A",
",@	c #04070A",
"'@	c #244260",
")@	c #3E70A3",
"!@	c #5295D8",
"~@	c #4C8AC8",
"{@	c #325B85",
"]@	c #0F1C28",
"^@	c #05090D",
"/@	c #101E2C",
"(@	c #192D41",
"_@	c #1D344C",
":@	c #0C151F",
"                                                                ",
"                                    . . . .                     ",
"                        . . . . . . . . . .                     ",
"                    . . . . . . . . . . . . . .                 ",
"                . . . . . + @ # $ % & * = . . . . .             ",
"              . . . . - ; > , ' ) ! ~ { { ] ^ / . . .           ",
"            . . . ( _ : < [ ' ) } { | 1 2 3 3 4 5 . . .         ",
"          . . . 6 7 8 9 0 a ) } { b c d e e e e f g . . .       ",
"        . . . h i j : < k l m l n o e p q r r s p e t . . .     ",
"        . . u v w x 9 0 y z A B C D E F G H H I J K L M . .     ",
"      . . . N O P Q 9 R S T U V W X Y Z `  ...+.@.#.p $.%.. .   ",
"      . . &.*.=.-.;.>.,.'.).V W !.~.{.].^.^.^.]./.(._.e :.. .   ",
"    . . . <.[.=.-.}.|.1.T U V !.2.{.^.3.4.4.5.6.7.8.9.0.a.b.. . ",
"    . . c.d.[.=.e.f.|.1.T g.h.i.p j.k.l.m.n.o.5.p.q.r.0.s.t.. . ",
"    . . u.v.[.=.w.x.|.y.T z.| s.0.A.B.C.D.E.m.4.F.G.H.e 3 I.. . ",
"    . . J.v.[.=.K.L.|.M.N.m { 2 O.P.Q.o.n.n.R.5.S.T.K U.2 V.. . ",
"    . . W.X.*.Y.Z.`.|.1. +! .+b s.++@+#+$+%+%+&+*+q 0.s.b =+. . ",
"    . . -+;+>+,+'+`.)+1.!+) } { 2 d 0.~+9.{+{+9.]+0.s.1 { ^+. . ",
"    . . /+i (+[._+:+x.<+[+' ! ~ }+2 s.e 0.p p 0.O.s.1 |+~ 1+. . ",
"    . . h 2+X.3+4+'+L.|.5+0 6+! ~ { b 3 s.s.s.s.2 b { ~ ! 7+. . ",
"    . . 8+9+;+0+a+b+:+x.c+d+k 6+! } .+e+f+g+h+| { .+} i+6+j+. . ",
"    . . . k+l+v.*.m+'+`.)+c+n+o+p+q+r+s+t+t+u+v+m ! ) ' w+. . . ",
"      . . x+y+;+(+z+A+:+L.)+,.y.B+T ).C+U U C+D+l ' k [ E+. .   ",
"      . . . F+2+;+0+G+`.:+L.)+<+1.y.'.H+T T I+k k [ J+K+. . .   ",
"        . . L+M+l+N+>+O+P+Q+`.x.|.<+,.1.R+S+J+< < 9 ] x+. .     ",
"        . . . T+U+l+N+0+V+W+X+Y+Z+`+ @.@+@: : : Q @@#@. . .     ",
"          . . . $@%@l+;+(+3+,+Y.=.w P -.-.j j -.&@*@. . .       ",
"            . . . . =@-@;+v.0+[.;@Y.O =.=.=.Y.<.>@. . .         ",
"              . . . . ,@'@)@!@v.0+>+[.[.~@{@]@. . . .           ",
"                . . . . . . ^@/@(@_@M :@. . . . . .             ",
"                    . . . . . . . . . . . . . .                 ",
"                          . . . . . . . . .                     "};
