/* XPM */
static const char * ICON_DOWN_xpm[] = {
"32 32 288 2",
"  	c None",
". 	c #000000",
"+ 	c #010203",
"@ 	c #182B3E",
"# 	c #31577E",
"$ 	c #3B6998",
"% 	c #4379AE",
"& 	c #3F71A3",
"* 	c #35608A",
"= 	c #264462",
"- 	c #091118",
"; 	c #030508",
"> 	c #2F5479",
", 	c #589FE4",
"' 	c #60ACF7",
") 	c #60ABF7",
"! 	c #5FABF6",
"~ 	c #5FAAF5",
"{ 	c #5EA9F4",
"] 	c #5DA8F2",
"^ 	c #5DA6F0",
"/ 	c #5CA4ED",
"( 	c #4479B0",
"_ 	c #111F2D",
": 	c #182C3F",
"< 	c #5496D9",
"[ 	c #61ADFA",
"} 	c #61AEFA",
"| 	c #60ADF9",
"1 	c #60ACF8",
"2 	c #5CA6F0",
"3 	c #5BA5EE",
"4 	c #59A1E8",
"5 	c #325A83",
"6 	c #020405",
"7 	c #284766",
"8 	c #5FAAF6",
"9 	c #61AEFB",
"0 	c #67B1FB",
"a 	c #6CB4FB",
"b 	c #6DB4FB",
"c 	c #69B2FB",
"d 	c #5DA7F2",
"e 	c #5CA6EF",
"f 	c #5BA4ED",
"g 	c #5AA2EA",
"h 	c #457CB4",
"i 	c #090F16",
"j 	c #2B4C6E",
"k 	c #61ADF9",
"l 	c #62AFFB",
"m 	c #70B5FA",
"n 	c #7BBAFA",
"o 	c #81BDF9",
"p 	c #82BEF9",
"q 	c #7DBBF9",
"r 	c #73B7FA",
"s 	c #66B0FB",
"t 	c #5EA8F3",
"u 	c #5AA3EB",
"v 	c #59A1E9",
"w 	c #4B88C5",
"x 	c #060C11",
"y 	c #203952",
"z 	c #60ABF8",
"A 	c #80BDF9",
"B 	c #8DC3F8",
"C 	c #96C7F8",
"D 	c #97C7F8",
"E 	c #90C4F8",
"F 	c #83BEF9",
"G 	c #74B7FA",
"H 	c #5FABF7",
"I 	c #5DA7F1",
"J 	c #5CA5EF",
"K 	c #5BA3EC",
"L 	c #589FE7",
"M 	c #4277AD",
"N 	c #010204",
"O 	c #030609",
"P 	c #569ADF",
"Q 	c #66B1FB",
"R 	c #7ABAFA",
"S 	c #9ECBF7",
"T 	c #AAD0F6",
"U 	c #ACD1F6",
"V 	c #A1CCF7",
"W 	c #98AFC6",
"X 	c #F0F4F7",
"Y 	c #DDE5ED",
"Z 	c #62AEFA",
"` 	c #5EAAF5",
" .	c #58A0E7",
"..	c #579EE4",
"+.	c #203B55",
"@.	c #294A6B",
"#.	c #6BB3FB",
"$.	c #95C6F8",
"%.	c #A9D0F6",
"&.	c #BCD9F5",
"*.	c #BFDAF5",
"=.	c #AED2F6",
"-.	c #DEE0E2",
";.	c #F8FBFE",
">.	c #F5F9FD",
",.	c #96C6F6",
"'.	c #59A0E7",
").	c #579EE5",
"!.	c #4A86C2",
"~.	c #5090D1",
"{.	c #C0DBF4",
"].	c #E7E8E9",
"^.	c #FAFCFE",
"/.	c #F6FAFD",
"(.	c #A1CBF3",
"_.	c #569CE2",
":.	c #192D41",
"<.	c #121F2D",
"[.	c #9FCBF7",
"}.	c #ABD1F6",
"|.	c #ACD2F6",
"1.	c #A2CDF7",
"2.	c #E6E8E9",
"3.	c #F9FBFE",
"4.	c #35608B",
"5.	c #2A4C6E",
"6.	c #5EA9F3",
"7.	c #60ACF9",
"8.	c #8EC3F8",
"9.	c #98C8F7",
"0.	c #91C5F8",
"a.	c #E3E6E9",
"b.	c #F7FAFD",
"c.	c #F4F9FD",
"d.	c #A1CAF2",
"e.	c #579DE4",
"f.	c #569BE1",
"g.	c #4C8AC6",
"h.	c #345D87",
"i.	c #63AFFB",
"j.	c #73ABE2",
"k.	c #B3C5D7",
"l.	c #96C4F1",
"m.	c #7EBCF9",
"n.	c #E1E5E8",
"o.	c #F4F8FD",
"p.	c #F2F7FD",
"q.	c #A0C9F1",
"r.	c #8CABC9",
"s.	c #9ABBDD",
"t.	c #5BA3EB",
"u.	c #589FE6",
"v.	c #579DE3",
"w.	c #5397DB",
"x.	c #3C6C9D",
"y.	c #61ACF9",
"z.	c #D6DEE5",
"A.	c #ECF4FC",
"B.	c #EFF5FC",
"C.	c #A5C9EC",
"D.	c #6AB2FB",
"E.	c #DEE3E8",
"F.	c #F0F7FC",
"G.	c #EFF6FC",
"H.	c #9FC8F1",
"I.	c #5CA2E9",
"J.	c #C9D3DC",
"K.	c #E4F0FB",
"L.	c #E1EEFA",
"M.	c #9DC3E9",
"N.	c #59A0E8",
"O.	c #589EE5",
"P.	c #569CE3",
"Q.	c #559BE0",
"R.	c #5499DD",
"S.	c #080E15",
"T.	c #386491",
"U.	c #60ABF6",
"V.	c #D4DDE5",
"W.	c #E9F3FB",
"X.	c #EBF4FC",
"Y.	c #EEF4FC",
"Z.	c #A5C7E9",
"`.	c #DBE1E8",
" +	c #EDF5FC",
".+	c #9FC3E7",
"++	c #D3DCE4",
"@+	c #E5F0FB",
"#+	c #E2EFFA",
"$+	c #DFEDFA",
"%+	c #9DC2E8",
"&+	c #559ADF",
"*+	c #5498DC",
"=+	c #04070A",
"-+	c #6C9CCA",
";+	c #E4EEF7",
">+	c #E8F2FB",
",+	c #EBF3FB",
"'+	c #E9F1FA",
")+	c #EAF3FB",
"!+	c #E6EFF8",
"~+	c #E3EFFA",
"{+	c #E0EDFA",
"]+	c #C9D8E8",
"^+	c #5AA1E8",
"/+	c #5499DE",
"(+	c #4F90D1",
"_+	c #1F3851",
":+	c #6C9AC9",
"<+	c #E3EDF7",
"[+	c #E6F1FB",
"}+	c #E4EFFB",
"|+	c #CBDAE8",
"1+	c #5AA2E8",
"2+	c #5498DD",
"3+	c #4176AB",
"4+	c #05080C",
"5+	c #6B9AC7",
"6+	c #E1ECF7",
"7+	c #E2EEFA",
"8+	c #CBDAE9",
"9+	c #5AA2E9",
"0+	c #264564",
"a+	c #3B6B9B",
"b+	c #5BA4EC",
"c+	c #5BA4EE",
"d+	c #5CA5EE",
"e+	c #DEEBF7",
"f+	c #DEECFA",
"g+	c #DDECFA",
"h+	c #CCDAE9",
"i+	c #5BA2E8",
"j+	c #569DE3",
"k+	c #5599DE",
"l+	c #5294D7",
"m+	c #0A1219",
"n+	c #111F2C",
"o+	c #599FE6",
"p+	c #5AA2EB",
"q+	c #5AA3EC",
"r+	c #6C98C5",
"s+	c #DCE9F6",
"t+	c #DCEBF9",
"u+	c #DBEAF9",
"v+	c #CCDBE9",
"w+	c #5BA1E8",
"x+	c #335D87",
"y+	c #3B6B9A",
"z+	c #6E9AC5",
"A+	c #B7C9DA",
"B+	c #B1C7DB",
"C+	c #5BA1E6",
"D+	c #5091D4",
"E+	c #0C151E",
"F+	c #050A0E",
"G+	c #4883BE",
"H+	c #569CE1",
"I+	c #5296D9",
"J+	c #1E364E",
"K+	c #091119",
"L+	c #4985C0",
"M+	c #5397DA",
"N+	c #5294D8",
"O+	c #264463",
"P+	c #3E71A3",
"Q+	c #559AE0",
"R+	c #5396DA",
"S+	c #4D8DCC",
"T+	c #192E42",
"U+	c #010102",
"V+	c #223E5A",
"W+	c #4F8FCD",
"X+	c #5295D9",
"Y+	c #386693",
"Z+	c #060A0F",
"`+	c #24425F",
" @	c #3F73A7",
".@	c #5297DA",
"+@	c #5397DC",
"@@	c #5296DA",
"#@	c #4A86C3",
"$@	c #30577E",
"%@	c #142434",
"&@	c #020406",
"*@	c #0A131B",
"=@	c #12202F",
"-@	c #0E1A25",
";@	c #060B0F",
"                                                                ",
"                      . . . . . . . . .                         ",
"                  . . . . . . . . . . . . . .                   ",
"              . . . . + @ # $ % & * = - . . . . .               ",
"            . . . ; > , ' ) ! ~ { ] ^ / ( _ . . . .             ",
"          . . . : < [ } } [ | 1 ! { ] 2 3 4 5 6 . . .           ",
"        . . . 7 8 9 0 a b c 9 [ 1 ! { d e f g h i . . .         ",
"      . . . j k l m n o p q r s [ 1 ~ t ^ 3 u v w x . .         ",
"      . . y z 9 m A B C D E F G l | H { I J K v L M N . .       ",
"    . . O P k Q R B S T U V W X Y Z ' ` ] e f g  ...+.. . .     ",
"    . . @.) [ #.A $.%.&.*.=.-.;.>.,.1 ~ ] 2 f g '.).!.+ . .     ",
"  . . . ~.) [ #.A $.%.&.{.=.].^./.(.1 ~ ] 2 f g '.)._.:.. .     ",
"  . . <.{ H k Q R B [.}.|.1.2.3./.(.' ` ] e f g  ..._.4.. . .   ",
"  . . 5.6.! 7.9 m o 8.D 9.0.a.b.c.d.H { I J K v L e.f.g.. . .   ",
"  . . h.] ~ ) [ i.j.k.l.F m.n.o.p.q.~ ^ r.s.t.v u.v.f.w.+ . .   ",
"  . . x.I 6.8 1 y.z.A.B.C.D.E.F.G.H.I.J.K.L.M.N.O.P.Q.R.S.. .   ",
"  . . T.2 ] { 8 U.V.W.X.Y.Z.`. +A..+++@+#+$+%+L .._.&+*+=+. .   ",
"  . . > 3 2 ] { ~ -+;+>+W.,+'+)+>+!+@+~+{+]+^+O.v.Q./+(+. . .   ",
"  . . _+K 3 2 I t { :+<+[+[+[+[+@+}+#+{+|+1+u.e._.&+2+3+. . .   ",
"  . . 4+v.K f J 2 I d 5+6+~+~+~+7+L.$+8+9+L .._.Q./+w.0+. .     ",
"    . . a+g u b+c+d+J e 5+e+$+$+f+g+h+i+L ).j+f.k+*+l+m+. .     ",
"    . . n+o+v g p+q+K f f r+s+t+u+v+w+u...j+f.&+2+w.x+. . .     ",
"    . . . y+u.'.4 v g g g g z+A+B+C+O.e._.f.&+2+w.D+E+. .       ",
"      . . F+G+).u.u. . . . .u.u.)...v.H+Q.k+2+w.I+J+. . .       ",
"        . . K+L+v.e.........e.v._.H+Q.&+/+*+M+N+O+. . .         ",
"        . . . F+P+f.H+H+H+H+f.Q.Q+&+/+2+w.R+S+T+. . .           ",
"          . . . U+V+W+&+&+&+k+/+2+*+w.R+X+Y+m+. . . .           ",
"            . . . . Z+`+ @.@+@w.M+@@#@$@%@. . . .               ",
"                . . . . . &@*@=@-@;@. . . . . .                 ",
"                  . . . . . . . . . . . . .                     ",
"                        . . . . . . . .                         ",
"                                                                "};
