/* XPM */
static const char * ICON_GOHOME_xpm[] = {
"32 32 339 2",
"  	c None",
". 	c #000000",
"+ 	c #0F0A01",
"@ 	c #614406",
"# 	c #7B5707",
"$ 	c #976A09",
"% 	c #896008",
"& 	c #704F06",
"* 	c #553C05",
"= 	c #070500",
"- 	c #030200",
"; 	c #7A5607",
"> 	c #CD900D",
", 	c #F3AB0F",
"' 	c #F2AA0F",
") 	c #F0A90E",
"! 	c #EDA70E",
"~ 	c #EAA50D",
"{ 	c #E5A10D",
"] 	c #E09E0C",
"^ 	c #D9990C",
"/ 	c #956908",
"( 	c #392803",
"_ 	c #3C2A03",
": 	c #E6A10E",
"< 	c #F9AF0F",
"[ 	c #FBB00F",
"} 	c #FBB010",
"| 	c #FAB00F",
"1 	c #F8AE0F",
"2 	c #F4AC0F",
"3 	c #EBA50E",
"4 	c #E5A20D",
"5 	c #DF9E0C",
"6 	c #D3950B",
"7 	c #966A07",
"8 	c #0C0801",
"9 	c #644706",
"0 	c #F3AC0F",
"a 	c #FDB210",
"b 	c #FFB414",
"c 	c #FFB519",
"d 	c #FFB61B",
"e 	c #FFB517",
"f 	c #FFB310",
"g 	c #F6AD0F",
"h 	c #EAA50E",
"i 	c #E4A10D",
"j 	c #DD9C0C",
"k 	c #D6980B",
"l 	c #CF930A",
"m 	c #B58109",
"n 	c #2B1E02",
"o 	c #644606",
"p 	c #FEB210",
"q 	c #FFB61C",
"r 	c #FFB928",
"s 	c #FFBB2F",
"t 	c #FFBC31",
"u 	c #FFBA2C",
"v 	c #DDA52E",
"w 	c #DACDB2",
"x 	c #D7BB7D",
"y 	c #F5AC10",
"z 	c #EFA80E",
"A 	c #E8A30D",
"B 	c #E19F0C",
"C 	c #DA9A0C",
"D 	c #D2950B",
"E 	c #CB900A",
"F 	c #BC8509",
"G 	c #231902",
"H 	c #362603",
"I 	c #FCB110",
"J 	c #FFBB2D",
"K 	c #FFBE3B",
"L 	c #FFC145",
"M 	c #FFC147",
"N 	c #C8AC74",
"O 	c #F8F5EE",
"P 	c #FBF8EF",
"Q 	c #FBF6EC",
"R 	c #EFE8D9",
"S 	c #EBAE2C",
"T 	c #CA9E3E",
"U 	c #C8A65C",
"V 	c #C4A45A",
"W 	c #D49E29",
"X 	c #CD910A",
"Y 	c #C58C09",
"Z 	c #AB7907",
"` 	c #050300",
" .	c #CF910C",
"..	c #FFB312",
"+.	c #FFB927",
"@.	c #FFBE3A",
"#.	c #FEC34C",
"$.	c #EFBB56",
"%.	c #D3CAB8",
"&.	c #FDFCF7",
"*.	c #FDFAF5",
"=.	c #FCF9F2",
"-.	c #FBF7EE",
";.	c #FAF6EA",
">.	c #F8F4E7",
",.	c #F0E9DA",
"'.	c #F8F0DF",
").	c #F7EEDB",
"!.	c #E1C689",
"~.	c #CF920A",
"{.	c #C78D09",
"].	c #BF8808",
"^.	c #705005",
"/.	c #634606",
"(.	c #F2AA0E",
"_.	c #FAAF0F",
":.	c #FFC043",
"<.	c #D5AE61",
"[.	c #EFECE8",
"}.	c #FEFEFC",
"|.	c #FEFDFB",
"1.	c #FDFBF7",
"2.	c #FCFAF3",
"3.	c #FBF6EB",
"4.	c #FAF4E7",
"5.	c #F9F2E3",
"6.	c #F8F1DF",
"7.	c #F7EFDB",
"8.	c #C88D09",
"9.	c #C08809",
"0.	c #B68108",
"a.	c #1D1501",
"b.	c #C58B0C",
"c.	c #FFB518",
"d.	c #FDB92E",
"e.	c #C7B083",
"f.	c #FBF9F4",
"g.	c #FEFDFA",
"h.	c #FFFEFE",
"i.	c #FDFCF8",
"j.	c #DFC58A",
"k.	c #C88E09",
"l.	c #B88308",
"m.	c #654904",
"n.	c #231802",
"o.	c #E9A40D",
"p.	c #F1AA0E",
"q.	c #E9A718",
"r.	c #D9CFBA",
"s.	c #FCF9F1",
"t.	c #FEFCF9",
"u.	c #FDFBF6",
"v.	c #FAF6EB",
"w.	c #F4ECD8",
"x.	c #C7A558",
"y.	c #BF8809",
"z.	c #9C6E06",
"A.	c #5D4205",
"B.	c #D39B22",
"C.	c #F4EFE2",
"D.	c #FDFBF5",
"E.	c #FCF8F0",
"F.	c #FBF7ED",
"G.	c #FAF5E9",
"H.	c #F9F3E6",
"I.	c #F8F2E2",
"J.	c #F8F0DE",
"K.	c #F7EEDA",
"L.	c #F6ECD6",
"M.	c #F5EBD3",
"N.	c #CEBA8D",
"O.	c #BE8708",
"P.	c #B78207",
"Q.	c #AF7D07",
"R.	c #191201",
"S.	c #765306",
"T.	c #ECA60E",
"U.	c #D6CAAD",
"V.	c #F9F4E6",
"W.	c #FAF5EA",
"X.	c #F9F3E4",
"Y.	c #F8F1E0",
"Z.	c #F7EFDD",
"`.	c #F6EED9",
" +	c #F5ECD5",
".+	c #F5EAD1",
"++	c #F4E8CD",
"@+	c #CCA444",
"#+	c #B58107",
"$+	c #AD7C06",
"%+	c #2C1F02",
"&+	c #8A6108",
"*+	c #E29F0D",
"=+	c #E8A40D",
"-+	c #D5BB84",
";+	c #FAF4E8",
">+	c #F9F3E5",
",+	c #F6EDD7",
"'+	c #F5EBD4",
")+	c #F4EAD0",
"!+	c #F3E9CF",
"~+	c #C4982C",
"{+	c #B38007",
"]+	c #AC7B06",
"^+	c #3B2A02",
"/+	c #825C07",
"(+	c #EDC162",
"_+	c #E6DBC1",
":+	c #FAF5E8",
"<+	c #F9F4E7",
"[+	c #F7EFDC",
"}+	c #F6ECD5",
"|+	c #F5EBD2",
"1+	c #E1C890",
"2+	c #C69421",
"3+	c #B17E07",
"4+	c #A97906",
"5+	c #362702",
"6+	c #6A4B06",
"7+	c #D9990B",
"8+	c #DF9D0C",
"9+	c #D0BA88",
"0+	c #F8F1E1",
"a+	c #F6EDD6",
"b+	c #C99825",
"c+	c #BC8508",
"d+	c #AE7C06",
"e+	c #A67706",
"f+	c #261B01",
"g+	c #4B3504",
"h+	c #D4960B",
"i+	c #DE9D0C",
"j+	c #E3A00D",
"k+	c #CEB886",
"l+	c #F8F2E1",
"m+	c #F7F0DE",
"n+	c #F4EAD1",
"o+	c #F4E9CE",
"p+	c #C59524",
"q+	c #AA7A06",
"r+	c #A37505",
"s+	c #0D0A00",
"t+	c #100C01",
"u+	c #CC900A",
"v+	c #D8980B",
"w+	c #DC9B0C",
"x+	c #CBB685",
"y+	c #F7F0DD",
"z+	c #F6EDD8",
"A+	c #F3E7CB",
"B+	c #C29224",
"C+	c #B48007",
"D+	c #815C04",
"E+	c #976B08",
"F+	c #D1940B",
"G+	c #D5970B",
"H+	c #C9B483",
"I+	c #F3E6C8",
"J+	c #BE8F24",
"K+	c #A27405",
"L+	c #4C3702",
"M+	c #362602",
"N+	c #CE920A",
"O+	c #C7B282",
"P+	c #F4E9CF",
"Q+	c #F2E5C6",
"R+	c #B98D23",
"S+	c #A47605",
"T+	c #946A05",
"U+	c #0B0800",
"V+	c #916707",
"W+	c #C48B09",
"X+	c #C19B45",
"Y+	c #F4E9D0",
"Z+	c #F3E8CC",
"`+	c #F3E7CA",
" @	c #F2E6C7",
".@	c #F2E5C5",
"+@	c #F1E6C8",
"@@	c #AC7D0A",
"#@	c #A57605",
"$@	c #9F7205",
"%@	c #473302",
"&@	c #150F01",
"*@	c #C28A09",
"=@	c #D1AA4F",
"-@	c #E3D4B2",
";@	c #E3D4B3",
">@	c #E2D4B2",
",@	c #E2D3B2",
"'@	c #E1D3B1",
")@	c #E1D2B0",
"!@	c #E0D2AF",
"~@	c #DFD0AE",
"{@	c #DECEAA",
"]@	c #BA9334",
"^@	c #A07205",
"/@	c #715203",
"(@	c #020200",
"_@	c #281D02",
":@	c #BB8508",
"<@	c #BD8608",
"[@	c #BD8708",
"}@	c #BC8608",
"|@	c #BA8408",
"1@	c #B78208",
"2@	c #AD7B06",
"3@	c #A87806",
"4@	c #A47505",
"5@	c #845F03",
"6@	c #080600",
"7@	c #211801",
"8@	c #9E7106",
"9@	c #B68207",
"0@	c #B68107",
"a@	c #B27F07",
"b@	c #B07E07",
"c@	c #AA7906",
"d@	c #9E7105",
"e@	c #705103",
"f@	c #6A4C04",
"g@	c #AD7C07",
"h@	c #AB7A06",
"i@	c #946B04",
"j@	c #402E02",
"k@	c #010000",
"l@	c #1C1401",
"m@	c #604503",
"n@	c #9D7006",
"o@	c #A77806",
"p@	c #A17405",
"q@	c #7D5A03",
"r@	c #463302",
"s@	c #181101",
"t@	c #2A1E01",
"u@	c #3D2C02",
"v@	c #342601",
"w@	c #241A01",
"x@	c #0E0A00",
"                                                                ",
"                        . . . . . . . . .                       ",
"                  . . . . . . . . . . . . . .                   ",
"              . . . . . + @ # $ % & * = . . . . .               ",
"            . . . - ; > , ' ) ! ~ { ] ^ / ( . . . .             ",
"          . . . _ : < [ } | 1 2 ) 3 4 5 ^ 6 7 8 . . .           ",
"        . . . 9 0 a b c d e f } g ) h i j k l m n . . .         ",
"      . . . o 1 p q r s t u v w x y z A B C D E F G . . .       ",
"      . . H ' I q J K L M N O P Q R S T U V W X Y Z + . .       ",
"    . . `  .1 ..+.@.#.$.%.&.*.=.-.;.>.,.'.).!.~.{.].^.. . .     ",
"    . . /.(._.e J :.<.[.}.|.1.2.P 3.4.5.6.7.!.l 8.9.0.a.. .     ",
"    . . b.(.| c.d.e.f.g.h.|.i.2.P 3.4.5.6.7.j.l k.9.l.m.. . .   ",
"  . . n.o.p.< q.r.s.*.i.g.t.u.=.P v.4.5.'.7.w.x.{.y.l.z.. . .   ",
"  . . A.A z B.C.Q P =.*.u.D.2.E.F.G.H.I.J.K.L.M.N.O.P.Q.R.. .   ",
"  . . S.{ T.U.V.W.F.P s.=.s.E.F.v.4.X.Y.Z.`. +.+++@+#+$+%+. .   ",
"  . . &+*+=+-+X.4.G.Q F.-.F.Q ;.;+>+I.J.7.,+'+)+!+~+{+]+^+. .   ",
"  . . /+j i ~ (+_+V.;+G.W.G.:+<+>+I.6.[+`.}+|+1+2+l.3+4+5+. .   ",
"  . . 6+7+8+i o.9+5.X.>+H.>+>+5.0+'.[+`.a+M.)+b+c+#+d+e+f+. .   ",
"  . . g+h+^ i+j+k+'.Y.0+I.l+0+6.m+[+`.,+'+n+o+p+l.3+q+r+s+. .   ",
"  . . t+u+6 v+w+x+7.[+y+y+y+Z.[+K.z+L.'+.+o+A+B+C+$+e+D+. . .   ",
"    . . E+X F+G+H+,+z+`.`.`.`.z+a+ +M.)+o+A+I+J+Q.4+K+L+. . .   ",
"    . . M+{.E N+O+M. + +}+}+ +'+M..+P+++A+I+Q+R+q+S+T+U+. .     ",
"    . . . V+W+{.X+Y+n+.+.+.+n+)+P+++Z+`+ @.@+@@@#@$@%@. . .     ",
"      . . &@Z 9.*@=@-@;@;@;@;@>@,@'@)@!@~@{@]@#@^@/@(@. .       ",
"      . . . _@0.:@<@O.].].O.[@}@|@1@C+3+2@3@4@$@5@6@. . .       ",
"        . . . 7@8@#+9@1@1@P.0@C+a@b@$+c@e+K+d@e@U+. . .         ",
"          . . . + f@g@Q.Q.Q.d+2@h@4+e+r+$@i@j@k@. . .           ",
"            . . . . l@m@n@o@e+#@r+p@$@q@r@` . . . .             ",
"              . . . . . . s@t@u@v@w@x@. . . . . .               ",
"                  . . . . . . . . . . . . . .                   ",
"                        . . . . . . . . .                       ",
"                                                                "};
