/* XPM */
static const char * ICON_EXIT_xpm[] = {
"32 32 222 2",
"  	c None",
". 	c #000000",
"+ 	c #242424",
"@ 	c #595959",
"# 	c #5A5A5A",
"$ 	c #575757",
"% 	c #535353",
"& 	c #505050",
"* 	c #4B4B4B",
"= 	c #464646",
"- 	c #424141",
"; 	c #3D3D3D",
"> 	c #373737",
", 	c #2F2F2F",
"' 	c #0D0D0D",
") 	c #605F5F",
"! 	c #E0DFDF",
"~ 	c #DCDBDB",
"{ 	c #D3D3D3",
"] 	c #BFBEBE",
"^ 	c #AAAAAA",
"/ 	c #939292",
"( 	c #878787",
"_ 	c #818181",
": 	c #7A7979",
"< 	c #727272",
"[ 	c #6A6A6A",
"} 	c #626262",
"| 	c #151515",
"1 	c #D7D7D7",
"2 	c #D3D2D2",
"3 	c #CECECE",
"4 	c #C9C8C8",
"5 	c #B8B7B7",
"6 	c #9F9F9F",
"7 	c #878686",
"8 	c #D5D4D4",
"9 	c #B3B3B3",
"0 	c #D6D6D6",
"a 	c #CAC9C9",
"b 	c #C6C5C5",
"c 	c #C1C1C1",
"d 	c #BDBCBC",
"e 	c #B1B1B1",
"f 	c #979797",
"g 	c #7A7A7A",
"h 	c #161616",
"i 	c #4E4D4D",
"j 	c #0C0C0C",
"k 	c #010101",
"l 	c #2E2E2E",
"m 	c #C7C6C6",
"n 	c #B8B8B8",
"o 	c #B4B4B4",
"p 	c #AFAFAF",
"q 	c #1B1B1B",
"r 	c #2C2B2B",
"s 	c #040303",
"t 	c #311E1F",
"u 	c #070707",
"v 	c #282828",
"w 	c #C2C2C2",
"x 	c #292828",
"y 	c #BC6C6C",
"z 	c #551D1D",
"A 	c #272727",
"B 	c #BEBDBD",
"C 	c #BF6D6E",
"D 	c #F25253",
"E 	c #581E1E",
"F 	c #262626",
"G 	c #BAB9B9",
"H 	c #050505",
"I 	c #F55354",
"J 	c #F35253",
"K 	c #5B1F1F",
"L 	c #252525",
"M 	c #B6B6B6",
"N 	c #828282",
"O 	c #707070",
"P 	c #6D6D6D",
"Q 	c #5F2021",
"R 	c #080808",
"S 	c #B2B1B1",
"T 	c #929292",
"U 	c #6E6E6E",
"V 	c #D27A7B",
"W 	c #F77B7C",
"X 	c #F77172",
"Y 	c #F45354",
"Z 	c #632222",
"` 	c #717171",
" .	c #515151",
"..	c #6F6F6F",
"+.	c #D16465",
"@.	c #672323",
"#.	c #ACACAC",
"$.	c #6C6C6C",
"%.	c #CE4749",
"&.	c #C14346",
"*.	c #E34D4F",
"=.	c #060606",
"-.	c #787878",
";.	c #1C1C1C",
">.	c #030303",
",.	c #030302",
"'.	c #C64549",
").	c #B64045",
"!.	c #B74045",
"~.	c #DD4C4E",
"{.	c #202020",
"].	c #121311",
"^.	c #0D0E0B",
"/.	c #ED5153",
"(.	c #EB5052",
"_.	c #E74F52",
":.	c #CD484D",
"<.	c #CF494D",
"[.	c #E95052",
"}.	c #242323",
"|.	c #ADADAD",
"1.	c #232422",
"2.	c #1C221A",
"3.	c #141813",
"4.	c #331616",
"5.	c #3D1515",
"6.	c #D44849",
"7.	c #E14D50",
"8.	c #E34E50",
"9.	c #EF5152",
"0.	c #252824",
"a.	c #242F22",
"b.	c #192118",
"c.	c #CD4546",
"d.	c #AEAEAE",
"e.	c #252924",
"f.	c #2D3E2A",
"g.	c #1F2B1C",
"h.	c #2A2B2A",
"i.	c #CA4445",
"j.	c #252424",
"k.	c #9E9E9E",
"l.	c #323532",
"m.	c #2E3F2A",
"n.	c #364C31",
"o.	c #243421",
"p.	c #2B2C2A",
"q.	c #C34243",
"r.	c #BCBBBB",
"s.	c #646664",
"t.	c #293228",
"u.	c #355332",
"v.	c #395935",
"w.	c #263C23",
"x.	c #2D2F2D",
"y.	c #2E1010",
"z.	c #040404",
"A.	c #A5A6A5",
"B.	c #323832",
"C.	c #2F4D2F",
"D.	c #3A6539",
"E.	c #3B6538",
"F.	c #3B6A3A",
"G.	c #244424",
"H.	c #4E524E",
"I.	c #C8C7C7",
"J.	c #636763",
"K.	c #2A3C29",
"L.	c #396C37",
"M.	c #3C713A",
"N.	c #3B733B",
"O.	c #3B783B",
"P.	c #3B7D3C",
"Q.	c #3B813D",
"R.	c #3B823D",
"S.	c #214922",
"T.	c #646A64",
"U.	c #C2C1C1",
"V.	c #A09F9F",
"W.	c #D4D4D4",
"X.	c #AAABAA",
"Y.	c #303B30",
"Z.	c #2E5E2F",
"`.	c #397A3A",
" +	c #397B3A",
".+	c #387E3A",
"++	c #36823A",
"@+	c #35873A",
"#+	c #34893B",
"$+	c #1D4D21",
"%+	c #636A64",
"&+	c #5F675F",
"*+	c #274429",
"=+	c #317B35",
"-+	c #338037",
";+	c #318337",
">+	c #2F8738",
",+	c #2D8A38",
"'+	c #2B8D38",
")+	c #184F1F",
"!+	c #636A63",
"~+	c #AEAFAE",
"{+	c #2C3D2E",
"]+	c #23692A",
"^+	c #288633",
"/+	c #268933",
"(+	c #248D34",
"_+	c #228F35",
":+	c #219035",
"<+	c #13511E",
"[+	c #4F5851",
"}+	c #5A665C",
"|+	c #1C4C24",
"1+	c #198A2F",
"2+	c #189031",
"3+	c #179232",
"4+	c #0B4718",
"5+	c #0C130E",
"6+	c #06200C",
"7+	c #06250D",
"8+	c #06230C",
"9+	c #000100",
"                                                                ",
"                . . . . . . . . . . . . . . . . . . . .         ",
"            . . . . . . . . . . . . . . . . . . . . . . . .     ",
"            . + @ # # $ % & * = - ; > , ' . . . . . . . . .     ",
"            . ) ! ~ { ] ^ / ( _ : < [ } | . . . . . . . . .     ",
"            . ) ! ~ 1 2 3 4 5 6 7 < [ } | . . . . . . . . .     ",
"            . ) 8 9 0 2 3 a b c d e f g h . . . . . . . . .     ",
"            . i j k l m 3 a b c d n o p q . . . . . . . . .     ",
"            . r s t u v w a b c d n o p q . . . . . . . . .     ",
"            . x . y z u A B b c d n o p q . . . . . . . . .     ",
"            . x . C D E u F G c d n o p q . . . . . . . . .     ",
"    . . . . . H . C I J K u L M d N O P q . . . . . . . . .     ",
"  . . . . . . . . C I I J Q R L S T O U q . . . . . . . . .     ",
"  . . V W W W W W X I I I Y Z R + `  ...q . . . . . . . . .     ",
"  . . +.I I I I I I I I I I Y @.R F } #.q . . . . . . . . .     ",
"  . . +.I I I I I I I I I I I I @.R $.p q . . . . . . . . .     ",
"  . . +.%.&.&.&.&.&.&.&.&.&.&.*.@.=.-.p ;.>.>.>.>.>.>.>.,..     ",
"  . . +.'.).).).).).).).).!.~.@.u + e p {.].].].].].].].^..     ",
"  . . +./.(.(.(.(._.:.:.<.[.Z u }.|.o p 1.2.2.2.2.2.2.2.3..     ",
"  . . 4.5.5.5.5.5.6.7.8.9.Q =.+ S n o p 0.a.a.a.a.a.a.a.b..     ",
"    . . . . . H . c.I J K =.+ M d n o d.e.f.f.f.f.f.f.f.g..     ",
"            . h.. i.D E H j.G c d n k.l.m.n.n.n.n.n.n.n.o..     ",
"            . p.. q.z H L B b c r.s.t.u.v.v.v.v.v.v.v.v.w..     ",
"            . x.>.y.z.L w a b A.B.C.D.D.D.D.D.D.D.D.E.F.G..     ",
"            . H.H H F m 3 I.J.K.L.M.M.M.M.M.M.N.O.P.Q.R.S..     ",
"            . T.U.V.W.2 X.Y.Z.`.`.`.`. +.+++@+#+#+#+#+#+$+.     ",
"            . %+! ~ W.&+*+=+-+-+;+>+,+'+'+'+'+'+'+'+'+'+)+.     ",
"            . !+! ~+{+]+^+/+(+_+:+:+:+:+:+:+:+:+:+:+:+:+<+.     ",
"            . [+}+|+1+2+3+3+3+3+3+3+3+3+3+3+3+3+3+3+3+3+4+.     ",
"            . 5+6+7+7+7+7+7+7+7+7+7+7+7+7+7+7+7+7+7+7+8+9+.     ",
"            . . . . . . . . . . . . . . . . . . . . . . .       ",
"                                                                "};
