/* XPM */
static const char * ICON_END_xpm[] = {
"32 32 359 2",
"  	c None",
". 	c #000000",
"+ 	c #2A1E02",
"@ 	c #624506",
"# 	c #7E5907",
"$ 	c #986B09",
"% 	c #865E08",
"& 	c #6C4C06",
"* 	c #523A04",
"= 	c #040300",
"- 	c #050300",
"; 	c #7F5907",
"> 	c #EAA40E",
", 	c #F4AB0F",
"' 	c #F3AB0F",
") 	c #F0A90E",
"! 	c #EDA70E",
"~ 	c #E9A40D",
"{ 	c #E5A10D",
"] 	c #DF9E0C",
"^ 	c #D8980C",
"/ 	c #8C6307",
"( 	c #181101",
"_ 	c #422F04",
": 	c #E9A40E",
"< 	c #FAAF0F",
"[ 	c #FBB010",
"} 	c #FBB110",
"| 	c #FAB00F",
"1 	c #F8AE0F",
"2 	c #F4AC0F",
"3 	c #EAA50E",
"4 	c #DF9D0C",
"5 	c #D8990B",
"6 	c #D1930B",
"7 	c #725106",
"8 	c #6C4C07",
"9 	c #F6AD0F",
"0 	c #FEB210",
"a 	c #FFB516",
"b 	c #FFB61C",
"c 	c #FFB518",
"d 	c #DCA837",
"e 	c #E9E5D9",
"f 	c #DFC68E",
"g 	c #EAA40D",
"h 	c #E3A00D",
"i 	c #DC9B0C",
"j 	c #D5970B",
"k 	c #CE920A",
"l 	c #9F7007",
"m 	c #140E01",
"n 	c #F9AF0F",
"o 	c #FFB311",
"p 	c #FFB720",
"q 	c #FFBA2B",
"r 	c #FFBC32",
"s 	c #FFBC33",
"t 	c #FFBB2D",
"u 	c #D9D4CA",
"v 	c #FCFAF3",
"w 	c #FBF8EF",
"x 	c #F4C053",
"y 	c #EEA70E",
"z 	c #E7A30D",
"A 	c #E09E0C",
"B 	c #D1940B",
"C 	c #C98F0A",
"D 	c #A47508",
"E 	c #0C0801",
"F 	c #3B2A03",
"G 	c #FFB71F",
"H 	c #FFBC31",
"I 	c #FFBF3F",
"J 	c #FFC248",
"K 	c #FFC249",
"L 	c #FFC041",
"M 	c #E7E5E2",
"N 	c #FDFBF7",
"O 	c #FCF9F1",
"P 	c #F1CC7A",
"Q 	c #F1AA0E",
"R 	c #EAA50D",
"S 	c #E2A00D",
"T 	c #DB9A0C",
"U 	c #D3950B",
"V 	c #CB900A",
"W 	c #C48B09",
"X 	c #916806",
"Y 	c #020100",
"Z 	c #070500",
"` 	c #D4950C",
" .	c #FFB415",
"..	c #FFBA2A",
"+.	c #FFBF3E",
"@.	c #FEC450",
"#.	c #FEC75D",
"$.	c #FEC85F",
"%.	c #FEC554",
"&.	c #E7E6E3",
"*.	c #F3CC7B",
"=.	c #ECA60E",
"-.	c #E4A10D",
";.	c #DC9C0C",
">.	c #D5960B",
",.	c #CD910A",
"'.	c #C58C09",
").	c #BD8708",
"!.	c #443003",
"~.	c #6A4B06",
"{.	c #FBB00F",
"].	c #FFB61A",
"^.	c #FFBB30",
"/.	c #FFC146",
"(.	c #FEC75C",
"_.	c #FECC70",
":.	c #FECD73",
"<.	c #FEC861",
"[.	c #E6E4DF",
"}.	c #FCFAF4",
"|.	c #F4CD7B",
"1.	c #F5AC0F",
"2.	c #DD9C0C",
"3.	c #C68C09",
"4.	c #BE8708",
"5.	c #A37406",
"6.	c #050400",
"7.	c #CB8F0C",
"8.	c #F3C469",
"9.	c #FECC71",
"0.	c #FECD74",
"a.	c #E5E2DB",
"b.	c #FBF6EC",
"c.	c #F4CD7A",
"d.	c #D69A16",
"e.	c #DEA21B",
"f.	c #B68207",
"g.	c #3A2902",
"h.	c #281D02",
"i.	c #F2AA0E",
"j.	c #CDC3AB",
"k.	c #F8F2E2",
"l.	c #F1ECE0",
"m.	c #FBCA6C",
"n.	c #FEC555",
"o.	c #E5E0D6",
"p.	c #FAF5EA",
"q.	c #FAF4E7",
"r.	c #F3CC7A",
"s.	c #B8A67F",
"t.	c #F6ECD7",
"u.	c #F5EBD4",
"v.	c #DCAD45",
"w.	c #B68107",
"x.	c #705004",
"y.	c #614405",
"z.	c #E8A30D",
"A.	c #EFA80E",
"B.	c #F7AD0F",
"C.	c #FDB620",
"D.	c #EBE4D3",
"E.	c #F8F0DE",
"F.	c #F8F2E1",
"G.	c #F5F0E3",
"H.	c #FAC55B",
"I.	c #E3DED2",
"J.	c #F9F3E5",
"K.	c #F1CB78",
"L.	c #BFAC81",
"M.	c #F6EDD7",
"N.	c #F5EBD3",
"O.	c #F4E9CE",
"P.	c #DCC48D",
"Q.	c #CC900A",
"R.	c #BC8608",
"S.	c #B48107",
"T.	c #9B6F05",
"U.	c #785506",
"V.	c #E5A20D",
"W.	c #B9A377",
"X.	c #F6EEDA",
"Y.	c #F7EFDC",
"Z.	c #F8F0DF",
"`.	c #F4EFE0",
" +	c #EBE5D7",
".+	c #F7F0DD",
"++	c #DFD4BD",
"@+	c #F4E9CF",
"#+	c #F3E9D1",
"$+	c #D59F23",
"%+	c #CA8F0A",
"&+	c #C28A09",
"*+	c #BA8508",
"=+	c #B38007",
"-+	c #A97906",
";+	c #030200",
">+	c #8B6208",
",+	c #E29F0D",
"'+	c #E8A40D",
")+	c #FDB210",
"!+	c #C3B38E",
"~+	c #F6EED9",
"{+	c #F7EEDA",
"]+	c #F6EDD8",
"^+	c #F6ECD6",
"/+	c #F1E8CF",
"(+	c #D6A73A",
"_+	c #C78D09",
":+	c #C08809",
"<+	c #B88308",
"[+	c #B17E07",
"}+	c #110C01",
"|+	c #7F5A06",
"1+	c #E4A00D",
"2+	c #F7AE0F",
"3+	c #F9B00F",
"4+	c #C3B28C",
"5+	c #F5ECD4",
"6+	c #F5EBD2",
"7+	c #F4EAD0",
"8+	c #F1E7CF",
"9+	c #D9A83A",
"0+	c #D2940B",
"a+	c #BD8608",
"b+	c #AE7C06",
"c+	c #A77706",
"d+	c #090600",
"e+	c #674905",
"f+	c #DE9D0C",
"g+	c #C1B18A",
"h+	c #F4E8CD",
"i+	c #F3E7CB",
"j+	c #F1E6CE",
"k+	c #DAA93B",
"l+	c #D4960B",
"m+	c #CD920A",
"n+	c #C08909",
"o+	c #B98408",
"p+	c #B27F07",
"q+	c #AB7A06",
"r+	c #9C6F05",
"s+	c #D9990B",
"t+	c #DE9C0C",
"u+	c #E6A20D",
"v+	c #EBA50E",
"w+	c #EBA60E",
"x+	c #BFAE88",
"y+	c #F3E6C9",
"z+	c #F2E6C7",
"A+	c #F1E6CB",
"B+	c #CF920A",
"C+	c #C98E0A",
"D+	c #C38A09",
"E+	c #B58107",
"F+	c #AF7D07",
"G+	c #A87806",
"H+	c #7F5A04",
"I+	c #0B0801",
"J+	c #C88E0A",
"K+	c #D7980B",
"L+	c #DB9B0C",
"M+	c #E19F0D",
"N+	c #BBAA83",
"O+	c #E7DCC1",
"P+	c #E5DABF",
"Q+	c #D8A228",
"R+	c #A47505",
"S+	c #4B3602",
"T+	c #8B6206",
"U+	c #CC910A",
"V+	c #DA9A0C",
"W+	c #C38C0F",
"X+	c #B58417",
"Y+	c #B68417",
"Z+	c #B58317",
"`+	c #B38217",
" @	c #B28116",
".@	c #AF8016",
"+@	c #AC7E16",
"@@	c #A97C15",
"#@	c #A67A15",
"$@	c #B6820C",
"%@	c #B98308",
"&@	c #B37F07",
"*@	c #AD7B06",
"=@	c #A67706",
"-@	c #9F7305",
";@	c #150F01",
">@	c #261B02",
",@	c #C58B09",
"'@	c #D0930A",
")@	c #A48C55",
"!@	c #F3E8CE",
"~@	c #F3E8CB",
"{@	c #F3E7CA",
"]@	c #F2E5C5",
"^@	c #F1E3C2",
"/@	c #F1E2C0",
"(@	c #C0A976",
"_@	c #A27405",
":@	c #614603",
"<@	c #795605",
"[@	c #D9CEB7",
"}@	c #F3E7C9",
"|@	c #F3E6C8",
"1@	c #F1E4C3",
"2@	c #F1E3C1",
"3@	c #F0E2BE",
"4@	c #F0E1BD",
"5@	c #EFE3C7",
"6@	c #A37405",
"7@	c #9A6E04",
"8@	c #120D00",
"9@	c #090700",
"0@	c #9B6E07",
"a@	c #BF8708",
"b@	c #C18909",
"c@	c #BEA771",
"d@	c #F2E5C6",
"e@	c #F2E4C4",
"f@	c #F0E2BF",
"g@	c #F0E1BE",
"h@	c #DCCDA9",
"i@	c #9C7004",
"j@	c #2F2101",
"k@	c #171001",
"l@	c #AC7A08",
"m@	c #BB8508",
"n@	c #C5972A",
"o@	c #D4AE5A",
"p@	c #D3AE5A",
"q@	c #D1AD59",
"r@	c #D0AC59",
"s@	c #CEAB58",
"t@	c #CCAA58",
"u@	c #CAA858",
"v@	c #C29F4A",
"w@	c #3A2A02",
"x@	c #0E0A01",
"y@	c #866005",
"z@	c #B48007",
"A@	c #B07E07",
"B@	c #A77806",
"C@	c #A07205",
"D@	c #936A04",
"E@	c #453202",
"F@	c #AD7C06",
"G@	c #AC7B06",
"H@	c #A07305",
"I@	c #604503",
"J@	c #6D4E03",
"K@	c #916804",
"L@	c #A47605",
"M@	c #A37505",
"N@	c #A17405",
"O@	c #9E7105",
"P@	c #7E5B03",
"Q@	c #493502",
"R@	c #080600",
"                                                                ",
"                      . . . . . . . . .                         ",
"                  . . . . . . . . . . . . . .                   ",
"              . . . . . + @ # $ % & * = . . . . .               ",
"            . . . - ; > , ' ) ! ~ { ] ^ / ( . . . .             ",
"          . . . _ : < [ } | 1 2 ) 3 { 4 5 6 7 = . . .           ",
"        . . . 8 9 0 a b b c d e f ) g h i j k l m . . .         ",
"      . . . 8 n o p q r s t u v w x y z A 5 B C D E . .         ",
"      . . F , 0 G H I J K L M N O P Q R S T U V W X Y . .       ",
"    . . Z ` n  ...+.@.#.$.%.&.N O *.' =.-.;.>.,.'.).!.. . .     ",
"    . . ~.' {.].^./.(._.:.<.[.}.w |.1.! { 2.j k 3.4.5.6.. .     ",
"  . . . 7.' {.].^./.8.9.0.<.a.w b.c.1.! d.e.j k 3.4.f.g.. .     ",
"  . . h.3 i.n  ...j.k.l.m.n.o.p.q.r.' s.t.u.v.,.'.).w.x.. . .   ",
"  . . y.z.A.B.0 C.D.E.F.G.H.I.J.k.K.L.M.N.O.P.Q.W R.S.T.. . .   ",
"  . . U.V.=.' < o W.X.Y.Z.`. +Z..+++M.u.@+#+$+%+&+*+=+-+;+. .   ",
"  . . >+,+'+A.2 < )+!+M.~+{+{+~+]+^+N.@+/+(+k _+:+<+[+-+}+. .   ",
"  . . |+2.1+~ A.' 2+3+4+N.5+5+u.6+7+O.8+9+0+V W a+w.b+c+d+. .   ",
"  . . e+5 f+-.~ ! ) ' ' g+@+@+O.h+i+j+k+l+m+_+n+o+p+q+r+. . .   ",
"  . . !.U s+t+,+u+~ v+=.w+x+y+y+z+A+k+l+B+C+D+R.E+F+G+H+. . .   ",
"  . . I+J+U K+L+4 M+h -.-.1+N+O+P+Q+l+B+C W 4.<+[+q+R+S+. .     ",
"    . . T+U+B l+K+V+W+X+Y+Z+`+ @.@+@@@#@$@4.%@&@*@=@-@;@. .     ",
"    . . >@,@%+,.'@)@!@O.O.O.h+~@{@z+]@^@/@(@=+b+G+_@:@. . .     ",
"    . . . <@D+3.C+[@}@{@{@}@|@z+]@1@2@3@4@5@b+G+6@7@8@. .       ",
"      . . 9@0@a@b@c@d@]@]@e@e@^@2@f@4@4@g@h@G+_@i@j@. . .       ",
"        . . k@l@o+m@n@o@o@o@p@q@r@s@t@u@v@=@_@i@w@. . .         ",
"        . . . x@y@z@E+E+E+E+z@p+A@b+q+B@R+C@D@j@. . .           ",
"          . . . ;+E@r+F@b+F@G@q+-+=@R+H@i@I@8@. . .             ",
"            . . . . Z g.J@K@L@M@N@O@P@Q@;@. . . .               ",
"                . . . . . . . m R@. . . . . . .                 ",
"                  . . . . . . . . . . . . .                     ",
"                        . . . . . . .                           ",
"                                                                "};
