/* XPM */
static const char * ICON_FULLSCREEN_xpm[] = {
"32 32 68 1",
" 	c None",
".	c #000000",
"+	c #010101",
"@	c #020202",
"#	c #464646",
"$	c #C1C1C1",
"%	c #D5D5D5",
"&	c #D4D4D4",
"*	c #D3D3D3",
"=	c #D1D1D1",
"-	c #D0D0D0",
";	c #CFCFCF",
">	c #CDCDCD",
",	c #CCCCCC",
"'	c #C9C9C9",
")	c #C8C8C8",
"!	c #C5C5C5",
"~	c #B8B8B8",
"{	c #555555",
"]	c #191919",
"^	c #EFEFEF",
"/	c #F4F4F4",
"(	c #EDEDED",
"_	c #ECECEC",
":	c #EBEBEB",
"<	c #EAEAEA",
"[	c #E6E6E6",
"}	c #323232",
"|	c #3C3C3C",
"1	c #A9A9A9",
"2	c #515151",
"3	c #666666",
"4	c #676767",
"5	c #585858",
"6	c #6A6A6A",
"7	c #535353",
"8	c #868686",
"9	c #383838",
"0	c #C0C0C0",
"a	c #6F6F6F",
"b	c #353535",
"c	c #525252",
"d	c #373737",
"e	c #858585",
"f	c #848484",
"g	c #838383",
"h	c #CACACA",
"i	c #818181",
"j	c #828282",
"k	c #2F2F2F",
"l	c #A3A3A3",
"m	c #AAAAAA",
"n	c #5E5E5E",
"o	c #313131",
"p	c #C2C2C2",
"q	c #909090",
"r	c #8F8F8F",
"s	c #474747",
"t	c #040404",
"u	c #9B9B9B",
"v	c #E9E9E9",
"w	c #B2B2B2",
"x	c #0B0B0B",
"y	c #030303",
"z	c #484848",
"A	c #505050",
"B	c #3D3D3D",
"C	c #070707",
"    ........................    ",
"  ..+@@@@@@@@@@@@@@@@@@@@@@+..  ",
"  .#$%&%&***=--;>,,,''')!!!~{+. ",
" .]^/(___::::::::::::<<<<<<<[}. ",
" .|123444444444444444444444567. ",
" .|890'''''''''''''''''''''abc. ",
" .|8d0'''''''''''''''''''''abc. ",
" .|8d0'''''''''''''''''''''abc. ",
" .|8d0'''''''''''''''''''''abc. ",
" .|ed0'''''''''''''''''''''abc. ",
" .|ed0'''''''''''''''''''''abc. ",
" .|ed0'''''''''''''''''''''abc. ",
" .|ed0'''''''''''''''''''''abc. ",
" .|ed0'''''''''''''''''''''abc. ",
" .|ed0'''''''''''''''''''''abc. ",
" .|ed0'''''''''''''''''''''abc. ",
" .|fd0'''''''''''''''''''''abc. ",
" .|gd0'''''''''''hhh'''''''abc. ",
" .|gd0''''''''''hhhhh''''''abc. ",
" .|id0'''''''''''''''''''''abc. ",
" .|jd0'''''''''''''''''''''abc. ",
" .|gd0'''''''''''''''''''''abc. ",
" .|gd0'''''''''''''''''''''abc. ",
" .|gd0'''''''''''''''''''''abc. ",
" .|gd0'''''''''''''''''''''abc. ",
" .|gd0'''''''''''''''''''''abc. ",
" .|gklmmmmmmmmmmmmmmmmmmmmmnbc. ",
" .opqqqqqqqqqqqqqqqqqqqqqqqrls. ",
" .tuv<<<<<<<<<<<<<<<<<<<<<<<wx. ",
"  .yozA777777ccccccccccccccBC.. ",
"   ..........................   ",
"                                "};
