/* XPM */
static const char * ICON_ORG_xpm[] = {
"32 32 6 1",
" 	c None",
".	c #000000",
"+	c #FF0000",
"@	c #FFFF00",
"#	c #00FF00",
"$	c #0000FF",
"                                ",
"                                ",
"             ..............     ",
"             .++++++++++++.     ",
"             .++++++++++++.     ",
"             .++++++++++++.     ",
"             ..............     ",
"                                ",
"           ..........           ",
"           .@@@@@@@@.           ",
"   .............@@@@.           ",
"   .###########.@@@@. .......   ",
"   .###########.@@@@. .$$$$$.   ",
"   .###########.@@@@. .$$$$$.   ",
"   .###########.@@@@. .$$$$$.   ",
"   .###########.@@@@. .$$$$$.   ",
"   .###########.@@@@. .$$$$$.   ",
"   .###########.@@@@. .$$$$$.   ",
"   .###########.@@@@. .$$$$$.   ",
"   .###########.@@@@. .$$$$$.   ",
"   .###########.@@@@. .$$$$$.   ",
"   .###########.@@@@. .$$$$$.   ",
"   .............@@@@. .$$$$$.   ",
"           .@@@@@@@@. .$$$$$.   ",
"           .@@@@@@@@. .$$$$$.   ",
"           .@@@@@@@@. .$$$$$.   ",
"           .@@@@@@@@. .$$$$$.   ",
"           .@@@@@@@@. .......   ",
"           ..........           ",
"                                ",
"                                ",
"                                "};
