/* XPM */
static const char * ICON_FILESYSTEM_xpm[] = {
"32 32 122 2",
"  	c None",
". 	c #000000",
"+ 	c #050505",
"@ 	c #494949",
"# 	c #636363",
"$ 	c #626262",
"% 	c #616161",
"& 	c #5F5F5F",
"* 	c #5D5D5D",
"= 	c #5C5C5C",
"- 	c #5B5B5B",
"; 	c #363636",
"> 	c #020202",
", 	c #A1A1A1",
"' 	c #F8F8F8",
") 	c #DEDEDE",
"! 	c #EDEDED",
"~ 	c #F4F4F4",
"{ 	c #F2F2F2",
"] 	c #F1F1F1",
"^ 	c #F0F0F0",
"/ 	c #EEEEEE",
"( 	c #EAEAEA",
"_ 	c #ECECEC",
": 	c #EBEBEB",
"< 	c #E8E8E8",
"[ 	c #767676",
"} 	c #1B1B1B",
"| 	c #6A6A6A",
"1 	c #3C3C3C",
"2 	c #C8C8C8",
"3 	c #CBCBCB",
"4 	c #D4D4D4",
"5 	c #E9E9E9",
"6 	c #D1D1D1",
"7 	c #E4E4E4",
"8 	c #ADADAD",
"9 	c #ACACAC",
"0 	c #ABABAB",
"a 	c #D2D2D2",
"b 	c #D0D0D0",
"c 	c #222222",
"d 	c #F5F5F5",
"e 	c #121212",
"f 	c #010101",
"g 	c #232323",
"h 	c #282828",
"i 	c #272727",
"j 	c #CFCFCF",
"k 	c #545454",
"l 	c #959595",
"m 	c #797979",
"n 	c #929292",
"o 	c #080808",
"p 	c #727272",
"q 	c #070707",
"r 	c #484848",
"s 	c #E6E6E6",
"t 	c #707070",
"u 	c #C9C9C9",
"v 	c #A4A4A4",
"w 	c #E0E0E0",
"x 	c #848484",
"y 	c #BEBEBE",
"z 	c #7E7E7E",
"A 	c #202020",
"B 	c #404040",
"C 	c #1D1D1D",
"D 	c #F3F3F3",
"E 	c #111111",
"F 	c #383838",
"G 	c #424242",
"H 	c #151515",
"I 	c #888888",
"J 	c #040404",
"K 	c #0B0B0B",
"L 	c #A9A9A9",
"M 	c #BABABA",
"N 	c #C7C7C7",
"O 	c #B7B7B7",
"P 	c #8F8F8F",
"Q 	c #C5C5C5",
"R 	c #868686",
"S 	c #0A0A0A",
"T 	c #A7A7A7",
"U 	c #141414",
"V 	c #3B3B3B",
"W 	c #393939",
"X 	c #CACACA",
"Y 	c #7F7F7F",
"Z 	c #646464",
"` 	c #323232",
" .	c #B0B0B0",
"..	c #828282",
"+.	c #818181",
"@.	c #C1C1C1",
"#.	c #9B9B9B",
"$.	c #CDCDCD",
"%.	c #8E8E8E",
"&.	c #060606",
"*.	c #0E0E0E",
"=.	c #171717",
"-.	c #3F3F3F",
";.	c #101010",
">.	c #373737",
",.	c #030303",
"'.	c #A6A6A6",
").	c #7B7B7B",
"!.	c #B6B6B6",
"~.	c #6E6E6E",
"{.	c #C6C6C6",
"].	c #A2A2A2",
"^.	c #DBDBDB",
"/.	c #717171",
"(.	c #9D9D9D",
"_.	c #DFDFDF",
":.	c #777777",
"<.	c #656565",
"[.	c #6C6C6C",
"}.	c #6F6F6F",
"|.	c #6D6D6D",
"1.	c #414141",
"                                                                ",
"      . . . . . . . . . . . . . . . . . . . . . . . . . .       ",
"    . + @ # # # # # # # # # # # $ $ $ % & & & * = = - ; > .     ",
"  . > , ' ) ! ~ { ] ] ^ / ! ( ! _ : : : : ( ( ( ( ( ( < [ . .   ",
"  . } ~ | + 1 2 3 3 3 3 4 5 6 7 8 9 9 0 0 0 0 0 0 0 0 a b + .   ",
"  . c d e . f g h h i i & < 6 j k l l l l l l l l l m n 4 o .   ",
"  . c d p q r s : : ( ( ( < b j t u u u u u u u u u v n 4 o .   ",
"  . c ~ ( w 0 x y : ( ( ( < 6 j t u u u u u u u u u v n 4 o .   ",
"  . c ~ : z > . > A B B C < 6 j t u u u u u u u u u v n 4 o .   ",
"  . c D : E f f f F ( ( G < 6 j t u u u u u u u u u v n 4 o .   ",
"  . c { : H f f f 1 ( ( G < 6 j t u u u u u u u u u v n 4 o .   ",
"  . c ] 5 I J f K L ( ( G < 6 j t u u u u u u u u u v n 4 o .   ",
"  . c ] ( ( M n N ( ( ( G < 6 j t u u u u u u u u u v n 4 o .   ",
"  . c ] ( ( ( ( ( ( ( ( G < 6 j t u u u u u u u u u v n 4 o .   ",
"  . c ] ( ( O P Q ( ( ( G < b j t u u u u u u u u u v n 4 o .   ",
"  . c ] ( R J f S T ( ( G < 6 j t u u u u u u u u u v n 4 o .   ",
"  . c ^ ( U f f f V ( ( G < 6 j t u u u u u u u u u v n 4 o .   ",
"  . c / ( e f f f W ( ( G < 6 j t u u u u u X u u u v n 4 o .   ",
"  . c / ( Y > f f Z L L ` < 6 j t u u u u u X X u u v n 4 o .   ",
"  . c : ( 5  ...+.+.+.+.h < 6 j t u u u u u X u u u v n 4 o .   ",
"  . c : ( ( ( ( ( ( ( ( G < 6 j t u u u u u u u u u v n 4 o .   ",
"  . c ! ( ( @.#.$.( ( ( G < 6 j t u u u u u u u u u v n 4 o .   ",
"  . c / ( %.&.f *.8 ( ( G < 6 j t u u u u u u u u u v n 4 o .   ",
"  . c / ( =.f f f -.( ( G < 6 j t u u u u u u u u u v n 4 o .   ",
"  . c ! ( ;.f f f >.( ( G < b j t u u u u u u u u u v n 4 o .   ",
"  . c ! ( [ f . ,.; B B B < 6 j t u u u u u u u u u v n 4 o .   ",
"  . c ! ( 5 '.).!.( ( ( ( < b j ~.{.{.{.{.{.{.{.{.{.].n 4 o .   ",
"  . C 5 ( ( ( ( ( ( ( ( ( < 6 ^./.t t t t t t t t t t M j + .   ",
"  . > (.5 ( ( ( ( ( ( ( ( 5 _.( ( ( ( ( ( ( ( ( ( ( ( < :.. .   ",
"    . &.r <.[.t t t t t t }.}.}.}.}.}.}.}.}.}.}.}.}.|.1.,..     ",
"      . . . . . . . . . . . . . . . . . . . . . . . . . .       ",
"                                                                "};
