/* XPM */
static const char * ICON_ZOOM_FIT_xpm[] = {
"32 32 378 2",
"  	c None",
". 	c #010101",
"+ 	c #010100",
"@ 	c #000000",
"# 	c #020202",
"$ 	c #111111",
"% 	c #363535",
"& 	c #595958",
"* 	c #7C7C7A",
"= 	c #868685",
"- 	c #767676",
"; 	c #6A6A6A",
"> 	c #4C4C4C",
", 	c #2D2D2D",
"' 	c #0F0F0F",
") 	c #474746",
"! 	c #898887",
"~ 	c #A9A9A7",
"{ 	c #A4A3A2",
"] 	c #8F8F8D",
"^ 	c #828281",
"/ 	c #797979",
"( 	c #838383",
"_ 	c #939393",
": 	c #929292",
"< 	c #717171",
"[ 	c #3C3C3C",
"} 	c #272726",
"| 	c #828280",
"1 	c #AAA9A7",
"2 	c #7B7B7A",
"3 	c #383839",
"4 	c #131314",
"5 	c #020100",
"6 	c #141515",
"7 	c #3A3A3A",
"8 	c #747474",
"9 	c #949494",
"0 	c #6C6C6C",
"a 	c #212121",
"b 	c #1C1C1C",
"c 	c #989896",
"d 	c #A1A09F",
"e 	c #434343",
"f 	c #040303",
"g 	c #0A0E19",
"h 	c #0C1735",
"i 	c #111D3F",
"j 	c #121D3E",
"k 	c #0F1834",
"l 	c #0C1019",
"m 	c #020303",
"n 	c #919191",
"o 	c #7F7F7F",
"p 	c #181818",
"q 	c #222221",
"r 	c #969593",
"s 	c #888887",
"t 	c #292929",
"u 	c #030305",
"v 	c #0C1221",
"w 	c #3A4E85",
"x 	c #8999C9",
"y 	c #B8C2E1",
"z 	c #C4CCE5",
"A 	c #BFC8E3",
"B 	c #ACB7DA",
"C 	c #6676AF",
"D 	c #2E3C70",
"E 	c #0F131F",
"F 	c #2A2A2A",
"G 	c #7C7C7C",
"H 	c #1D1D1D",
"I 	c #777775",
"J 	c #A4A4A2",
"K 	c #2C2C2C",
"L 	c #030302",
"M 	c #15203E",
"N 	c #6174A9",
"O 	c #E0E5F1",
"P 	c #F1F3F8",
"Q 	c #F1F4F8",
"R 	c #ECF0F6",
"S 	c #E4EAF3",
"T 	c #DCE4F0",
"U 	c #C1CBE1",
"V 	c #5763A2",
"W 	c #384480",
"X 	c #1C223A",
"Y 	c #030202",
"Z 	c #2E2E2E",
"` 	c #636363",
" .	c #353534",
"..	c #AEADAB",
"+.	c #505050",
"@.	c #020304",
"#.	c #131E3A",
"$.	c #94A1C9",
"%.	c #CFD1D6",
"&.	c #D0D2D4",
"*.	c #DADDE2",
"=.	c #E9EEF6",
"-.	c #E2E8F2",
";.	c #D9E2EE",
">.	c #D5DFEF",
",.	c #A2ABBB",
"'.	c #3D4361",
").	c #22284E",
"!.	c #333B73",
"~.	c #1B2036",
"{.	c #4F4F4F",
"].	c #959595",
"^.	c #080808",
"/.	c #767674",
"(.	c #8C8B8A",
"_.	c #1A1A1A",
":.	c #0B0F19",
"<.	c #4D619A",
"[.	c #D3D4DA",
"}.	c #8B8B8D",
"|.	c #919294",
"1.	c #B5B8BD",
"2.	c #E5EBF6",
"3.	c #DBE3EF",
"4.	c #D3DCEC",
"5.	c #D4DFF1",
"6.	c #626873",
"7.	c #0C0C15",
"8.	c #05050A",
"9.	c #212643",
"0.	c #3E467C",
"a.	c #0F1018",
"b.	c #1B1B1B",
"c.	c #818181",
"d.	c #626262",
"e.	c #070707",
"f.	c #242424",
"g.	c #A2A2A0",
"h.	c #504F50",
"i.	c #293A68",
"j.	c #D2D8EA",
"k.	c #DBDCDE",
"l.	c #8E8F91",
"m.	c #EAEEF6",
"n.	c #E4EAF4",
"o.	c #DAE2EF",
"p.	c #D3DDED",
"q.	c #CCD7E9",
"r.	c #C9D5E8",
"s.	c #949DC3",
"t.	c #1A1B29",
"u.	c #292C45",
"v.	c #383C5D",
"w.	c #888888",
"x.	c #1F1F1F",
"y.	c #3A3A39",
"z.	c #2B2B2C",
"A.	c #07090A",
"B.	c #6678AE",
"C.	c #EBEEF6",
"D.	c #E4E6EC",
"E.	c #C4C7CD",
"F.	c #E2E7F2",
"G.	c #CDD9EA",
"H.	c #C7D4E7",
"I.	c #B6C1DA",
"J.	c #494968",
"K.	c #53547A",
"L.	c #5C6092",
"M.	c #080809",
"N.	c #323232",
"O.	c #555454",
"P.	c #A5A4A3",
"Q.	c #111112",
"R.	c #0B1120",
"S.	c #9DA9D1",
"T.	c #EEF1F7",
"U.	c #E8EDF5",
"V.	c #E4E9F3",
"W.	c #CCD8E9",
"X.	c #C6D4E7",
"Y.	c #B7C3DC",
"Z.	c #9093BB",
"`.	c #1A1B23",
" +	c #141414",
".+	c #494949",
"++	c #5C5B5B",
"@+	c #9B9B9A",
"#+	c #0A0A0B",
"$+	c #0C1328",
"%+	c #A8B3D6",
"&+	c #EBEEF5",
"*+	c #BCC8DF",
"=+	c #999CC1",
"-+	c #24242F",
";+	c #0C0C0C",
">+	c #8F8F8F",
",+	c #515151",
"'+	c #909090",
")+	c #0E0E0F",
"!+	c #0D1325",
"~+	c #9EA9D0",
"{+	c #E2E8F1",
"]+	c #D9E1EE",
"^+	c #D2DCEC",
"/+	c #C6D3E6",
"(+	c #B3BDD7",
"_+	c #9798BE",
":+	c #24242C",
"<+	c #171717",
"[+	c #A0A09F",
"}+	c #4E4E4E",
"|+	c #414141",
"1+	c #0C1018",
"2+	c #717FB3",
"3+	c #D6DEED",
"4+	c #D8E2F1",
"5+	c #D5E0F2",
"6+	c #BFCBE1",
"7+	c #A6ADCD",
"8+	c #17171B",
"9+	c #292928",
"0+	c #A9A8A6",
"a+	c #3F3F3F",
"b+	c #272727",
"c+	c #3E3E3E",
"d+	c #020302",
"e+	c #323D73",
"f+	c #606BA5",
"g+	c #757D99",
"h+	c #3A3E47",
"i+	c #58575D",
"j+	c #706E7A",
"k+	c #828198",
"l+	c #020201",
"m+	c #50504F",
"n+	c #9D9D9C",
"o+	c #262626",
"p+	c #151515",
"q+	c #656565",
"r+	c #090909",
"s+	c #1C2137",
"t+	c #2E335B",
"u+	c #0C0C13",
"v+	c #3D3D3F",
"w+	c #5A5961",
"x+	c #404049",
"y+	c #0B0B0B",
"z+	c #7E7D7B",
"A+	c #818180",
"B+	c #484848",
"C+	c #06080C",
"D+	c #2A3056",
"E+	c #2F355E",
"F+	c #06070B",
"G+	c #15151F",
"H+	c #404155",
"I+	c #6C6C6F",
"J+	c #2E2E2F",
"K+	c #0F0F10",
"L+	c #5D5C63",
"M+	c #73727E",
"N+	c #3C3C3B",
"O+	c #A8A7A5",
"P+	c #464646",
"Q+	c #101010",
"R+	c #8C8C8C",
"S+	c #060606",
"T+	c #0A0C12",
"U+	c #3C4370",
"V+	c #303352",
"W+	c #373851",
"X+	c #5C5C7C",
"Y+	c #9A98A1",
"Z+	c #6A6A6F",
"`+	c #6C6B72",
" @	c #878691",
".@	c #171719",
"+@	c #8E8D8B",
"@@	c #999998",
"#@	c #5D5D5D",
"$@	c #0D0D0D",
"%@	c #0B0C11",
"&@	c #343855",
"*@	c #6B6B73",
"=@	c #161517",
"-@	c #0E0E0E",
";@	c #6F6F6D",
">@	c #474747",
",@	c #616161",
"'@	c #060709",
")@	c #1F212C",
"!@	c #4B4C67",
"~@	c #7C7CA1",
"{@	c #9F9EB6",
"]@	c #706F7B",
"^@	c #343337",
"/@	c #737371",
"(@	c #A7A6A4",
"_@	c #676767",
":@	c #181918",
"<@	c #3D3D3D",
"[@	c #030303",
"}@	c #040404",
"|@	c #0D0D0F",
"1@	c #151414",
"2@	c #494847",
"3@	c #979694",
"4@	c #9F9E9D",
"5@	c #8B8B8B",
"6@	c #969696",
"7@	c #9BAA94",
"8@	c #4E6B49",
"9@	c #0C130C",
"0@	c #000100",
"a@	c #313131",
"b@	c #555555",
"c@	c #373737",
"d@	c #2B2B2B",
"e@	c #343433",
"f@	c #484847",
"g@	c #6A6A68",
"h@	c #8E8E8D",
"i@	c #353535",
"j@	c #80927E",
"k@	c #9FC094",
"l@	c #91AE85",
"m@	c #3B5638",
"n@	c #343435",
"o@	c #9C9C9B",
"p@	c #A09F9E",
"q@	c #8C8C8B",
"r@	c #333333",
"s@	c #4C4B4C",
"t@	c #697A68",
"u@	c #4A7147",
"v@	c #64905F",
"w@	c #99BD8F",
"x@	c #4C6947",
"y@	c #04060C",
"z@	c #000001",
"A@	c #0A0A0A",
"B@	c #191919",
"C@	c #303030",
"D@	c #2F3030",
"E@	c #010102",
"F@	c #05070B",
"G@	c #2D432C",
"H@	c #3F603D",
"I@	c #4D764A",
"J@	c #648F5F",
"K@	c #A0C195",
"L@	c #3F593B",
"M@	c #161916",
"N@	c #2A2B2C",
"O@	c #161617",
"P@	c #151617",
"Q@	c #141517",
"R@	c #0C0C0E",
"S@	c #0F121E",
"T@	c #050805",
"U@	c #233522",
"V@	c #98BB8D",
"W@	c #98A193",
"X@	c #737373",
"Y@	c #000101",
"Z@	c #2A4029",
"`@	c #4F764C",
" #	c #7E917C",
".#	c #828282",
"+#	c #243723",
"@#	c #788277",
"##	c #939293",
"$#	c #565656",
"%#	c #070907",
"&#	c #535253",
"*#	c #6F6F6F",
"=#	c #4B4B4B",
"                          . .                                   ",
"                  . + . . + @ . . @ .                           ",
"              @ # $ % & * = - ; > , ' # @                       ",
"            . # ) ! ~ { ] ^ / ( _ : < [ # .                     ",
"        @ . } | 1 2 3 4 . 5 5 . 6 7 8 9 0 a . @                 ",
"        . b c d e $ f g h i j k l m $ e n o p .                 ",
"      . q r s t u v w x y z A B C D E u F o G H .               ",
"    . @ I J K L M N O P Q R S T U V W X Y Z _ ` @ @             ",
"    @  ...+.@.#.$.%.&.*.=.-.;.>.,.'.).!.~.@.{.]., @             ",
"  . ^./.(._.:.<.[.}.|.1.2.3.4.5.6.7.8.9.0.a.b.c.d.e..           ",
"  . f.g.h.L i.j.k.l.m.n.o.p.q.r.s.  t.u.  v.# +.w.x..           ",
"  @ y.1 z.A.B.C.D.E.F.3.p.G.H.I.    J.K.  L.M.Z 9 N.@           ",
"  @ O.P.Q.R.S.T.U.V.o.p.W.X.Y.Z.            `. +_ .+@           ",
"  . ++@+#+$+%+&+-.3.p.G.H.*+=+              -+;+>+,+@           ",
"  @ {.'+)+!+~+{+]+^+W./+(+_+                :+<+[+}+@           ",
"  @ |+9 b 1+2+3+4+5+6+7+                    8+9+0+a+@           ",
"  @ b+'+c+d+e+f+g+h+                i+j+  k+l+m+n+o+@           ",
"  . p+G q+r+s+  t+u+                v+w+  x+y+z+A+ +.           ",
"    # B+>+N.C+D+E+F+G+H+        I+J+K+L+M+)+N+O+P+.             ",
"    @ Q+R+- S+T+U+V+W+X+        Y+Z+`+ @.@S++@@@Q+@             ",
"      @ 7 >+#@$@%@&@                *@=@-@;@J >@y+. @           ",
"      @ r+,+_ ,@^.'@)@!@~@    {@]@^@#+^./@(@>+o _@:@@ @         ",
"        @ . }+R+o <@$ [@}@|@)+}@[@1@2@3@4@5@'+6@7@8@9@0@@       ",
"          . e.a@( 9 - b@c@d@e@f@g@] 1 h@i@< '+j@k@l@m@9@@ @     ",
"            Q+. M.n@; ( n _ o@p@q@0 r@^.m s@t@u@v@w@l@x@9@0@@   ",
"                y@z@A@B@b+C@D@o+p r+E@F@. $@G@H@I@J@K@l@L@M@@   ",
"                    N@Q+O@O@P@Q@R@S@      E@T@U@H@u@v@V@W@X@@ . ",
"                                            Y@T@Z@H@`@ #9 .#@ @ ",
"                                              . T@+#@###n $#@   ",
"                                                r+%#&#*#=#Q+@   ",
"                                                  ^.@ . @ @     ",
"                                                                "};
