/* XPM */
static const char * ICON_NEXT_xpm[] = {
"32 32 345 2",
"  	c None",
". 	c #000000",
"+ 	c #2A1E02",
"@ 	c #624506",
"# 	c #7E5907",
"$ 	c #986B09",
"% 	c #865E08",
"& 	c #6C4C06",
"* 	c #523A04",
"= 	c #040300",
"- 	c #050300",
"; 	c #7F5907",
"> 	c #EAA40E",
", 	c #F4AB0F",
"' 	c #F3AB0F",
") 	c #F0A90E",
"! 	c #EDA70E",
"~ 	c #E9A40D",
"{ 	c #E5A10D",
"] 	c #DF9E0C",
"^ 	c #D8980C",
"/ 	c #8C6307",
"( 	c #181101",
"_ 	c #422F04",
": 	c #E9A40E",
"< 	c #FAAF0F",
"[ 	c #FBB010",
"} 	c #FBB110",
"| 	c #FAB00F",
"1 	c #F8AE0F",
"2 	c #F4AC0F",
"3 	c #EAA50E",
"4 	c #DF9D0C",
"5 	c #D8990B",
"6 	c #D1930B",
"7 	c #725106",
"8 	c #6C4C07",
"9 	c #F6AD0F",
"0 	c #FEB210",
"a 	c #FFB516",
"b 	c #FFB61C",
"c 	c #FFB518",
"d 	c #FFB310",
"e 	c #FBB00F",
"f 	c #F5AD0F",
"g 	c #EAA40D",
"h 	c #E3A00D",
"i 	c #DC9B0C",
"j 	c #D5970B",
"k 	c #CE920A",
"l 	c #9F7007",
"m 	c #140E01",
"n 	c #F9AF0F",
"o 	c #FFB311",
"p 	c #FFB720",
"q 	c #FFBA2B",
"r 	c #FFBC32",
"s 	c #FFBC33",
"t 	c #FFBB2D",
"u 	c #FFB823",
"v 	c #FFB414",
"w 	c #EEA70E",
"x 	c #E7A30D",
"y 	c #E09E0C",
"z 	c #D1940B",
"A 	c #C98F0A",
"B 	c #A47508",
"C 	c #0C0801",
"D 	c #3B2A03",
"E 	c #FFB71F",
"F 	c #FFBC31",
"G 	c #FFBF3F",
"H 	c #FFC248",
"I 	c #FFC249",
"J 	c #FFC041",
"K 	c #FFBD34",
"L 	c #FCB828",
"M 	c #F1AA0E",
"N 	c #EAA50D",
"O 	c #E2A00D",
"P 	c #DB9A0C",
"Q 	c #D3950B",
"R 	c #CB900A",
"S 	c #C48B09",
"T 	c #916806",
"U 	c #020100",
"V 	c #070500",
"W 	c #D4950C",
"X 	c #FFB415",
"Y 	c #FFBA2A",
"Z 	c #FFBF3E",
"` 	c #FEC450",
" .	c #FEC75D",
"..	c #FEC85F",
"+.	c #FEC554",
"@.	c #C7AF80",
"#.	c #FCF8F0",
"$.	c #F3EEE2",
"%.	c #FBB215",
"&.	c #ECA60E",
"*.	c #E4A10D",
"=.	c #DC9C0C",
"-.	c #D5960B",
";.	c #CD910A",
">.	c #C58C09",
",.	c #BD8708",
"'.	c #443003",
").	c #6A4B06",
"!.	c #FFB61A",
"~.	c #FFBB30",
"{.	c #FFC146",
"].	c #FEC75C",
"^.	c #FECC70",
"/.	c #FECD73",
"(.	c #FEC861",
"_.	c #E2E0DB",
":.	c #FDFAF5",
"<.	c #F6CB70",
"[.	c #F5AC0F",
"}.	c #DD9C0C",
"|.	c #C68C09",
"1.	c #BE8708",
"2.	c #A37406",
"3.	c #050400",
"4.	c #CB8F0C",
"5.	c #FECC71",
"6.	c #FECD74",
"7.	c #E7E6E3",
"8.	c #FDFCF7",
"9.	c #FCF9F2",
"0.	c #F4CD7B",
"a.	c #B68207",
"b.	c #3A2902",
"c.	c #281D02",
"d.	c #F2AA0E",
"e.	c #FEC451",
"f.	c #FEC85E",
"g.	c #FEC860",
"h.	c #FEC555",
"i.	c #E7E5E1",
"j.	c #FDFBF6",
"k.	c #FCF9F1",
"l.	c #F3CC7B",
"m.	c #B68107",
"n.	c #705004",
"o.	c #614405",
"p.	c #E8A30D",
"q.	c #EFA80E",
"r.	c #F7AD0F",
"s.	c #FFC040",
"t.	c #FEC24A",
"u.	c #FFC042",
"v.	c #E6E3DD",
"w.	c #FBF7EE",
"x.	c #F1CC7A",
"y.	c #DB9B0C",
"z.	c #CC900A",
"A.	c #BC8608",
"B.	c #B48107",
"C.	c #9B6F05",
"D.	c #785506",
"E.	c #E5A20D",
"F.	c #EDB031",
"G.	c #D8C9A8",
"H.	c #F3BE4E",
"I.	c #FFBC34",
"J.	c #FFBB2E",
"K.	c #E5E1D9",
"L.	c #FBF7ED",
"M.	c #FAF6EA",
"N.	c #F0CA79",
"O.	c #E1A011",
"P.	c #C4B187",
"Q.	c #DEC284",
"R.	c #D2950E",
"S.	c #CA8F0A",
"T.	c #C28A09",
"U.	c #BA8508",
"V.	c #B38007",
"W.	c #A97906",
"X.	c #030200",
"Y.	c #8B6208",
"Z.	c #E29F0D",
"`.	c #E8A40D",
" +	c #E4DDCE",
".+	c #F8F1E1",
"++	c #F9F3E6",
"@+	c #EBC880",
"#+	c #FFB519",
"$+	c #E4DFD4",
"%+	c #FAF5E8",
"&+	c #F9F4E6",
"*+	c #EDC878",
"=+	c #DE9E11",
"-+	c #DDD5C3",
";+	c #F5ECD5",
">+	c #F4EAD0",
",+	c #D9BA73",
"'+	c #C78D09",
")+	c #C08809",
"!+	c #B88308",
"~+	c #B17E07",
"{+	c #110C01",
"]+	c #7F5A06",
"^+	c #E4A00D",
"/+	c #F2AA0F",
"(+	c #E1DAC9",
"_+	c #F7EFDD",
":+	c #F8F1E0",
"<+	c #F8F2E3",
"[+	c #E9C578",
"}+	c #E3DDD0",
"|+	c #F9F2E3",
"1+	c #E3C37A",
"2+	c #F6ECD6",
"3+	c #F5EAD2",
"4+	c #F4E8CD",
"5+	c #D9BA77",
"6+	c #BD8608",
"7+	c #AE7C06",
"8+	c #A77706",
"9+	c #090600",
"0+	c #674905",
"a+	c #DE9D0C",
"b+	c #C59B41",
"c+	c #F4ECD8",
"d+	c #F7EEDB",
"e+	c #F7F0DF",
"f+	c #F2ECDC",
"g+	c #F7F0DD",
"h+	c #F7EFDB",
"i+	c #F1EAD8",
"j+	c #F5EBD2",
"k+	c #F4E9CE",
"l+	c #E7DCC1",
"m+	c #C88F0D",
"n+	c #C08909",
"o+	c #B98408",
"p+	c #B27F07",
"q+	c #AB7A06",
"r+	c #9C6F05",
"s+	c #D9990B",
"t+	c #DE9C0C",
"u+	c #E6A20D",
"v+	c #C19A44",
"w+	c #F4EBD5",
"x+	c #F6EDD7",
"y+	c #F6EDD8",
"z+	c #F5EBD4",
"A+	c #F5EAD1",
"B+	c #E5D9BE",
"C+	c #CA900F",
"D+	c #C38A09",
"E+	c #B58107",
"F+	c #AF7D07",
"G+	c #A87806",
"H+	c #7F5A04",
"I+	c #0B0801",
"J+	c #C88E0A",
"K+	c #D7980B",
"L+	c #E19F0D",
"M+	c #BD9744",
"N+	c #F3E9D3",
"O+	c #F5EBD3",
"P+	c #F4EAD1",
"Q+	c #F4E9CF",
"R+	c #F3E8CC",
"S+	c #CA910F",
"T+	c #A47505",
"U+	c #4B3602",
"V+	c #8B6206",
"W+	c #CC910A",
"X+	c #D4960B",
"Y+	c #DA9A0C",
"Z+	c #B99442",
"`+	c #F2E7CE",
" @	c #F3E7CB",
".@	c #F3E7C9",
"+@	c #E4D9BD",
"@@	c #B98308",
"#@	c #B37F07",
"$@	c #AD7B06",
"%@	c #A67706",
"&@	c #9F7305",
"*@	c #150F01",
"=@	c #261B02",
"-@	c #C58B09",
";@	c #D0930A",
">@	c #D2950B",
",@	c #B49141",
"'@	c #F0E5C9",
")@	c #F2E5C7",
"!@	c #F2E5C6",
"~@	c #E4D7BB",
"{@	c #C88F0E",
"]@	c #A27405",
"^@	c #614603",
"/@	c #795605",
"(@	c #C98E0A",
"_@	c #B5903B",
":@	c #C9B78D",
"<@	c #CDB786",
"[@	c #C38C0A",
"}@	c #B78308",
"|@	c #A37405",
"1@	c #9A6E04",
"2@	c #120D00",
"3@	c #090700",
"4@	c #9B6E07",
"5@	c #BF8708",
"6@	c #C18909",
"7@	c #C38B09",
"8@	c #C28909",
"9@	c #BF8808",
"0@	c #AC7B06",
"a@	c #9C7004",
"b@	c #2F2101",
"c@	c #171001",
"d@	c #AC7A08",
"e@	c #BB8508",
"f@	c #BC8508",
"g@	c #BA8408",
"h@	c #AE7C07",
"i@	c #AA7A06",
"j@	c #3A2A02",
"k@	c #0E0A01",
"l@	c #866005",
"m@	c #B48007",
"n@	c #B07E07",
"o@	c #A77806",
"p@	c #A07205",
"q@	c #936A04",
"r@	c #453202",
"s@	c #AD7C06",
"t@	c #A07305",
"u@	c #604503",
"v@	c #6D4E03",
"w@	c #916804",
"x@	c #A47605",
"y@	c #A37505",
"z@	c #A17405",
"A@	c #9E7105",
"B@	c #7E5B03",
"C@	c #493502",
"D@	c #080600",
"                                                                ",
"                      . . . . . . . . .                         ",
"                  . . . . . . . . . . . . . .                   ",
"              . . . . . + @ # $ % & * = . . . . .               ",
"            . . . - ; > , ' ) ! ~ { ] ^ / ( . . . .             ",
"          . . . _ : < [ } | 1 2 ) 3 { 4 5 6 7 = . . .           ",
"        . . . 8 9 0 a b b c d e f ) g h i j k l m . . .         ",
"      . . . 8 n o p q r s t u v [ 2 w x y 5 z A B C . .         ",
"      . . D , 0 E F G H I J K L o 1 M N O P Q R S T U . .       ",
"    . . V W n X Y Z `  ...+.@.#.$.%.' &.*.=.-.;.>.,.'.. . .     ",
"    . . ).' e !.~.{.].^./.(._.:.#.<.[.! { }.j k |.1.2.3.. .     ",
"  . . . 4.' e !.~.{.].5.6.(.7.8.9.0.[.! { }.j k |.1.a.b.. .     ",
"  . . c.3 d.n X Y G e.f.g.h.i.j.k.l.' &.*.=.-.;.>.,.m.n.. . .   ",
"  . . o.p.q.r.0 p F s.I t.u.v.9.w.x.M 3 O y.Q z.S A.B.C.. . .   ",
"  . . D.E.&.' < o F.G.H.I.J.K.L.M.N.w O.P.Q.R.S.T.U.V.W.X.. .   ",
"  . . Y.Z.`.q.2 1  +.+++@+#+$+%+&+*+=+-+;+>+,+'+)+!+~+W.{+. .   ",
"  . . ]+}.^+~ q./+(+_+:+<+[+}+|+.+1+-+2+3+4+5+S 6+m.7+8+9+. .   ",
"  . . 0+5 a+*.~ ! b+c+d+_+e+f+g+h+i+2+j+k+l+m+n+o+p+q+r+. . .   ",
"  . . '.Q s+t+Z.u+~ v+w+x+y+y+y+2+z+A+k+B+C+D+A.E+F+G+H+. . .   ",
"  . . I+J+Q K+y.4 L+h M+N+j+O+j+P+Q+R+B+S+S 1.!+~+q+T+U+. .     ",
"    . . V+W+z X+K+Y+y.=.Z+`+4+R+ @.@+@C+S 1.@@#@$@%@&@*@. .     ",
"    . . =@-@S.;.;@>@X+-.-.,@'@)@!@~@{@T.1.@@V.7+G+]@^@. . .     ",
"    . . . /@D+|.(@R W+;.;.W+_@:@<@[@)+A.}@#@7+G+|@1@2@. .       ",
"      . . 3@4@5@6@D+S >.>.S 7@8@9@A.o+E+~+0@G+]@a@b@. . .       ",
"        . . c@d@o+e@A.6+6+6+f@g@!+E+p+h@i@%@]@a@j@. . .         ",
"        . . . k@l@m@E+E+E+E+m@p+n@7+q+o@T+p@q@b@. . .           ",
"          . . . X.r@r+s@7+s@0@q+W.%@T+t@a@u@2@. . .             ",
"            . . . . V b.v@w@x@y@z@A@B@C@*@. . . .               ",
"                . . . . . . . m D@. . . . . . .                 ",
"                  . . . . . . . . . . . . .                     ",
"                        . . . . . . .                           ",
"                                                                "};
