/* XPM */
static const char * ICON_PREV_xpm[] = {
"32 32 327 2",
"  	c None",
". 	c #000000",
"+ 	c #241902",
"@ 	c #3D2B03",
"# 	c #593F05",
"$ 	c #4C3604",
"% 	c #342503",
"& 	c #140E01",
"* 	c #0F0B01",
"= 	c #7B5707",
"- 	c #E19E0D",
"; 	c #F1A90E",
"> 	c #EFA80E",
", 	c #ECA60E",
"' 	c #E8A40D",
") 	c #E4A00D",
"! 	c #DD9D0C",
"~ 	c #AD7A0A",
"{ 	c #614505",
"] 	c #050400",
"^ 	c #0E0A01",
"/ 	c #8F6409",
"( 	c #F5AC0F",
"_ 	c #F9AF0F",
": 	c #FAAF0F",
"< 	c #F6AD0F",
"[ 	c #F3AB0F",
"} 	c #EAA50D",
"| 	c #E4A10D",
"1 	c #DE9D0C",
"2 	c #D8980B",
"3 	c #C68C0A",
"4 	c #523A04",
"5 	c #231902",
"6 	c #D0930D",
"7 	c #FCB110",
"8 	c #FFB310",
"9 	c #FFB516",
"0 	c #FFB517",
"a 	c #FFB414",
"b 	c #FEB210",
"c 	c #E9A40D",
"d 	c #E3A00D",
"e 	c #DC9B0C",
"f 	c #D5970B",
"g 	c #CE920A",
"h 	c #875F06",
"i 	c #080600",
"j 	c #1D1402",
"k 	c #E6A20E",
"l 	c #FDB210",
"m 	c #FFB519",
"n 	c #FFB925",
"o 	c #FFBA2C",
"p 	c #FFBB2E",
"q 	c #FFBA29",
"r 	c #FFB720",
"s 	c #FFB413",
"t 	c #FAB00F",
"u 	c #F4AC0F",
"v 	c #EDA70E",
"w 	c #E7A20D",
"x 	c #DF9E0C",
"y 	c #D8990B",
"z 	c #D1940B",
"A 	c #C98F0A",
"B 	c #9B6E07",
"C 	c #050300",
"D 	c #CE910D",
"E 	c #FFBA2A",
"F 	c #FFBE39",
"G 	c #FFC042",
"H 	c #FFC144",
"I 	c #FFBF3E",
"J 	c #FFBC32",
"K 	c #FFB822",
"L 	c #F8AE0F",
"M 	c #F1AA0E",
"N 	c #EAA50E",
"O 	c #E2A00D",
"P 	c #DB9A0C",
"Q 	c #D3950B",
"R 	c #CC900A",
"S 	c #C48B09",
"T 	c #775505",
"U 	c #8C6308",
"V 	c #F7AE0F",
"W 	c #FFB825",
"X 	c #FFBE38",
"Y 	c #FEC24A",
"Z 	c #FEC658",
"` 	c #FEC75B",
" .	c #FEC452",
"..	c #BCA370",
"+.	c #C4C0B5",
"@.	c #C5BFB2",
"#.	c #F5BC43",
"$.	c #F4AB0F",
"%.	c #DD9C0C",
"&.	c #D5960B",
"*.	c #CD910A",
"=.	c #C58C09",
"-.	c #BD8708",
";.	c #3A2902",
">.	c #221802",
",.	c #ECA70E",
"'.	c #FFB415",
").	c #FFBA2B",
"!.	c #FEC657",
"~.	c #FECB6A",
"{.	c #FECC71",
"].	c #B9A47D",
"^.	c #F4F2ED",
"/.	c #FCF9F2",
"(.	c #FBF7EE",
"_.	c #DFDBD1",
":.	c #EBB84A",
"<.	c #E6A20D",
"[.	c #DE9C0C",
"}.	c #D6970B",
"|.	c #C68C09",
"1.	c #BE8708",
"2.	c #996E06",
"3.	c #030200",
"4.	c #845D07",
"5.	c #FFBB2D",
"6.	c #FFC043",
"7.	c #FEC65A",
"8.	c #FECC70",
"9.	c #B9A787",
"0.	c #F5F3F0",
"a.	c #FDFBF6",
"b.	c #FBF8EF",
"c.	c #FAF6EB",
"d.	c #DED9CE",
"e.	c #E6B549",
"f.	c #C68D09",
"g.	c #B68207",
"h.	c #342602",
"i.	c #CC900B",
"j.	c #F0A90E",
"k.	c #FFB928",
"l.	c #FFBF3D",
"m.	c #FEC451",
"n.	c #B9A47C",
"o.	c #FDFCF7",
"p.	c #FDFAF5",
"q.	c #FCF9F1",
"r.	c #FAF6EA",
"s.	c #F9F4E7",
"t.	c #DED7CA",
"u.	c #E0B049",
"v.	c #CD920A",
"w.	c #6A4C04",
"x.	c #211702",
"y.	c #E7A30D",
"z.	c #EEA80E",
"A.	c #FFB71F",
"B.	c #FFBC31",
"C.	c #B8A06F",
"D.	c #FBF7EC",
"E.	c #FAF5E9",
"F.	c #F9F3E6",
"G.	c #F8F2E2",
"H.	c #DDD6C7",
"I.	c #D9AB47",
"J.	c #D4960B",
"K.	c #CC910A",
"L.	c #BD8608",
"M.	c #B58107",
"N.	c #986D05",
"O.	c #3A2903",
"P.	c #EBA60E",
"Q.	c #F2AB0F",
"R.	c #FFB311",
"S.	c #C39F55",
"T.	c #F6F3EB",
"U.	c #E8E5DE",
"V.	c #C4C0B8",
"W.	c #FBF7ED",
"X.	c #C2BAAA",
"Y.	c #F5EFE0",
"Z.	c #F8F1E1",
"`.	c #F7F0DD",
" +	c #E3DBC9",
".+	c #D6A436",
"++	c #CA8F0A",
"@+	c #C38A09",
"#+	c #BB8508",
"$+	c #B38007",
"%+	c #AA7906",
"&+	c #020100",
"*+	c #4F3804",
"=+	c #E19F0C",
"-+	c #E8A30D",
";+	c #BBB7AB",
">+	c #E5E2DA",
",+	c #EDBB52",
"'+	c #B2AC9F",
")+	c #FAF5E8",
"!+	c #D7C190",
"~+	c #AB9562",
"{+	c #F3ECDB",
"]+	c #F7EFDC",
"^+	c #F6EED9",
"/+	c #C8B895",
"(+	c #C88E0A",
"_+	c #C08909",
":+	c #B98408",
"<+	c #B17E07",
"[+	c #0F0B00",
"}+	c #483304",
"|+	c #A7997C",
"1+	c #EEB73E",
"2+	c #B1AB9D",
"3+	c #FAF4E7",
"4+	c #F9F3E5",
"5+	c #D6BF8F",
"6+	c #A9915C",
"7+	c #EAE1CE",
"8+	c #F5ECD6",
"9+	c #CDB170",
"0+	c #AF7D07",
"a+	c #A77806",
"b+	c #0B0800",
"c+	c #322303",
"d+	c #CE9F38",
"e+	c #F5AC10",
"f+	c #B0AA9B",
"g+	c #F9F3E4",
"h+	c #D4BE8E",
"i+	c #DB9B0C",
"j+	c #C78E0D",
"k+	c #D3A02C",
"l+	c #C18909",
"m+	c #BA8408",
"n+	c #AC7B06",
"o+	c #A07205",
"p+	c #110C01",
"q+	c #D2950B",
"r+	c #E29F0D",
"s+	c #AFA898",
"t+	c #F8F1DF",
"u+	c #D1BC8C",
"v+	c #D0930A",
"w+	c #A97806",
"x+	c #856004",
"y+	c #A37308",
"z+	c #D7980B",
"A+	c #DF9D0C",
"B+	c #E5A20D",
"C+	c #E5A10D",
"D+	c #AFA797",
"E+	c #F7F0DE",
"F+	c #D0BB8B",
"G+	c #CB900A",
"H+	c #BF8808",
"I+	c #B98308",
"J+	c #B27F07",
"K+	c #AB7B06",
"L+	c #A57605",
"M+	c #543C03",
"N+	c #5E4304",
"O+	c #DA9A0C",
"P+	c #AEA694",
"Q+	c #F7EEDA",
"R+	c #CEB88A",
"S+	c #CF920A",
"T+	c #BF8809",
"U+	c #B48007",
"V+	c #AE7C06",
"W+	c #A17305",
"X+	c #1D1501",
"Y+	c #0B0801",
"Z+	c #B78108",
"`+	c #D0930B",
" @	c #A69C86",
".@	c #F6EDD7",
"+@	c #F6ECD5",
"@@	c #D1B16A",
"#@	c #A97906",
"$@	c #A27405",
"%@	c #6F5003",
"&@	c #523A03",
"*@	c #C98E0A",
"=@	c #B88D2C",
"-@	c #C4BBA7",
";@	c #BBAB85",
">@	c #C58B09",
",@	c #B88308",
"'@	c #AE7D07",
")@	c #A37505",
"!@	c #9C7005",
"~@	c #1C1401",
"{@	c #010100",
"]@	c #7F5A05",
"^@	c #C38B09",
"/@	c #AD7C06",
"(@	c #9E7105",
"_@	c #402E02",
":@	c #040300",
"<@	c #8F6706",
"[@	c #BC8508",
"}@	c #BC8608",
"|@	c #AB7A06",
"1@	c #A77706",
"2@	c #9D7105",
"3@	c #5D4302",
"4@	c #715104",
"5@	c #B68107",
"6@	c #A87806",
"7@	c #A07305",
"8@	c #996E04",
"9@	c #372702",
"0@	c #936905",
"a@	c #AD7B06",
"b@	c #A47605",
"c@	c #A17405",
"d@	c #6E4F03",
"e@	c #1B1301",
"f@	c #2C2002",
"g@	c #654904",
"h@	c #916805",
"i@	c #A47505",
"j@	c #9F7305",
"k@	c #845F03",
"l@	c #513B02",
"                                                                ",
"                        . . . . . . . .                         ",
"                    . . . . . . . . . . . .                     ",
"                . . . . . + @ # $ % & . . . . .                 ",
"            . . . . * = - ; > , ' ) ! ~ { ] . . .               ",
"          . . . ^ / ( _ : _ < [ > } | 1 2 3 4 . . . .           ",
"        . . . 5 6 7 8 9 0 a b : ( > c d e f g h i . .           ",
"        . . j k l m n o p q r s t u v w x y z A B C . .         ",
"      . . ^ D 7 m E F G H I J K 8 L M N O P Q R S T . . .       ",
"    . . . U V 8 W X Y Z `  ...+.@.#.$., | %.&.*.=.-.;.. .       ",
"    . . >.,._ '.).G !.~.{.].^./.(._.:.v <.[.}.g |.1.2.3.. .     ",
"    . . 4.M _ 9 5.6.7.8.9.0.a./.b.c.d.e.<.1 }.g f.1.g.h.. .     ",
"  . . . i.j.L s k.l.m.n.0.o.p.q.(.r.s.t.u.%.f v.|.1.g.w.. . .   ",
"  . . x.y.z.< l A.B.C.^.a.p./.b.D.E.F.G.H.I.J.K.S L.M.N.. . .   ",
"  . . O.| P.Q._ R.S.T././.U.V.W.r.X.Y.Z.`. +.+++@+#+$+%+&+. .   ",
"  . . *+=+-+z.u t ;+(.b.>+,+'+r.)+!+~+{+]+^+/+(+_+:+<+%+[+. .   ",
"  . . }+%.d c > $.|+r._.1+7 2+3+4+5+<.6+7+8+9+=.1.g.0+a+b+. .   ",
"  . . c+y 1 ) c v ; d+e+( u f+g+G.h+=+i+j+k+(+l+m+$+n+o+. . .   ",
"  . . p+q+y %.r+<.c , v v , s+Z.t+u+i+}.v+++S L.g.0+w+x+. . .   ",
"  . . . y+q+z+i+A+r+| B+B+C+D+E+]+F+f v+G+=.H+I+J+K+L+M+. . .   ",
"    . . N+K.z J.2 O+e %.[.%.P+Q+^+R+S+++=.T+m+U+V+a+W+X+. .     ",
"    . . Y+Z+++*.`+Q J.f }.f  @.@+@@@(+S H+m+U+0+#@$@%@. . .     ",
"    . . . &@@+f.*@G+*.g g *.=@-@;@>@l+L.,@U+'@#@)@!@~@. .       ",
"      . . {@]@H+l+^@=.|.|.=.S @+_+-.m+g.J+/@#@)@(@_@. . .       ",
"        . . :@<@m+[@L.1.1.-.}@#+I+g.$+0+|@1@$@2@3@. . .         ",
"        . . . ] 4@U+M.g.g.5@M.$+<+0+n+6@L+7@8@_@. . .           ",
"          . . . . 9@0@V+V+V+a@|@%+a+b@c@(@d@e@. . . .           ",
"            . . . . . f@g@h@L+i@$@j@k@l@X+. . . .               ",
"                . . . . . . . & b+. . . . . . .                 ",
"                    . . . . . . . . . . . .                     ",
"                        . . . . . . . .                         ",
"                                                                "};
